Grotesca Reforma-Preta Condensada .ufo
<glyph name="exclam" format="2">
	<advance width="283"/>
	<unicode hex="0021"/>
	<outline>
		<contour>
			<point x="34" y="800" type="line"/>
			<point x="79" y="242" type="line"/>
			<point x="204" y="242" type="line"/>
			<point x="249" y="800" type="line"/>
		</contour>
		<component base="period" xOffset="7"/>
	</outline>
</glyph>
<glyph name="numbersign" format="2">
	<advance width="749"/>
	<unicode hex="0023"/>
	<outline>
		<contour>
			<point x="44" y="210" type="line"/>
			<point x="155" y="210" type="line"/>
			<point x="120" y="0" type="line"/>
			<point x="246" y="0" type="line"/>
			<point x="281" y="210" type="line"/>
			<point x="404" y="210" type="line"/>
			<point x="369" y="0" type="line"/>
			<point x="495" y="0" type="line"/>
			<point x="530" y="210" type="line"/>
			<point x="671" y="210" type="line"/>
			<point x="671" y="320" type="line"/>
			<point x="549" y="320" type="line"/>
			<point x="575" y="480" type="line"/>
			<point x="706" y="480" type="line"/>
			<point x="706" y="590" type="line"/>
			<point x="594" y="590" type="line"/>
			<point x="629" y="800" type="line"/>
			<point x="504" y="800" type="line"/>
			<point x="469" y="590" type="line"/>
			<point x="345" y="590" type="line"/>
			<point x="380" y="800" type="line"/>
			<point x="255" y="800" type="line"/>
			<point x="220" y="590" type="line"/>
			<point x="79" y="590" type="line"/>
			<point x="79" y="480" type="line"/>
			<point x="201" y="480" type="line"/>
			<point x="174" y="320" type="line"/>
			<point x="44" y="320" type="line"/>
		</contour>
		<contour>
			<point x="291" y="311" type="line"/>
			<point x="320" y="490" type="line"/>
			<point x="459" y="490" type="line"/>
			<point x="430" y="311" type="line"/>
		</contour>
	</outline>
</glyph>
<glyph name="dollar" format="2">
	<advance width="604"/>
	<unicode hex="0024"/>
	<outline>
		<contour>
			<point x="242" y="-100" type="line"/>
			<point x="360" y="-100" type="line"/>
			<point x="360" y="31" type="line"/>
			<point x="242" y="31" type="line"/>
		</contour>
		<contour>
			<point x="242" y="769" type="line"/>
			<point x="360" y="769" type="line"/>
			<point x="360" y="900" type="line"/>
			<point x="242" y="900" type="line"/>
		</contour>
		<component base="S"/>
	</outline>
</glyph>
<glyph name="ampersand" format="2">
	<advance width="776"/>
	<unicode hex="0026"/>
	<outline>
		<contour>
			<point x="707" y="5" type="curve"/>
			<point x="707" y="141" type="line"/>
			<point x="696" y="138"/>
			<point x="682" y="137"/>
			<point x="667" y="137" type="curve" smooth="yes"/>
			<point x="631" y="137"/>
			<point x="598" y="157"/>
			<point x="570" y="193" type="curve" smooth="yes"/>
			<point x="314" y="518" type="line" smooth="yes"/>
			<point x="288" y="550"/>
			<point x="267" y="592"/>
			<point x="267" y="635" type="curve" smooth="yes"/>
			<point x="267" y="668"/>
			<point x="281" y="686"/>
			<point x="308" y="686" type="curve" smooth="yes"/>
			<point x="334" y="686"/>
			<point x="347" y="670"/>
			<point x="347" y="638" type="curve" smooth="yes"/>
			<point x="347" y="618"/>
			<point x="341" y="597"/>
			<point x="329" y="578" type="curve" smooth="yes"/>
			<point x="315" y="556"/>
			<point x="293" y="535"/>
			<point x="267" y="515" type="curve" smooth="yes"/>
			<point x="188" y="456" type="line" smooth="yes"/>
			<point x="138" y="418"/>
			<point x="100" y="377"/>
			<point x="76" y="334" type="curve" smooth="yes"/>
			<point x="54" y="294"/>
			<point x="41" y="255"/>
			<point x="41" y="214" type="curve" smooth="yes"/>
			<point x="41" y="67"/>
			<point x="135" y="-13"/>
			<point x="309" y="-13" type="curve" smooth="yes"/>
			<point x="535" y="-13"/>
			<point x="659" y="134"/>
			<point x="659" y="407" type="curve"/>
			<point x="659" y="413" type="line"/>
			<point x="501" y="413" type="line"/>
			<point x="501" y="407" type="line"/>
			<point x="497" y="227"/>
			<point x="428" y="130"/>
			<point x="309" y="130" type="curve" smooth="yes"/>
			<point x="249" y="130"/>
			<point x="216" y="159"/>
			<point x="216" y="214" type="curve" smooth="yes"/>
			<point x="216" y="238"/>
			<point x="220" y="259"/>
			<point x="229" y="277" type="curve" smooth="yes"/>
			<point x="238" y="295"/>
			<point x="251" y="313"/>
			<point x="268" y="326" type="curve" smooth="yes"/>
			<point x="347" y="385" type="line" smooth="yes"/>
			<point x="403" y="427"/>
			<point x="443" y="472"/>
			<point x="471" y="517" type="curve" smooth="yes"/>
			<point x="495" y="556"/>
			<point x="510" y="596"/>
			<point x="510" y="636" type="curve" smooth="yes"/>
			<point x="510" y="752"/>
			<point x="441" y="814"/>
			<point x="314" y="814" type="curve" smooth="yes"/>
			<point x="174" y="814"/>
			<point x="99" y="750"/>
			<point x="99" y="633" type="curve" smooth="yes"/>
			<point x="99" y="570"/>
			<point x="129" y="503"/>
			<point x="172" y="449" type="curve" smooth="yes"/>
			<point x="461" y="83" type="line" smooth="yes"/>
			<point x="504" y="29"/>
			<point x="566" y="-3"/>
			<point x="643" y="-3" type="curve" smooth="yes"/>
			<point x="665" y="-3"/>
			<point x="687" y="-1"/>
		</contour>
	</outline>
</glyph>
<glyph name="quotesingle" format="2">
	<advance width="269"/>
	<unicode hex="0027"/>
	<outline>
		<contour>
			<point x="48" y="730" type="line"/>
			<point x="88" y="550" type="line"/>
			<point x="181" y="550" type="line"/>
			<point x="221" y="730" type="line"/>
			<point x="221" y="820" type="line"/>
			<point x="48" y="820" type="line"/>
		</contour>
	</outline>
</glyph>
<glyph name="parenleft" format="2">
	<advance width="320"/>
	<unicode hex="0028"/>
	<outline>
		<contour>
			<point x="50" y="170" type="line" smooth="yes"/>
			<point x="50" y="10"/>
			<point x="110" y="-119"/>
			<point x="230" y="-190" type="curve"/>
			<point x="315" y="-140" type="line"/>
			<point x="256" y="-66"/>
			<point x="225" y="39"/>
			<point x="225" y="148" type="curve" smooth="yes"/>
			<point x="225" y="493" type="line" smooth="yes"/>
			<point x="225" y="602"/>
			<point x="256" y="706"/>
			<point x="315" y="780" type="curve"/>
			<point x="230" y="830" type="line"/>
			<point x="110" y="759"/>
			<point x="50" y="631"/>
			<point x="50" y="470" type="curve" smooth="yes"/>
		</contour>
	</outline>
</glyph>
<glyph name="parenright" format="2">
	<advance width="347"/>
	<unicode hex="0029"/>
	<outline>
		<contour>
			<point x="298" y="170" type="curve" smooth="yes"/>
			<point x="298" y="470" type="line" smooth="yes"/>
			<point x="298" y="631"/>
			<point x="238" y="759"/>
			<point x="118" y="830" type="curve"/>
			<point x="33" y="780" type="line"/>
			<point x="92" y="706"/>
			<point x="123" y="602"/>
			<point x="123" y="493" type="curve" smooth="yes"/>
			<point x="123" y="148" type="line" smooth="yes"/>
			<point x="123" y="39"/>
			<point x="92" y="-66"/>
			<point x="33" y="-140" type="curve"/>
			<point x="118" y="-190" type="line"/>
			<point x="238" y="-119"/>
			<point x="298" y="10"/>
		</contour>
	</outline>
</glyph>
<glyph name="asterisk" format="2">
	<advance width="381"/>
	<unicode hex="002A"/>
	<outline>
		<contour>
			<point x="26" y="584" type="line"/>
			<point x="76" y="497" type="line"/>
			<point x="79" y="496" type="line"/>
			<point x="157" y="563" type="line"/>
			<point x="138" y="462" type="line"/>
			<point x="140" y="460" type="line"/>
			<point x="240" y="460" type="line"/>
			<point x="242" y="462" type="line"/>
			<point x="224" y="563" type="line"/>
			<point x="301" y="496" type="line"/>
			<point x="304" y="497" type="line"/>
			<point x="354" y="584" type="line"/>
			<point x="353" y="586" type="line"/>
			<point x="257" y="620" type="line"/>
			<point x="353" y="654" type="line"/>
			<point x="354" y="657" type="line"/>
			<point x="304" y="744" type="line"/>
			<point x="301" y="744" type="line"/>
			<point x="224" y="677" type="line"/>
			<point x="242" y="778" type="line"/>
			<point x="240" y="780" type="line"/>
			<point x="140" y="780" type="line"/>
			<point x="138" y="778" type="line"/>
			<point x="157" y="678" type="line"/>
			<point x="79" y="744" type="line"/>
			<point x="76" y="744" type="line"/>
			<point x="26" y="657" type="line"/>
			<point x="27" y="654" type="line"/>
			<point x="124" y="620" type="line"/>
			<point x="27" y="586" type="line"/>
		</contour>
	</outline>
</glyph>
<glyph name="hyphen" format="2">
	<advance width="328"/>
	<unicode hex="002D"/>
	<outline>
		<contour>
			<point x="34" y="242" type="line"/>
			<point x="294" y="242" type="line"/>
			<point x="294" y="365" type="line"/>
			<point x="34" y="365" type="line"/>
		</contour>
	</outline>
</glyph>
<glyph name="period" format="2">
	<advance width="269"/>
	<unicode hex="002E"/>
	<outline>
		<contour>
			<point x="48" y="0" type="line"/>
			<point x="221" y="0" type="line"/>
			<point x="221" y="168" type="line"/>
			<point x="48" y="168" type="line"/>
		</contour>
	</outline>
</glyph>
<glyph name="slash" format="2">
	<advance width="353"/>
	<unicode hex="002F"/>
	<outline>
		<contour>
			<point x="189" y="820" type="line"/>
			<point x="18" y="-26" type="line"/>
			<point x="165" y="-26" type="line"/>
			<point x="335" y="820" type="line"/>
		</contour>
	</outline>
</glyph>
<glyph name="zero" format="2">
	<advance width="612"/>
	<unicode hex="0030"/>
	<outline>
		<contour>
			<point x="50" y="245" type="line" smooth="yes"/>
			<point x="50" y="83"/>
			<point x="145" y="-13"/>
			<point x="306" y="-13" type="curve" smooth="yes"/>
			<point x="468" y="-13"/>
			<point x="563" y="82"/>
			<point x="563" y="244" type="curve" smooth="yes"/>
			<point x="563" y="536" type="line" smooth="yes"/>
			<point x="563" y="698"/>
			<point x="468" y="793"/>
			<point x="306" y="793" type="curve" smooth="yes"/>
			<point x="145" y="793"/>
			<point x="50" y="698"/>
			<point x="50" y="537" type="curve" smooth="yes"/>
		</contour>
		<contour>
			<point x="225" y="236" type="curve" smooth="yes"/>
			<point x="225" y="540" type="line" smooth="yes"/>
			<point x="225" y="607"/>
			<point x="255" y="646"/>
			<point x="305" y="646" type="curve" smooth="yes"/>
			<point x="357" y="646"/>
			<point x="388" y="608"/>
			<point x="388" y="545" type="curve" smooth="yes"/>
			<point x="388" y="241" type="line" smooth="yes"/>
			<point x="388" y="174"/>
			<point x="358" y="135"/>
			<point x="307" y="135" type="curve" smooth="yes"/>
			<point x="255" y="135"/>
			<point x="225" y="173"/>
		</contour>
	</outline>
</glyph>
<glyph name="one" format="2">
	<advance width="428"/>
	<unicode hex="0031"/>
	<outline>
		<contour>
			<point x="35" y="557" type="curve"/>
			<point x="110" y="462" type="line"/>
			<point x="144" y="484"/>
			<point x="170" y="512"/>
			<point x="182" y="537" type="curve"/>
			<point x="187" y="537" type="line"/>
			<point x="187" y="0" type="line"/>
			<point x="359" y="0" type="line"/>
			<point x="359" y="780" type="line"/>
			<point x="219" y="780" type="line"/>
			<point x="180" y="699"/>
			<point x="115" y="622"/>
		</contour>
	</outline>
</glyph>
<glyph name="two" format="2">
	<advance width="576"/>
	<unicode hex="0032"/>
	<outline>
		<contour>
			<point x="62" y="547" type="line"/>
			<point x="218" y="545" type="line"/>
			<point x="218" y="578" type="line" smooth="yes"/>
			<point x="220" y="624"/>
			<point x="243" y="651"/>
			<point x="281" y="651" type="curve" smooth="yes"/>
			<point x="320" y="651"/>
			<point x="343" y="620"/>
			<point x="343" y="567" type="curve" smooth="yes"/>
			<point x="343" y="422"/>
			<point x="234" y="256"/>
			<point x="50" y="120" type="curve"/>
			<point x="50" y="0" type="line"/>
			<point x="536" y="0" type="line"/>
			<point x="536" y="143" type="line"/>
			<point x="276" y="143" type="line"/>
			<point x="276" y="147" type="line"/>
			<point x="427" y="244"/>
			<point x="516" y="399"/>
			<point x="516" y="564" type="curve" smooth="yes"/>
			<point x="516" y="708"/>
			<point x="430" y="793"/>
			<point x="285" y="793" type="curve" smooth="yes"/>
			<point x="145" y="793"/>
			<point x="62" y="711"/>
			<point x="62" y="572" type="curve" smooth="yes"/>
		</contour>
	</outline>
</glyph>
<glyph name="three" format="2">
	<advance width="607"/>
	<unicode hex="0033"/>
	<outline>
		<contour>
			<point x="50" y="206" type="line" smooth="yes"/>
			<point x="55" y="68"/>
			<point x="146" y="-13"/>
			<point x="295" y="-13" type="curve" smooth="yes"/>
			<point x="452" y="-13"/>
			<point x="544" y="67"/>
			<point x="544" y="203" type="curve" smooth="yes"/>
			<point x="544" y="263" type="line" smooth="yes"/>
			<point x="544" y="349"/>
			<point x="496" y="409"/>
			<point x="415" y="425" type="curve"/>
			<point x="415" y="429" type="line"/>
			<point x="475" y="445"/>
			<point x="511" y="495"/>
			<point x="511" y="563" type="curve" smooth="yes"/>
			<point x="511" y="592" type="line" smooth="yes"/>
			<point x="511" y="718"/>
			<point x="428" y="793"/>
			<point x="287" y="793" type="curve" smooth="yes"/>
			<point x="150" y="793"/>
			<point x="66" y="718"/>
			<point x="60" y="590" type="curve" smooth="yes"/>
			<point x="60" y="557" type="line"/>
			<point x="232" y="555" type="line"/>
			<point x="232" y="585" type="line" smooth="yes"/>
			<point x="232" y="623"/>
			<point x="252" y="646"/>
			<point x="286" y="646" type="curve" smooth="yes"/>
			<point x="322" y="646"/>
			<point x="344" y="623"/>
			<point x="344" y="583" type="curve" smooth="yes"/>
			<point x="344" y="546" type="line" smooth="yes"/>
			<point x="344" y="508"/>
			<point x="321" y="485"/>
			<point x="283" y="485" type="curve" smooth="yes"/>
			<point x="234" y="485" type="line"/>
			<point x="234" y="350" type="line"/>
			<point x="284" y="350" type="line" smooth="yes"/>
			<point x="337" y="350"/>
			<point x="369" y="323"/>
			<point x="369" y="277" type="curve" smooth="yes"/>
			<point x="369" y="213" type="line" smooth="yes"/>
			<point x="369" y="164"/>
			<point x="341" y="135"/>
			<point x="294" y="135" type="curve" smooth="yes"/>
			<point x="249" y="135"/>
			<point x="223" y="162"/>
			<point x="223" y="209" type="curve" smooth="yes"/>
			<point x="223" y="254" type="line"/>
			<point x="50" y="251" type="line"/>
		</contour>
	</outline>
</glyph>
<glyph name="four" format="2">
	<advance width="588"/>
	<unicode hex="0034"/>
	<outline>
		<contour>
			<point x="545" y="133" type="line"/>
			<point x="545" y="275" type="line"/>
			<point x="172" y="275" type="line"/>
			<point x="172" y="279" type="line"/>
			<point x="220" y="347"/>
			<point x="261" y="427"/>
			<point x="281" y="495" type="curve"/>
			<point x="285" y="495" type="line"/>
			<point x="285" y="0" type="line"/>
			<point x="457" y="0" type="line"/>
			<point x="457" y="780" type="line"/>
			<point x="297" y="780" type="line"/>
			<point x="227" y="601"/>
			<point x="130" y="415"/>
			<point x="35" y="280" type="curve"/>
			<point x="35" y="133" type="line"/>
		</contour>
	</outline>
</glyph>
<glyph name="five" format="2">
	<advance width="582"/>
	<unicode hex="0035"/>
	<outline>
		<contour>
			<point x="50" y="206" type="line" smooth="yes"/>
			<point x="50" y="68"/>
			<point x="137" y="-13"/>
			<point x="284" y="-13" type="curve" smooth="yes"/>
			<point x="441" y="-13"/>
			<point x="533" y="77"/>
			<point x="533" y="228" type="curve" smooth="yes"/>
			<point x="533" y="322" type="line" smooth="yes"/>
			<point x="533" y="460"/>
			<point x="463" y="541"/>
			<point x="344" y="541" type="curve" smooth="yes"/>
			<point x="300" y="541"/>
			<point x="262" y="528"/>
			<point x="242" y="505" type="curve"/>
			<point x="238" y="505" type="line"/>
			<point x="243" y="638" type="line"/>
			<point x="485" y="638" type="line"/>
			<point x="485" y="780" type="line"/>
			<point x="83" y="780" type="line"/>
			<point x="65" y="373" type="line"/>
			<point x="217" y="361" type="line"/>
			<point x="225" y="394"/>
			<point x="250" y="413"/>
			<point x="286" y="413" type="curve" smooth="yes"/>
			<point x="333" y="413"/>
			<point x="361" y="381"/>
			<point x="361" y="327" type="curve" smooth="yes"/>
			<point x="361" y="224" type="line" smooth="yes"/>
			<point x="361" y="168"/>
			<point x="332" y="135"/>
			<point x="282" y="135" type="curve" smooth="yes"/>
			<point x="238" y="135"/>
			<point x="212" y="161"/>
			<point x="212" y="204" type="curve" smooth="yes"/>
			<point x="212" y="242" type="line"/>
			<point x="50" y="238" type="line"/>
		</contour>
	</outline>
</glyph>
<glyph name="six" format="2">
	<advance width="601"/>
	<unicode hex="0036"/>
	<outline>
		<contour>
			<point x="50" y="220" type="line" smooth="yes"/>
			<point x="50" y="74"/>
			<point x="146" y="-13"/>
			<point x="308" y="-13" type="curve" smooth="yes"/>
			<point x="461" y="-13"/>
			<point x="552" y="74"/>
			<point x="552" y="221" type="curve" smooth="yes"/>
			<point x="552" y="301" type="line" smooth="yes"/>
			<point x="552" y="420"/>
			<point x="483" y="490"/>
			<point x="365" y="490" type="curve" smooth="yes"/>
			<point x="300" y="490"/>
			<point x="250" y="463"/>
			<point x="229" y="416" type="curve"/>
			<point x="225" y="416" type="line"/>
			<point x="225" y="550" type="line" smooth="yes"/>
			<point x="225" y="610"/>
			<point x="252" y="645"/>
			<point x="299" y="645" type="curve" smooth="yes"/>
			<point x="344" y="645"/>
			<point x="370" y="619"/>
			<point x="370" y="574" type="curve" smooth="yes"/>
			<point x="370" y="554" type="line"/>
			<point x="534" y="558" type="line"/>
			<point x="534" y="582" type="line" smooth="yes"/>
			<point x="534" y="715"/>
			<point x="446" y="793"/>
			<point x="298" y="793" type="curve" smooth="yes"/>
			<point x="142" y="793"/>
			<point x="50" y="703"/>
			<point x="50" y="552" type="curve" smooth="yes"/>
		</contour>
		<contour>
			<point x="230" y="216" type="curve" smooth="yes"/>
			<point x="230" y="278" type="line" smooth="yes"/>
			<point x="230" y="328"/>
			<point x="258" y="357"/>
			<point x="305" y="357" type="curve" smooth="yes"/>
			<point x="350" y="357"/>
			<point x="377" y="328"/>
			<point x="377" y="279" type="curve" smooth="yes"/>
			<point x="377" y="215" type="line" smooth="yes"/>
			<point x="377" y="165"/>
			<point x="349" y="135"/>
			<point x="302" y="135" type="curve" smooth="yes"/>
			<point x="257" y="135"/>
			<point x="230" y="165"/>
		</contour>
	</outline>
</glyph>
<glyph name="seven" format="2">
	<advance width="528"/>
	<unicode hex="0037"/>
	<outline>
		<contour>
			<point x="35" y="638" type="line"/>
			<point x="341" y="638" type="line"/>
			<point x="341" y="631" type="line"/>
			<point x="219" y="466"/>
			<point x="148" y="232"/>
			<point x="148" y="0" type="curve"/>
			<point x="327" y="0" type="line"/>
			<point x="327" y="225"/>
			<point x="391" y="465"/>
			<point x="500" y="645" type="curve"/>
			<point x="500" y="780" type="line"/>
			<point x="35" y="780" type="line"/>
		</contour>
	</outline>
</glyph>
<glyph name="eight" format="2">
	<advance width="605"/>
	<unicode hex="0038"/>
	<outline>
		<contour>
			<point x="50" y="203" type="line" smooth="yes"/>
			<point x="50" y="67"/>
			<point x="145" y="-13"/>
			<point x="305" y="-13" type="curve" smooth="yes"/>
			<point x="463" y="-13"/>
			<point x="556" y="67"/>
			<point x="556" y="203" type="curve" smooth="yes"/>
			<point x="556" y="258" type="line" smooth="yes"/>
			<point x="556" y="333"/>
			<point x="516" y="393"/>
			<point x="448" y="419" type="curve"/>
			<point x="448" y="423" type="line"/>
			<point x="500" y="447"/>
			<point x="531" y="498"/>
			<point x="531" y="563" type="curve" smooth="yes"/>
			<point x="531" y="597" type="line" smooth="yes"/>
			<point x="531" y="720"/>
			<point x="446" y="793"/>
			<point x="302" y="793" type="curve" smooth="yes"/>
			<point x="159" y="793"/>
			<point x="75" y="720"/>
			<point x="75" y="597" type="curve" smooth="yes"/>
			<point x="75" y="563" type="line" smooth="yes"/>
			<point x="75" y="498"/>
			<point x="106" y="447"/>
			<point x="158" y="423" type="curve"/>
			<point x="158" y="419" type="line"/>
			<point x="90" y="393"/>
			<point x="50" y="333"/>
			<point x="50" y="258" type="curve" smooth="yes"/>
		</contour>
		<contour>
			<point x="225" y="215" type="curve" smooth="yes"/>
			<point x="225" y="273" type="line" smooth="yes"/>
			<point x="225" y="324"/>
			<point x="254" y="355"/>
			<point x="302" y="355" type="curve" smooth="yes"/>
			<point x="352" y="355"/>
			<point x="381" y="325"/>
			<point x="381" y="275" type="curve" smooth="yes"/>
			<point x="381" y="218" type="line" smooth="yes"/>
			<point x="381" y="162"/>
			<point x="352" y="130"/>
			<point x="303" y="130" type="curve" smooth="yes"/>
			<point x="254" y="130"/>
			<point x="225" y="161"/>
		</contour>
		<contour>
			<point x="237" y="547" type="curve" smooth="yes"/>
			<point x="237" y="587" type="line" smooth="yes"/>
			<point x="237" y="630"/>
			<point x="262" y="656"/>
			<point x="303" y="656" type="curve" smooth="yes"/>
			<point x="344" y="656"/>
			<point x="368" y="631"/>
			<point x="368" y="588" type="curve" smooth="yes"/>
			<point x="368" y="549" type="line" smooth="yes"/>
			<point x="368" y="506"/>
			<point x="344" y="480"/>
			<point x="304" y="480" type="curve" smooth="yes"/>
			<point x="262" y="480"/>
			<point x="237" y="505"/>
		</contour>
	</outline>
</glyph>
<glyph name="nine" format="2">
	<advance width="596"/>
	<unicode hex="0039"/>
	<outline>
		<contour>
			<point x="547" y="560" type="line" smooth="yes"/>
			<point x="547" y="706"/>
			<point x="453" y="793"/>
			<point x="293" y="793" type="curve" smooth="yes"/>
			<point x="140" y="793"/>
			<point x="50" y="706"/>
			<point x="50" y="560" type="curve" smooth="yes"/>
			<point x="50" y="484" type="line" smooth="yes"/>
			<point x="50" y="366"/>
			<point x="118" y="296"/>
			<point x="232" y="296" type="curve" smooth="yes"/>
			<point x="295" y="296"/>
			<point x="346" y="331"/>
			<point x="368" y="390" type="curve"/>
			<point x="372" y="390" type="line"/>
			<point x="372" y="246" type="line" smooth="yes"/>
			<point x="372" y="176"/>
			<point x="345" y="135"/>
			<point x="298" y="135" type="curve" smooth="yes"/>
			<point x="253" y="135"/>
			<point x="227" y="163"/>
			<point x="227" y="211" type="curve" smooth="yes"/>
			<point x="227" y="229" type="line"/>
			<point x="63" y="225" type="line"/>
			<point x="63" y="213" type="line" smooth="yes"/>
			<point x="63" y="71"/>
			<point x="153" y="-13"/>
			<point x="304" y="-13" type="curve" smooth="yes"/>
			<point x="457" y="-13"/>
			<point x="547" y="80"/>
			<point x="547" y="238" type="curve" smooth="yes"/>
		</contour>
		<contour>
			<point x="365" y="569" type="curve" smooth="yes"/>
			<point x="365" y="507" type="line" smooth="yes"/>
			<point x="365" y="457"/>
			<point x="338" y="428"/>
			<point x="293" y="428" type="curve" smooth="yes"/>
			<point x="250" y="428"/>
			<point x="225" y="455"/>
			<point x="225" y="501" type="curve" smooth="yes"/>
			<point x="225" y="566" type="line" smooth="yes"/>
			<point x="225" y="616"/>
			<point x="251" y="646"/>
			<point x="296" y="646" type="curve" smooth="yes"/>
			<point x="339" y="646"/>
			<point x="365" y="617"/>
		</contour>
	</outline>
</glyph>
<glyph name="question" format="2">
	<advance width="549"/>
	<unicode hex="003F"/>
	<outline>
		<contour>
			<point x="41" y="568" type="line"/>
			<point x="203" y="566" type="line"/>
			<point x="203" y="593" type="line" smooth="yes"/>
			<point x="203" y="648"/>
			<point x="230" y="681"/>
			<point x="275" y="681" type="curve" smooth="yes"/>
			<point x="316" y="681"/>
			<point x="341" y="653"/>
			<point x="341" y="606" type="curve" smooth="yes"/>
			<point x="341" y="592"/>
			<point x="338" y="575"/>
			<point x="332" y="561" type="curve" smooth="yes"/>
			<point x="325" y="544"/>
			<point x="315" y="527"/>
			<point x="305" y="515" type="curve" smooth="yes"/>
			<point x="262" y="465" type="line" smooth="yes"/>
			<point x="241" y="440"/>
			<point x="221" y="407"/>
			<point x="210" y="376" type="curve" smooth="yes"/>
			<point x="200" y="348"/>
			<point x="194" y="317"/>
			<point x="194" y="294" type="curve" smooth="yes"/>
			<point x="194" y="241" type="line"/>
			<point x="356" y="241" type="line"/>
			<point x="356" y="280" type="line" smooth="yes"/>
			<point x="356" y="294"/>
			<point x="361" y="315"/>
			<point x="369" y="335" type="curve" smooth="yes"/>
			<point x="379" y="359"/>
			<point x="395" y="386"/>
			<point x="413" y="407" type="curve" smooth="yes"/>
			<point x="456" y="457" type="line" smooth="yes"/>
			<point x="472" y="476"/>
			<point x="487" y="502"/>
			<point x="495" y="528" type="curve" smooth="yes"/>
			<point x="504" y="556"/>
			<point x="509" y="584"/>
			<point x="509" y="605" type="curve" smooth="yes"/>
			<point x="509" y="736"/>
			<point x="422" y="813"/>
			<point x="276" y="813" type="curve" smooth="yes"/>
			<point x="128" y="813"/>
			<point x="41" y="729"/>
			<point x="41" y="587" type="curve" smooth="yes"/>
		</contour>
		<component base="period" xOffset="142"/>
	</outline>
</glyph>
<glyph name="at" format="2">
	<advance width="1040"/>
	<unicode hex="0040"/>
	<outline>
		<contour>
			<point x="598" y="462" type="line"/>
			<point x="577" y="541"/>
			<point x="530" y="583"/>
			<point x="465" y="583" type="curve" smooth="yes"/>
			<point x="363" y="583"/>
			<point x="308" y="517"/>
			<point x="308" y="396" type="curve" smooth="yes"/>
			<point x="308" y="300" type="line" smooth="yes"/>
			<point x="308" y="178"/>
			<point x="362" y="112"/>
			<point x="464" y="112" type="curve" smooth="yes"/>
			<point x="543" y="112"/>
			<point x="597" y="155"/>
			<point x="618" y="234" type="curve"/>
			<point x="618" y="329" type="line"/>
			<point x="578" y="329" type="line"/>
			<point x="578" y="303" type="line" smooth="yes"/>
			<point x="578" y="260"/>
			<point x="557" y="237"/>
			<point x="518" y="237" type="curve" smooth="yes"/>
			<point x="483" y="237"/>
			<point x="463" y="261"/>
			<point x="463" y="305" type="curve" smooth="yes"/>
			<point x="463" y="388" type="line" smooth="yes"/>
			<point x="463" y="434"/>
			<point x="484" y="458"/>
			<point x="522" y="458" type="curve" smooth="yes"/>
			<point x="558" y="458"/>
			<point x="578" y="437"/>
			<point x="578" y="398" type="curve"/>
			<point x="598" y="398" type="line"/>
		</contour>
		<contour>
			<point x="50" y="331" type="line" smooth="yes"/>
			<point x="50" y="41"/>
			<point x="224" y="-115"/>
			<point x="548" y="-115" type="curve" smooth="yes"/>
			<point x="627" y="-115"/>
			<point x="708" y="-105"/>
			<point x="781" y="-86" type="curve"/>
			<point x="781" y="36" type="line"/>
			<point x="776" y="39" type="line"/>
			<point x="711" y="18"/>
			<point x="632" y="8"/>
			<point x="549" y="8" type="curve" smooth="yes"/>
			<point x="327" y="8"/>
			<point x="207" y="117"/>
			<point x="207" y="318" type="curve" smooth="yes"/>
			<point x="207" y="403" type="line" smooth="yes"/>
			<point x="207" y="591"/>
			<point x="318" y="693"/>
			<point x="522" y="693" type="curve" smooth="yes"/>
			<point x="724" y="693"/>
			<point x="833" y="593"/>
			<point x="833" y="410" type="curve" smooth="yes"/>
			<point x="833" y="315" type="line" smooth="yes"/>
			<point x="833" y="249"/>
			<point x="814" y="213"/>
			<point x="779" y="213" type="curve" smooth="yes"/>
			<point x="749" y="213"/>
			<point x="733" y="234"/>
			<point x="733" y="273" type="curve" smooth="yes"/>
			<point x="733" y="570" type="line"/>
			<point x="603" y="570" type="line"/>
			<point x="578" y="475" type="line"/>
			<point x="578" y="301" type="line" smooth="yes"/>
			<point x="578" y="173"/>
			<point x="647" y="105"/>
			<point x="777" y="105" type="curve" smooth="yes"/>
			<point x="916" y="105"/>
			<point x="991" y="187"/>
			<point x="991" y="340" type="curve" smooth="yes"/>
			<point x="991" y="402" type="line" smooth="yes"/>
			<point x="991" y="671"/>
			<point x="827" y="815"/>
			<point x="523" y="815" type="curve" smooth="yes"/>
			<point x="215" y="815"/>
			<point x="50" y="667"/>
			<point x="50" y="393" type="curve" smooth="yes"/>
		</contour>
	</outline>
</glyph>
<glyph name="A" format="2">
	<advance width="682"/>
	<unicode hex="0041"/>
	<anchor x="647" y="10" name="ogonek"/>
	<anchor x="339" y="0" name="bottom"/>
	<anchor x="339" y="800" name="top"/>
	<outline>
		<contour>
			<point x="654" y="0" type="line"/>
			<point x="455" y="800" type="line"/>
			<point x="218" y="800" type="line"/>
			<point x="35" y="0" type="line"/>
			<point x="211" y="0" type="line"/>
			<point x="327" y="595" type="line"/>
			<point x="333" y="670" type="line"/>
			<point x="338" y="670" type="line"/>
			<point x="345" y="595" type="line"/>
			<point x="469" y="0" type="line"/>
		</contour>
		<contour>
			<point x="151" y="273" type="line"/>
			<point x="151" y="125" type="line"/>
			<point x="531" y="125" type="line"/>
			<point x="531" y="273" type="line"/>
		</contour>
	</outline>
</glyph>
<glyph name="B" format="2">
	<advance width="661"/>
	<unicode hex="0042"/>
	<outline>
		<contour>
			<point x="70" y="0" type="line"/>
			<point x="339" y="0" type="line" smooth="yes"/>
			<point x="502" y="0"/>
			<point x="598" y="79"/>
			<point x="598" y="214" type="curve" smooth="yes"/>
			<point x="598" y="259" type="line" smooth="yes"/>
			<point x="598" y="339"/>
			<point x="556" y="399"/>
			<point x="486" y="420" type="curve"/>
			<point x="486" y="425" type="line"/>
			<point x="538" y="445"/>
			<point x="568" y="493"/>
			<point x="568" y="554" type="curve" smooth="yes"/>
			<point x="568" y="592" type="line" smooth="yes"/>
			<point x="568" y="723"/>
			<point x="476" y="800"/>
			<point x="321" y="800" type="curve" smooth="yes"/>
			<point x="70" y="800" type="line"/>
		</contour>
		<contour>
			<point x="245" y="148" type="line"/>
			<point x="245" y="340" type="line"/>
			<point x="342" y="340" type="line" smooth="yes"/>
			<point x="391" y="340"/>
			<point x="420" y="312"/>
			<point x="420" y="265" type="curve" smooth="yes"/>
			<point x="420" y="220" type="line" smooth="yes"/>
			<point x="420" y="175"/>
			<point x="392" y="148"/>
			<point x="344" y="148" type="curve" smooth="yes"/>
		</contour>
		<contour>
			<point x="245" y="473" type="line"/>
			<point x="245" y="652" type="line"/>
			<point x="320" y="652" type="line" smooth="yes"/>
			<point x="367" y="652"/>
			<point x="395" y="626"/>
			<point x="395" y="583" type="curve" smooth="yes"/>
			<point x="395" y="544" type="line" smooth="yes"/>
			<point x="395" y="499"/>
			<point x="368" y="473"/>
			<point x="322" y="473" type="curve" smooth="yes"/>
		</contour>
	</outline>
</glyph>
<glyph name="C" format="2">
	<advance width="639"/>
	<unicode hex="0043"/>
	<anchor x="334" y="800" name="top"/>
	<anchor x="329" y="0" name="bottom"/>
	<outline>
		<contour>
			<point x="597" y="286" type="line"/>
			<point x="425" y="291" type="line"/>
			<point x="425" y="268" type="line" smooth="yes"/>
			<point x="425" y="184"/>
			<point x="389" y="135"/>
			<point x="327" y="135" type="curve" smooth="yes"/>
			<point x="264" y="135"/>
			<point x="227" y="180"/>
			<point x="227" y="256" type="curve" smooth="yes"/>
			<point x="227" y="540" type="line" smooth="yes"/>
			<point x="227" y="619"/>
			<point x="263" y="665"/>
			<point x="325" y="665" type="curve" smooth="yes"/>
			<point x="387" y="665"/>
			<point x="423" y="621"/>
			<point x="423" y="546" type="curve" smooth="yes"/>
			<point x="423" y="521" type="line"/>
			<point x="595" y="528" type="line"/>
			<point x="595" y="552" type="line" smooth="yes"/>
			<point x="595" y="716"/>
			<point x="495" y="813"/>
			<point x="326" y="813" type="curve" smooth="yes"/>
			<point x="153" y="813"/>
			<point x="50" y="712"/>
			<point x="50" y="542" type="curve" smooth="yes"/>
			<point x="50" y="260" type="line" smooth="yes"/>
			<point x="50" y="88"/>
			<point x="153" y="-13"/>
			<point x="326" y="-13" type="curve" smooth="yes"/>
			<point x="496" y="-13"/>
			<point x="597" y="88"/>
			<point x="597" y="259" type="curve" smooth="yes"/>
		</contour>
	</outline>
</glyph>
<glyph name="D" format="2">
	<advance width="660"/>
	<unicode hex="0044"/>
	<anchor x="328" y="400" name="center"/>
	<anchor x="328" y="0" name="bottom"/>
	<anchor x="328" y="800" name="top"/>
	<outline>
		<contour>
			<point x="70" y="0" type="line"/>
			<point x="305" y="0" type="line" smooth="yes"/>
			<point x="497" y="0"/>
			<point x="611" y="113"/>
			<point x="611" y="304" type="curve" smooth="yes"/>
			<point x="611" y="495" type="line" smooth="yes"/>
			<point x="611" y="687"/>
			<point x="497" y="800"/>
			<point x="305" y="800" type="curve" smooth="yes"/>
			<point x="70" y="800" type="line"/>
		</contour>
		<contour>
			<point x="245" y="148" type="line"/>
			<point x="245" y="652" type="line"/>
			<point x="304" y="652" type="line" smooth="yes"/>
			<point x="386" y="652"/>
			<point x="434" y="595"/>
			<point x="434" y="499" type="curve" smooth="yes"/>
			<point x="434" y="306" type="line" smooth="yes"/>
			<point x="434" y="207"/>
			<point x="386" y="148"/>
			<point x="306" y="148" type="curve" smooth="yes"/>
		</contour>
	</outline>
</glyph>
<glyph name="E" format="2">
	<advance width="558"/>
	<unicode hex="0045"/>
	<anchor x="515" y="10" name="ogonek"/>
	<anchor x="286" y="800" name="top"/>
	<anchor x="57" y="800" name="topleft"/>
	<anchor x="286" y="0" name="bottom"/>
	<outline>
		<contour>
			<point x="70" y="0" type="line"/>
			<point x="515" y="0" type="line"/>
			<point x="515" y="148" type="line"/>
			<point x="245" y="148" type="line"/>
			<point x="245" y="360" type="line"/>
			<point x="465" y="360" type="line"/>
			<point x="465" y="508" type="line"/>
			<point x="245" y="508" type="line"/>
			<point x="245" y="652" type="line"/>
			<point x="495" y="652" type="line"/>
			<point x="495" y="800" type="line"/>
			<point x="70" y="800" type="line"/>
		</contour>
	</outline>
</glyph>
<glyph name="F" format="2">
	<advance width="538"/>
	<unicode hex="0046"/>
	<outline>
		<contour>
			<point x="70" y="0" type="line"/>
			<point x="245" y="0" type="line"/>
			<point x="245" y="360" type="line"/>
			<point x="465" y="360" type="line"/>
			<point x="465" y="508" type="line"/>
			<point x="245" y="508" type="line"/>
			<point x="245" y="652" type="line"/>
			<point x="495" y="652" type="line"/>
			<point x="495" y="800" type="line"/>
			<point x="70" y="800" type="line"/>
		</contour>
	</outline>
</glyph>
<glyph name="G" format="2">
	<advance width="652"/>
	<unicode hex="0047"/>
	<anchor x="319" y="800" name="top"/>
	<anchor x="319" y="0" name="bottom"/>
	<outline>
		<contour>
			<point x="603" y="428" type="line"/>
			<point x="333" y="428" type="line"/>
			<point x="333" y="308" type="line"/>
			<point x="430" y="308" type="line"/>
			<point x="430" y="243" type="line" smooth="yes"/>
			<point x="430" y="175"/>
			<point x="394" y="135"/>
			<point x="332" y="135" type="curve" smooth="yes"/>
			<point x="266" y="135"/>
			<point x="227" y="180"/>
			<point x="227" y="256" type="curve" smooth="yes"/>
			<point x="227" y="540" type="line" smooth="yes"/>
			<point x="227" y="619"/>
			<point x="263" y="666"/>
			<point x="325" y="666" type="curve" smooth="yes"/>
			<point x="386" y="666"/>
			<point x="422" y="625"/>
			<point x="422" y="556" type="curve" smooth="yes"/>
			<point x="422" y="531" type="line"/>
			<point x="595" y="538" type="line"/>
			<point x="595" y="562" type="line" smooth="yes"/>
			<point x="595" y="720"/>
			<point x="495" y="813"/>
			<point x="326" y="813" type="curve" smooth="yes"/>
			<point x="153" y="813"/>
			<point x="50" y="712"/>
			<point x="50" y="542" type="curve" smooth="yes"/>
			<point x="50" y="260" type="line" smooth="yes"/>
			<point x="50" y="88"/>
			<point x="154" y="-13"/>
			<point x="331" y="-13" type="curve" smooth="yes"/>
			<point x="502" y="-13"/>
			<point x="603" y="92"/>
			<point x="603" y="271" type="curve" smooth="yes"/>
		</contour>
	</outline>
</glyph>
<glyph name="H" format="2">
	<advance width="659"/>
	<unicode hex="0048"/>
	<outline>
		<contour>
			<point x="70" y="0" type="line"/>
			<point x="245" y="0" type="line"/>
			<point x="245" y="350" type="line"/>
			<point x="415" y="350" type="line"/>
			<point x="415" y="0" type="line"/>
			<point x="590" y="0" type="line"/>
			<point x="590" y="800" type="line"/>
			<point x="415" y="800" type="line"/>
			<point x="415" y="498" type="line"/>
			<point x="245" y="498" type="line"/>
			<point x="245" y="800" type="line"/>
			<point x="70" y="800" type="line"/>
		</contour>
	</outline>
</glyph>
<glyph name="J" format="2">
	<advance width="577"/>
	<unicode hex="004A"/>
	<outline>
		<contour>
			<point x="508" y="800" type="line"/>
			<point x="333" y="800" type="line"/>
			<point x="333" y="210" type="line" smooth="yes"/>
			<point x="333" y="162"/>
			<point x="311" y="135"/>
			<point x="271" y="135" type="curve" smooth="yes"/>
			<point x="232" y="135"/>
			<point x="210" y="160"/>
			<point x="210" y="205" type="curve" smooth="yes"/>
			<point x="210" y="316" type="line"/>
			<point x="35" y="311" type="line"/>
			<point x="35" y="209" type="line" smooth="yes"/>
			<point x="35" y="65"/>
			<point x="117" y="-13"/>
			<point x="271" y="-13" type="curve" smooth="yes"/>
			<point x="425" y="-13"/>
			<point x="508" y="65"/>
			<point x="508" y="209" type="curve" smooth="yes"/>
		</contour>
	</outline>
</glyph>
<glyph name="K" format="2">
	<advance width="662"/>
	<unicode hex="004B"/>
	<anchor x="342" y="800" name="top"/>
	<anchor x="342" y="0" name="bottom"/>
	<outline>
		<contour>
			<point x="70" y="0" type="line"/>
			<point x="245" y="0" type="line"/>
			<point x="245" y="293" type="line"/>
			<point x="302" y="389" type="line"/>
			<point x="307" y="389" type="line"/>
			<point x="449" y="0" type="line"/>
			<point x="634" y="0" type="line"/>
			<point x="439" y="508" type="line"/>
			<point x="612" y="800" type="line"/>
			<point x="424" y="800" type="line"/>
			<point x="267" y="528" type="line"/>
			<point x="242" y="454" type="line"/>
			<point x="237" y="454" type="line"/>
			<point x="245" y="530" type="line"/>
			<point x="245" y="800" type="line"/>
			<point x="70" y="800" type="line"/>
		</contour>
	</outline>
</glyph>
<glyph name="L" format="2">
	<advance width="543"/>
	<unicode hex="004C"/>
	<anchor x="175" y="400" name="center"/>
	<anchor x="177" y="800" name="top"/>
	<anchor x="295" y="810" name="topright"/>
	<anchor x="285" y="0" name="bottom"/>
	<outline>
		<contour>
			<point x="515" y="0" type="line"/>
			<point x="515" y="148" type="line"/>
			<point x="245" y="148" type="line"/>
			<point x="245" y="800" type="line"/>
			<point x="70" y="800" type="line"/>
			<point x="70" y="0" type="line"/>
		</contour>
	</outline>
</glyph>
<glyph name="M" format="2">
	<advance width="887"/>
	<unicode hex="004D"/>
	<outline>
		<contour>
			<point x="818" y="0" type="line"/>
			<point x="818" y="800" type="line"/>
			<point x="558" y="800" type="line"/>
			<point x="445" y="271" type="line"/>
			<point x="438" y="174" type="line"/>
			<point x="433" y="174" type="line"/>
			<point x="426" y="271" type="line"/>
			<point x="312" y="800" type="line"/>
			<point x="70" y="800" type="line"/>
			<point x="70" y="0" type="line"/>
			<point x="217" y="0" type="line"/>
			<point x="217" y="538" type="line"/>
			<point x="210" y="645" type="line"/>
			<point x="215" y="645" type="line"/>
			<point x="231" y="538" type="line"/>
			<point x="351" y="0" type="line"/>
			<point x="517" y="0" type="line"/>
			<point x="635" y="538" type="line"/>
			<point x="650" y="645" type="line"/>
			<point x="655" y="645" type="line"/>
			<point x="648" y="538" type="line"/>
			<point x="648" y="0" type="line"/>
		</contour>
	</outline>
</glyph>
<glyph name="N" format="2">
	<advance width="694"/>
	<unicode hex="004E"/>
	<anchor x="340" y="800" name="top"/>
	<anchor x="340" y="0" name="bottom"/>
	<outline>
		<contour>
			<point x="70" y="800" type="line"/>
			<point x="70" y="0" type="line"/>
			<point x="222" y="0" type="line"/>
			<point x="222" y="463" type="line"/>
			<point x="206" y="572" type="line"/>
			<point x="211" y="572" type="line"/>
			<point x="236" y="470" type="line"/>
			<point x="423" y="0" type="line"/>
			<point x="625" y="0" type="line"/>
			<point x="625" y="800" type="line"/>
			<point x="473" y="800" type="line"/>
			<point x="473" y="336" type="line"/>
			<point x="489" y="227" type="line"/>
			<point x="485" y="227" type="line"/>
			<point x="458" y="329" type="line"/>
			<point x="271" y="800" type="line"/>
		</contour>
	</outline>
</glyph>
<glyph name="O" format="2">
	<advance width="662"/>
	<unicode hex="004F"/>
	<anchor x="331" y="400" name="center"/>
	<anchor x="485" y="10" name="ogonek"/>
	<anchor x="331" y="800" name="top"/>
	<anchor x="644" y="800" name="topright"/>
	<anchor x="18" y="800" name="topleft"/>
	<anchor x="331" y="0" name="bottom"/>
	<outline>
		<contour>
			<point x="50" y="260" type="line" smooth="yes"/>
			<point x="50" y="88"/>
			<point x="154" y="-13"/>
			<point x="331" y="-13" type="curve" smooth="yes"/>
			<point x="508" y="-13"/>
			<point x="613" y="88"/>
			<point x="613" y="259" type="curve" smooth="yes"/>
			<point x="613" y="541" type="line" smooth="yes"/>
			<point x="613" y="712"/>
			<point x="508" y="813"/>
			<point x="331" y="813" type="curve" smooth="yes"/>
			<point x="154" y="813"/>
			<point x="50" y="712"/>
			<point x="50" y="542" type="curve" smooth="yes"/>
		</contour>
		<contour>
			<point x="227" y="256" type="curve" smooth="yes"/>
			<point x="227" y="540" type="line" smooth="yes"/>
			<point x="227" y="619"/>
			<point x="265" y="666"/>
			<point x="330" y="666" type="curve" smooth="yes"/>
			<point x="396" y="666"/>
			<point x="435" y="621"/>
			<point x="435" y="545" type="curve" smooth="yes"/>
			<point x="435" y="261" type="line" smooth="yes"/>
			<point x="435" y="182"/>
			<point x="397" y="135"/>
			<point x="332" y="135" type="curve" smooth="yes"/>
			<point x="266" y="135"/>
			<point x="227" y="180"/>
		</contour>
	</outline>
</glyph>
<glyph name="P" format="2">
	<advance width="615"/>
	<unicode hex="0050"/>
	<outline>
		<contour>
			<point x="70" y="0" type="line"/>
			<point x="245" y="0" type="line"/>
			<point x="245" y="300" type="line"/>
			<point x="332" y="300" type="line" smooth="yes"/>
			<point x="488" y="300"/>
			<point x="580" y="385"/>
			<point x="580" y="530" type="curve" smooth="yes"/>
			<point x="580" y="569" type="line" smooth="yes"/>
			<point x="580" y="714"/>
			<point x="488" y="800"/>
			<point x="333" y="800" type="curve" smooth="yes"/>
			<point x="70" y="800" type="line"/>
		</contour>
		<contour>
			<point x="245" y="448" type="line"/>
			<point x="245" y="653" type="line"/>
			<point x="327" y="653" type="line" smooth="yes"/>
			<point x="375" y="653"/>
			<point x="403" y="622"/>
			<point x="403" y="569" type="curve" smooth="yes"/>
			<point x="403" y="532" type="line" smooth="yes"/>
			<point x="403" y="479"/>
			<point x="375" y="448"/>
			<point x="327" y="448" type="curve" smooth="yes"/>
		</contour>
	</outline>
</glyph>
<glyph name="Q" format="2">
	<advance width="662"/>
	<unicode hex="0051"/>
	<outline>
		<contour>
			<point x="50" y="260" type="line" smooth="yes"/>
			<point x="50" y="88"/>
			<point x="154" y="-13"/>
			<point x="331" y="-13" type="curve" smooth="yes"/>
			<point x="508" y="-13"/>
			<point x="613" y="88"/>
			<point x="613" y="259" type="curve" smooth="yes"/>
			<point x="613" y="541" type="line" smooth="yes"/>
			<point x="613" y="712"/>
			<point x="508" y="813"/>
			<point x="331" y="813" type="curve" smooth="yes"/>
			<point x="154" y="813"/>
			<point x="50" y="712"/>
			<point x="50" y="542" type="curve" smooth="yes"/>
		</contour>
		<contour>
			<point x="227" y="256" type="curve" smooth="yes"/>
			<point x="227" y="540" type="line" smooth="yes"/>
			<point x="227" y="619"/>
			<point x="265" y="666"/>
			<point x="330" y="666" type="curve" smooth="yes"/>
			<point x="396" y="666"/>
			<point x="435" y="621"/>
			<point x="435" y="545" type="curve" smooth="yes"/>
			<point x="435" y="261" type="line" smooth="yes"/>
			<point x="435" y="182"/>
			<point x="397" y="135"/>
			<point x="332" y="135" type="curve" smooth="yes"/>
			<point x="266" y="135"/>
			<point x="227" y="180"/>
		</contour>
		<contour>
			<point x="337" y="32" type="line"/>
			<point x="337" y="7" type="line" smooth="yes"/>
			<point x="337" y="-97"/>
			<point x="402" y="-158"/>
			<point x="511" y="-158" type="curve" smooth="yes"/>
			<point x="535" y="-158"/>
			<point x="560" y="-155"/>
			<point x="579" y="-151" type="curve"/>
			<point x="579" y="-21" type="line"/>
			<point x="558" y="-26"/>
			<point x="532" y="-29"/>
			<point x="508" y="-29" type="curve" smooth="yes"/>
			<point x="457" y="-29"/>
			<point x="427" y="-8"/>
			<point x="427" y="27" type="curve" smooth="yes"/>
			<point x="427" y="32" type="line"/>
		</contour>
	</outline>
</glyph>
<glyph name="R" format="2">
	<advance width="663"/>
	<unicode hex="0052"/>
	<anchor x="298" y="800" name="top"/>
	<anchor x="318" y="0" name="bottom"/>
	<outline>
		<contour>
			<point x="70" y="0" type="line"/>
			<point x="245" y="0" type="line"/>
			<point x="245" y="325" type="line"/>
			<point x="349" y="325" type="line"/>
			<point x="449" y="0" type="line"/>
			<point x="635" y="0" type="line"/>
			<point x="533" y="298" type="line" smooth="yes"/>
			<point x="521" y="333"/>
			<point x="495" y="358"/>
			<point x="464" y="367" type="curve"/>
			<point x="464" y="371" type="line"/>
			<point x="543" y="392"/>
			<point x="590" y="465"/>
			<point x="590" y="567" type="curve" smooth="yes"/>
			<point x="590" y="572" type="line" smooth="yes"/>
			<point x="590" y="715"/>
			<point x="498" y="800"/>
			<point x="343" y="800" type="curve" smooth="yes"/>
			<point x="70" y="800" type="line"/>
		</contour>
		<contour>
			<point x="245" y="468" type="line"/>
			<point x="245" y="653" type="line"/>
			<point x="337" y="653" type="line" smooth="yes"/>
			<point x="385" y="653"/>
			<point x="413" y="623"/>
			<point x="413" y="572" type="curve" smooth="yes"/>
			<point x="413" y="550" type="line" smooth="yes"/>
			<point x="413" y="498"/>
			<point x="385" y="468"/>
			<point x="337" y="468" type="curve" smooth="yes"/>
		</contour>
	</outline>
</glyph>
<glyph name="S" format="2">
	<advance width="604"/>
	<unicode hex="0053"/>
	<anchor x="300" y="800" name="top"/>
	<anchor x="300" y="0" name="bottom"/>
	<outline>
		<contour>
			<point x="41" y="255" type="line"/>
			<point x="41" y="223" type="line" smooth="yes"/>
			<point x="41" y="75"/>
			<point x="136" y="-13"/>
			<point x="298" y="-13" type="curve" smooth="yes"/>
			<point x="465" y="-13"/>
			<point x="564" y="69"/>
			<point x="564" y="207" type="curve" smooth="yes"/>
			<point x="564" y="257"/>
			<point x="546" y="311"/>
			<point x="516" y="353" type="curve" smooth="yes"/>
			<point x="489" y="390"/>
			<point x="441" y="431"/>
			<point x="386" y="462" type="curve" smooth="yes"/>
			<point x="306" y="507" type="line" smooth="yes"/>
			<point x="283" y="520"/>
			<point x="264" y="536"/>
			<point x="254" y="552" type="curve" smooth="yes"/>
			<point x="243" y="569"/>
			<point x="236" y="590"/>
			<point x="236" y="606" type="curve" smooth="yes"/>
			<point x="236" y="615" type="line" smooth="yes"/>
			<point x="236" y="650"/>
			<point x="262" y="671"/>
			<point x="306" y="671" type="curve" smooth="yes"/>
			<point x="347" y="671"/>
			<point x="371" y="644"/>
			<point x="371" y="598" type="curve" smooth="yes"/>
			<point x="371" y="565" type="line"/>
			<point x="532" y="572" type="line"/>
			<point x="532" y="596" type="line" smooth="yes"/>
			<point x="532" y="732"/>
			<point x="447" y="813"/>
			<point x="302" y="813" type="curve" smooth="yes"/>
			<point x="147" y="813"/>
			<point x="56" y="734"/>
			<point x="56" y="600" type="curve" smooth="yes"/>
			<point x="56" y="555"/>
			<point x="73" y="505"/>
			<point x="102" y="464" type="curve" smooth="yes"/>
			<point x="127" y="428"/>
			<point x="173" y="391"/>
			<point x="226" y="361" type="curve" smooth="yes"/>
			<point x="306" y="316" type="line" smooth="yes"/>
			<point x="333" y="301"/>
			<point x="355" y="282"/>
			<point x="366" y="266" type="curve" smooth="yes"/>
			<point x="378" y="248"/>
			<point x="384" y="227"/>
			<point x="384" y="212" type="curve" smooth="yes"/>
			<point x="384" y="200" type="line" smooth="yes"/>
			<point x="384" y="156"/>
			<point x="352" y="130"/>
			<point x="299" y="130" type="curve" smooth="yes"/>
			<point x="241" y="130"/>
			<point x="207" y="163"/>
			<point x="207" y="218" type="curve" smooth="yes"/>
			<point x="207" y="261" type="line"/>
		</contour>
	</outline>
</glyph>
<glyph name="T" format="2">
	<advance width="593"/>
	<unicode hex="0054"/>
	<anchor x="300" y="400" name="center"/>
	<anchor x="300" y="0" name="bottom"/>
	<anchor x="300" y="800" name="top"/>
	<outline>
		<contour>
			<point x="35" y="800" type="line"/>
			<point x="35" y="653" type="line"/>
			<point x="212" y="653" type="line"/>
			<point x="212" y="0" type="line"/>
			<point x="387" y="0" type="line"/>
			<point x="387" y="653" type="line"/>
			<point x="565" y="653" type="line"/>
			<point x="565" y="800" type="line"/>
		</contour>
	</outline>
</glyph>
<glyph name="U" format="2">
	<advance width="672"/>
	<unicode hex="0055"/>
	<anchor x="432" y="10" name="ogonek"/>
	<anchor x="336" y="800" name="top"/>
	<anchor x="638" y="800" name="topright"/>
	<anchor x="336" y="0" name="bottom"/>
	<outline>
		<contour>
			<point x="603" y="800" type="line"/>
			<point x="428" y="800" type="line"/>
			<point x="428" y="251" type="line" smooth="yes"/>
			<point x="428" y="178"/>
			<point x="394" y="135"/>
			<point x="336" y="135" type="curve" smooth="yes"/>
			<point x="279" y="135"/>
			<point x="245" y="176"/>
			<point x="245" y="246" type="curve" smooth="yes"/>
			<point x="245" y="800" type="line"/>
			<point x="70" y="800" type="line"/>
			<point x="70" y="250" type="line" smooth="yes"/>
			<point x="70" y="85"/>
			<point x="169" y="-13"/>
			<point x="336" y="-13" type="curve" smooth="yes"/>
			<point x="504" y="-13"/>
			<point x="603" y="84"/>
			<point x="603" y="249" type="curve" smooth="yes"/>
		</contour>
	</outline>
</glyph>
<glyph name="V" format="2">
	<advance width="650"/>
	<unicode hex="0056"/>
	<outline>
		<contour>
			<point x="35" y="800" type="line"/>
			<point x="220" y="0" type="line"/>
			<point x="442" y="0" type="line"/>
			<point x="622" y="800" type="line"/>
			<point x="449" y="800" type="line"/>
			<point x="342" y="232" type="line"/>
			<point x="337" y="120" type="line"/>
			<point x="332" y="120" type="line"/>
			<point x="326" y="232" type="line"/>
			<point x="217" y="800" type="line"/>
		</contour>
	</outline>
</glyph>
<glyph name="W" format="2">
	<advance width="947"/>
	<unicode hex="0057"/>
	<anchor x="485" y="800" name="top"/>
	<anchor x="485" y="0" name="bottom"/>
	<outline>
		<contour>
			<point x="35" y="800" type="line"/>
			<point x="166" y="0" type="line"/>
			<point x="379" y="0" type="line"/>
			<point x="469" y="579" type="line"/>
			<point x="474" y="676" type="line"/>
			<point x="480" y="676" type="line"/>
			<point x="485" y="579" type="line"/>
			<point x="570" y="0" type="line"/>
			<point x="793" y="0" type="line"/>
			<point x="919" y="800" type="line"/>
			<point x="754" y="800" type="line"/>
			<point x="689" y="234" type="line"/>
			<point x="683" y="137" type="line"/>
			<point x="677" y="137" type="line"/>
			<point x="672" y="234" type="line"/>
			<point x="586" y="800" type="line"/>
			<point x="378" y="800" type="line"/>
			<point x="295" y="234" type="line"/>
			<point x="289" y="137" type="line"/>
			<point x="283" y="137" type="line"/>
			<point x="278" y="234" type="line"/>
			<point x="216" y="800" type="line"/>
		</contour>
	</outline>
</glyph>
<glyph name="X" format="2">
	<advance width="657"/>
	<unicode hex="0058"/>
	<outline>
		<contour>
			<point x="35" y="0" type="line"/>
			<point x="213" y="0" type="line"/>
			<point x="316" y="280" type="line"/>
			<point x="324" y="360" type="line"/>
			<point x="329" y="360" type="line"/>
			<point x="337" y="280" type="line"/>
			<point x="441" y="0" type="line"/>
			<point x="629" y="0" type="line"/>
			<point x="446" y="420" type="line"/>
			<point x="600" y="800" type="line"/>
			<point x="421" y="800" type="line"/>
			<point x="341" y="549" type="line"/>
			<point x="333" y="470" type="line"/>
			<point x="328" y="470" type="line"/>
			<point x="320" y="549" type="line"/>
			<point x="235" y="800" type="line"/>
			<point x="47" y="800" type="line"/>
			<point x="208" y="412" type="line"/>
		</contour>
	</outline>
</glyph>
<glyph name="Y" format="2">
	<advance width="659"/>
	<unicode hex="0059"/>
	<anchor x="339" y="800" name="top"/>
	<anchor x="339" y="0" name="bottom"/>
	<anchor x="61" y="800" name="topleft"/>
	<outline>
		<contour>
			<point x="35" y="800" type="line"/>
			<point x="252" y="245" type="line"/>
			<point x="252" y="0" type="line"/>
			<point x="427" y="0" type="line"/>
			<point x="427" y="245" type="line"/>
			<point x="631" y="800" type="line"/>
			<point x="457" y="800" type="line"/>
			<point x="352" y="431" type="line"/>
			<point x="347" y="370" type="line"/>
			<point x="342" y="370" type="line"/>
			<point x="337" y="431" type="line"/>
			<point x="221" y="800" type="line"/>
		</contour>
	</outline>
</glyph>
<glyph name="Z" format="2">
	<advance width="605"/>
	<unicode hex="005A"/>
	<anchor x="298" y="800" name="top"/>
	<anchor x="298" y="0" name="bottom"/>
	<outline>
		<contour>
			<point x="37" y="0" type="line"/>
			<point x="568" y="0" type="line"/>
			<point x="568" y="143" type="line"/>
			<point x="235" y="143" type="line"/>
			<point x="235" y="148" type="line"/>
			<point x="263" y="171" type="line"/>
			<point x="548" y="687" type="line"/>
			<point x="548" y="800" type="line"/>
			<point x="57" y="800" type="line"/>
			<point x="57" y="658" type="line"/>
			<point x="350" y="658" type="line"/>
			<point x="350" y="653" type="line"/>
			<point x="322" y="630" type="line"/>
			<point x="37" y="114" type="line"/>
		</contour>
	</outline>
</glyph>
<glyph name="bracketleft" format="2">
	<advance width="350"/>
	<unicode hex="005B"/>
	<outline>
		<contour>
			<point x="35" y="-180" type="line"/>
			<point x="315" y="-180" type="line"/>
			<point x="315" y="-53" type="line"/>
			<point x="195" y="-53" type="line"/>
			<point x="195" y="693" type="line"/>
			<point x="315" y="693" type="line"/>
			<point x="315" y="820" type="line"/>
			<point x="35" y="820" type="line"/>
		</contour>
	</outline>
</glyph>
<glyph name="bracketright" format="2">
	<advance width="350"/>
	<unicode hex="005D"/>
	<outline>
		<contour>
			<point x="315" y="-180" type="line"/>
			<point x="315" y="820" type="line"/>
			<point x="35" y="820" type="line"/>
			<point x="35" y="693" type="line"/>
			<point x="155" y="693" type="line"/>
			<point x="155" y="-53" type="line"/>
			<point x="35" y="-53" type="line"/>
			<point x="35" y="-180" type="line"/>
		</contour>
	</outline>
</glyph>
<glyph name="underscore" format="2">
	<advance width="460"/>
	<unicode hex="005F"/>
	<outline>
		<contour>
			<point x="0" y="-146" type="line"/>
			<point x="460" y="-146" type="line"/>
			<point x="460" y="-36" type="line"/>
			<point x="0" y="-36" type="line"/>
		</contour>
	</outline>
</glyph>
<glyph name="a" format="2">
	<advance width="534"/>
	<unicode hex="0061"/>
	<anchor x="475" y="10" name="ogonek"/>
	<anchor x="260" y="0" name="bottom"/>
	<anchor x="267" y="590" name="top"/>
	<outline>
		<contour>
			<point x="56" y="405" type="line"/>
			<point x="211" y="403" type="line"/>
			<point x="211" y="420" type="line" smooth="yes"/>
			<point x="211" y="460"/>
			<point x="230" y="483"/>
			<point x="263" y="483" type="curve" smooth="yes"/>
			<point x="295" y="483"/>
			<point x="314" y="457"/>
			<point x="314" y="414" type="curve" smooth="yes"/>
			<point x="314" y="95" type="line" smooth="yes"/>
			<point x="314" y="51"/>
			<point x="320" y="16"/>
			<point x="331" y="0" type="curve"/>
			<point x="495" y="0" type="line"/>
			<point x="497" y="4" type="line"/>
			<point x="486" y="38"/>
			<point x="479" y="75"/>
			<point x="479" y="104" type="curve" smooth="yes"/>
			<point x="479" y="416" type="line" smooth="yes"/>
			<point x="479" y="534"/>
			<point x="401" y="603"/>
			<point x="268" y="603" type="curve" smooth="yes"/>
			<point x="135" y="603"/>
			<point x="56" y="537"/>
			<point x="56" y="425" type="curve" smooth="yes"/>
		</contour>
		<contour>
			<point x="344" y="183" type="line"/>
			<point x="314" y="183" type="line"/>
			<point x="314" y="135"/>
			<point x="292" y="107"/>
			<point x="254" y="107" type="curve" smooth="yes"/>
			<point x="221" y="107"/>
			<point x="202" y="132"/>
			<point x="202" y="173" type="curve" smooth="yes"/>
			<point x="202" y="185" type="line" smooth="yes"/>
			<point x="202" y="227"/>
			<point x="228" y="258"/>
			<point x="273" y="269" type="curve" smooth="yes"/>
			<point x="347" y="287" type="line"/>
			<point x="347" y="384" type="line"/>
			<point x="213" y="347" type="line" smooth="yes"/>
			<point x="100" y="316"/>
			<point x="33" y="248"/>
			<point x="33" y="165" type="curve" smooth="yes"/>
			<point x="33" y="153" type="line" smooth="yes"/>
			<point x="33" y="49"/>
			<point x="89" y="-13"/>
			<point x="185" y="-13" type="curve" smooth="yes"/>
			<point x="267" y="-13"/>
			<point x="326" y="43"/>
			<point x="344" y="139" type="curve"/>
		</contour>
	</outline>
</glyph>
<glyph name="b" format="2">
	<advance width="545"/>
	<unicode hex="0062"/>
	<outline>
		<contour>
			<point x="48" y="820" type="line"/>
			<point x="48" y="0" type="line"/>
			<point x="193" y="0" type="line"/>
			<point x="213" y="95" type="line"/>
			<point x="213" y="820" type="line"/>
		</contour>
		<contour>
			<point x="198" y="119" type="line"/>
			<point x="213" y="36"/>
			<point x="266" y="-13"/>
			<point x="340" y="-13" type="curve" smooth="yes"/>
			<point x="443" y="-13"/>
			<point x="503" y="70"/>
			<point x="503" y="210" type="curve" smooth="yes"/>
			<point x="503" y="380" type="line" smooth="yes"/>
			<point x="503" y="524"/>
			<point x="447" y="603"/>
			<point x="346" y="603" type="curve" smooth="yes"/>
			<point x="271" y="603"/>
			<point x="218" y="561"/>
			<point x="198" y="482" type="curve"/>
			<point x="198" y="378" type="line"/>
			<point x="213" y="378" type="line"/>
			<point x="213" y="442"/>
			<point x="236" y="478"/>
			<point x="278" y="478" type="curve" smooth="yes"/>
			<point x="315" y="478"/>
			<point x="337" y="443"/>
			<point x="337" y="381" type="curve" smooth="yes"/>
			<point x="337" y="217" type="line" smooth="yes"/>
			<point x="337" y="150"/>
			<point x="313" y="112"/>
			<point x="272" y="112" type="curve" smooth="yes"/>
			<point x="234" y="112"/>
			<point x="213" y="147"/>
			<point x="213" y="208" type="curve"/>
			<point x="198" y="208" type="line"/>
		</contour>
	</outline>
</glyph>
<glyph name="c" format="2">
	<advance width="519"/>
	<unicode hex="0063"/>
	<anchor x="260" y="590" name="top"/>
	<anchor x="255" y="0" name="bottom"/>
	<outline>
		<contour>
			<point x="315" y="386" type="line"/>
			<point x="474" y="390" type="line"/>
			<point x="474" y="408" type="line" smooth="yes"/>
			<point x="474" y="531"/>
			<point x="393" y="603"/>
			<point x="256" y="603" type="curve" smooth="yes"/>
			<point x="116" y="603"/>
			<point x="33" y="529"/>
			<point x="33" y="403" type="curve" smooth="yes"/>
			<point x="33" y="198" type="line" smooth="yes"/>
			<point x="33" y="65"/>
			<point x="116" y="-13"/>
			<point x="256" y="-13" type="curve" smooth="yes"/>
			<point x="395" y="-13"/>
			<point x="477" y="63"/>
			<point x="477" y="192" type="curve" smooth="yes"/>
			<point x="477" y="208" type="line"/>
			<point x="323" y="211" type="line"/>
			<point x="323" y="185" type="line" smooth="yes"/>
			<point x="323" y="136"/>
			<point x="299" y="107"/>
			<point x="259" y="107" type="curve" smooth="yes"/>
			<point x="221" y="107"/>
			<point x="199" y="136"/>
			<point x="199" y="185" type="curve" smooth="yes"/>
			<point x="199" y="411" type="line" smooth="yes"/>
			<point x="199" y="456"/>
			<point x="220" y="483"/>
			<point x="255" y="483" type="curve" smooth="yes"/>
			<point x="293" y="483"/>
			<point x="315" y="458"/>
			<point x="315" y="415" type="curve" smooth="yes"/>
		</contour>
	</outline>
</glyph>
<glyph name="e" format="2">
	<advance width="524"/>
	<unicode hex="0065"/>
	<anchor x="325" y="10" name="ogonek"/>
	<anchor x="263" y="0" name="bottom"/>
	<anchor x="263" y="590" name="top"/>
	<outline>
		<contour>
			<point x="477" y="198" type="line"/>
			<point x="323" y="201" type="line"/>
			<point x="323" y="175" type="line" smooth="yes"/>
			<point x="323" y="129"/>
			<point x="300" y="102"/>
			<point x="261" y="102" type="curve" smooth="yes"/>
			<point x="222" y="102"/>
			<point x="199" y="131"/>
			<point x="199" y="181" type="curve" smooth="yes"/>
			<point x="199" y="406" type="line" smooth="yes"/>
			<point x="199" y="458"/>
			<point x="223" y="488"/>
			<point x="263" y="488" type="curve" smooth="yes"/>
			<point x="300" y="488"/>
			<point x="322" y="460"/>
			<point x="322" y="412" type="curve" smooth="yes"/>
			<point x="322" y="311" type="line"/>
			<point x="375" y="370" type="line"/>
			<point x="155" y="370" type="line"/>
			<point x="155" y="270" type="line"/>
			<point x="482" y="270" type="line"/>
			<point x="482" y="405" type="line" smooth="yes"/>
			<point x="482" y="529"/>
			<point x="401" y="603"/>
			<point x="264" y="603" type="curve" smooth="yes"/>
			<point x="119" y="603"/>
			<point x="33" y="532"/>
			<point x="33" y="413" type="curve" smooth="yes"/>
			<point x="33" y="178" type="line" smooth="yes"/>
			<point x="33" y="58"/>
			<point x="115" y="-13"/>
			<point x="255" y="-13" type="curve" smooth="yes"/>
			<point x="395" y="-13"/>
			<point x="477" y="56"/>
			<point x="477" y="172" type="curve" smooth="yes"/>
		</contour>
	</outline>
</glyph>
<glyph name="f" format="2">
	<advance width="400"/>
	<unicode hex="0066"/>
	<outline>
		<contour>
			<point x="104" y="0" type="line"/>
			<point x="269" y="0" type="line"/>
			<point x="269" y="660" type="line" smooth="yes"/>
			<point x="269" y="687"/>
			<point x="284" y="703"/>
			<point x="312" y="703" type="curve" smooth="yes"/>
			<point x="326" y="703"/>
			<point x="342" y="701"/>
			<point x="354" y="699" type="curve"/>
			<point x="354" y="820" type="line"/>
			<point x="324" y="825"/>
			<point x="292" y="828"/>
			<point x="261" y="828" type="curve" smooth="yes"/>
			<point x="159" y="828"/>
			<point x="104" y="773"/>
			<point x="104" y="670" type="curve" smooth="yes"/>
		</contour>
		<contour>
			<point x="29" y="590" type="line"/>
			<point x="29" y="470" type="line"/>
			<point x="354" y="470" type="line"/>
			<point x="354" y="590" type="line"/>
		</contour>
	</outline>
</glyph>
<glyph name="g" format="2">
	<advance width="541"/>
	<unicode hex="0067"/>
	<anchor x="276" y="590" name="top"/>
	<anchor x="265" y="-180" name="bottom"/>
	<outline>
		<contour>
			<point x="42" y="-15" type="line" smooth="yes"/>
			<point x="42" y="-127"/>
			<point x="124" y="-193"/>
			<point x="264" y="-193" type="curve" smooth="yes"/>
			<point x="405" y="-193"/>
			<point x="488" y="-120"/>
			<point x="488" y="4" type="curve" smooth="yes"/>
			<point x="488" y="590" type="line"/>
			<point x="343" y="590" type="line"/>
			<point x="323" y="495" type="line"/>
			<point x="323" y="-4" type="line" smooth="yes"/>
			<point x="323" y="-47"/>
			<point x="301" y="-73"/>
			<point x="263" y="-73" type="curve" smooth="yes"/>
			<point x="228" y="-73"/>
			<point x="207" y="-51"/>
			<point x="207" y="-15" type="curve" smooth="yes"/>
			<point x="207" y="2" type="line"/>
			<point x="42" y="0" type="line"/>
		</contour>
		<contour>
			<point x="338" y="472" type="line"/>
			<point x="323" y="554"/>
			<point x="270" y="603"/>
			<point x="196" y="603" type="curve" smooth="yes"/>
			<point x="94" y="603"/>
			<point x="33" y="528"/>
			<point x="33" y="401" type="curve" smooth="yes"/>
			<point x="33" y="250" type="line" smooth="yes"/>
			<point x="33" y="122"/>
			<point x="91" y="47"/>
			<point x="190" y="47" type="curve" smooth="yes"/>
			<point x="264" y="47"/>
			<point x="319" y="92"/>
			<point x="338" y="169" type="curve"/>
			<point x="338" y="253" type="line"/>
			<point x="323" y="253" type="line"/>
			<point x="323" y="202"/>
			<point x="299" y="172"/>
			<point x="258" y="172" type="curve" smooth="yes"/>
			<point x="221" y="172"/>
			<point x="199" y="201"/>
			<point x="199" y="250" type="curve" smooth="yes"/>
			<point x="199" y="393" type="line" smooth="yes"/>
			<point x="199" y="446"/>
			<point x="223" y="478"/>
			<point x="264" y="478" type="curve" smooth="yes"/>
			<point x="301" y="478"/>
			<point x="323" y="450"/>
			<point x="323" y="403" type="curve"/>
			<point x="338" y="403" type="line"/>
		</contour>
	</outline>
</glyph>
<glyph name="k" format="2">
	<advance width="565"/>
	<unicode hex="006B"/>
	<anchor x="294" y="820" name="top"/>
	<anchor x="294" y="0" name="bottom"/>
	<outline>
		<contour>
			<point x="48" y="0" type="line"/>
			<point x="213" y="0" type="line"/>
			<point x="213" y="245" type="line"/>
			<point x="247" y="302" type="line"/>
			<point x="251" y="302" type="line"/>
			<point x="353" y="0" type="line"/>
			<point x="530" y="0" type="line"/>
			<point x="372" y="397" type="line"/>
			<point x="493" y="590" type="line"/>
			<point x="340" y="590" type="line"/>
			<point x="232" y="412" type="line"/>
			<point x="208" y="351" type="line"/>
			<point x="204" y="351" type="line"/>
			<point x="213" y="417" type="line"/>
			<point x="213" y="820" type="line"/>
			<point x="48" y="820" type="line"/>
		</contour>
	</outline>
</glyph>
<glyph name="l" format="2">
	<advance width="266"/>
	<unicode hex="006C"/>
	<anchor x="129" y="410" name="center"/>
	<anchor x="129" y="820" name="top"/>
	<anchor x="253" y="820" name="topright"/>
	<anchor x="129" y="0" name="bottom"/>
	<outline>
		<contour>
			<point x="48" y="820" type="line"/>
			<point x="48" y="0" type="line"/>
			<point x="213" y="0" type="line"/>
			<point x="213" y="820" type="line"/>
		</contour>
	</outline>
</glyph>
<glyph name="m" format="2">
	<advance width="804"/>
	<unicode hex="006D"/>
	<anchor x="374" y="590" name="top"/>
	<anchor x="374" y="0" name="bottom"/>
	<outline>
		<contour>
			<point x="48" y="590" type="line"/>
			<point x="48" y="0" type="line"/>
			<point x="213" y="0" type="line"/>
			<point x="213" y="495" type="line"/>
			<point x="193" y="590" type="line"/>
		</contour>
		<contour>
			<point x="317" y="406" type="curve" smooth="yes"/>
			<point x="317" y="0" type="line"/>
			<point x="483" y="0" type="line"/>
			<point x="483" y="410" type="line" smooth="yes"/>
			<point x="483" y="535"/>
			<point x="431" y="603"/>
			<point x="336" y="603" type="curve" smooth="yes"/>
			<point x="267" y="603"/>
			<point x="218" y="561"/>
			<point x="198" y="482" type="curve"/>
			<point x="198" y="378" type="line"/>
			<point x="213" y="378" type="line"/>
			<point x="213" y="442"/>
			<point x="233" y="478"/>
			<point x="268" y="478" type="curve" smooth="yes"/>
			<point x="299" y="478"/>
			<point x="317" y="452"/>
		</contour>
		<contour>
			<point x="587" y="406" type="curve" smooth="yes"/>
			<point x="587" y="0" type="line"/>
			<point x="753" y="0" type="line"/>
			<point x="753" y="405" type="line" smooth="yes"/>
			<point x="753" y="533"/>
			<point x="701" y="603"/>
			<point x="606" y="603" type="curve" smooth="yes"/>
			<point x="535" y="603"/>
			<point x="484" y="559"/>
			<point x="463" y="477" type="curve"/>
			<point x="463" y="378" type="line"/>
			<point x="483" y="378" type="line"/>
			<point x="483" y="442"/>
			<point x="503" y="478"/>
			<point x="538" y="478" type="curve" smooth="yes"/>
			<point x="569" y="478"/>
			<point x="587" y="452"/>
		</contour>
	</outline>
</glyph>
<glyph name="n" format="2">
	<advance width="544"/>
	<unicode hex="006E"/>
	<anchor x="263" y="590" name="top"/>
	<anchor x="273" y="0" name="bottom"/>
	<outline>
		<contour>
			<point x="48" y="590" type="line"/>
			<point x="48" y="0" type="line"/>
			<point x="213" y="0" type="line"/>
			<point x="213" y="495" type="line"/>
			<point x="193" y="590" type="line"/>
		</contour>
		<contour>
			<point x="327" y="406" type="curve" smooth="yes"/>
			<point x="327" y="0" type="line"/>
			<point x="493" y="0" type="line"/>
			<point x="493" y="405" type="line" smooth="yes"/>
			<point x="493" y="533"/>
			<point x="439" y="603"/>
			<point x="341" y="603" type="curve" smooth="yes"/>
			<point x="269" y="603"/>
			<point x="218" y="561"/>
			<point x="198" y="482" type="curve"/>
			<point x="198" y="378" type="line"/>
			<point x="213" y="378" type="line"/>
			<point x="213" y="442"/>
			<point x="234" y="478"/>
			<point x="273" y="478" type="curve" smooth="yes"/>
			<point x="307" y="478"/>
			<point x="327" y="452"/>
		</contour>
	</outline>
</glyph>
<glyph name="o" format="2">
	<advance width="536"/>
	<unicode hex="006F"/>
	<anchor x="263" y="295" name="center"/>
	<anchor x="395" y="10" name="ogonek"/>
	<anchor x="263" y="590" name="top"/>
	<anchor x="501" y="590" name="topright"/>
	<anchor x="263" y="0" name="bottom"/>
	<outline>
		<contour>
			<point x="33" y="208" type="line" smooth="yes"/>
			<point x="33" y="69"/>
			<point x="119" y="-13"/>
			<point x="264" y="-13" type="curve" smooth="yes"/>
			<point x="409" y="-13"/>
			<point x="494" y="69"/>
			<point x="494" y="207" type="curve" smooth="yes"/>
			<point x="494" y="382" type="line" smooth="yes"/>
			<point x="494" y="521"/>
			<point x="409" y="603"/>
			<point x="264" y="603" type="curve" smooth="yes"/>
			<point x="119" y="603"/>
			<point x="33" y="521"/>
			<point x="33" y="383" type="curve" smooth="yes"/>
		</contour>
		<contour>
			<point x="199" y="205" type="curve" smooth="yes"/>
			<point x="199" y="381" type="line" smooth="yes"/>
			<point x="199" y="445"/>
			<point x="223" y="483"/>
			<point x="263" y="483" type="curve" smooth="yes"/>
			<point x="304" y="483"/>
			<point x="328" y="447"/>
			<point x="328" y="386" type="curve" smooth="yes"/>
			<point x="328" y="210" type="line" smooth="yes"/>
			<point x="328" y="145"/>
			<point x="305" y="107"/>
			<point x="265" y="107" type="curve" smooth="yes"/>
			<point x="224" y="107"/>
			<point x="199" y="143"/>
		</contour>
	</outline>
</glyph>
<glyph name="q" format="2">
	<advance width="541"/>
	<unicode hex="0071"/>
	<outline>
		<contour>
			<point x="488" y="-180" type="line"/>
			<point x="488" y="590" type="line"/>
			<point x="343" y="590" type="line"/>
			<point x="323" y="495" type="line"/>
			<point x="323" y="-180" type="line"/>
		</contour>
		<contour>
			<point x="338" y="472" type="line"/>
			<point x="323" y="554"/>
			<point x="270" y="603"/>
			<point x="196" y="603" type="curve" smooth="yes"/>
			<point x="93" y="603"/>
			<point x="33" y="521"/>
			<point x="33" y="381" type="curve" smooth="yes"/>
			<point x="33" y="210" type="line" smooth="yes"/>
			<point x="33" y="67"/>
			<point x="89" y="-13"/>
			<point x="190" y="-13" type="curve" smooth="yes"/>
			<point x="265" y="-13"/>
			<point x="318" y="30"/>
			<point x="338" y="109" type="curve"/>
			<point x="338" y="213" type="line"/>
			<point x="323" y="213" type="line"/>
			<point x="323" y="149"/>
			<point x="300" y="112"/>
			<point x="258" y="112" type="curve" smooth="yes"/>
			<point x="221" y="112"/>
			<point x="199" y="148"/>
			<point x="199" y="210" type="curve" smooth="yes"/>
			<point x="199" y="373" type="line" smooth="yes"/>
			<point x="199" y="440"/>
			<point x="223" y="478"/>
			<point x="264" y="478" type="curve" smooth="yes"/>
			<point x="302" y="478"/>
			<point x="323" y="443"/>
			<point x="323" y="383" type="curve"/>
			<point x="338" y="383" type="line"/>
		</contour>
	</outline>
</glyph>
<glyph name="r" format="2">
	<advance width="391"/>
	<unicode hex="0072"/>
	<anchor x="173" y="590" name="top"/>
	<anchor x="130" y="0" name="bottom"/>
	<outline>
		<contour>
			<point x="48" y="590" type="line"/>
			<point x="48" y="0" type="line"/>
			<point x="213" y="0" type="line"/>
			<point x="213" y="485" type="line"/>
			<point x="193" y="590" type="line"/>
		</contour>
		<contour>
			<point x="354" y="448" type="line"/>
			<point x="360" y="599" type="line"/>
			<point x="348" y="602"/>
			<point x="337" y="603"/>
			<point x="326" y="603" type="curve" smooth="yes"/>
			<point x="262" y="603"/>
			<point x="217" y="552"/>
			<point x="198" y="457" type="curve"/>
			<point x="198" y="271" type="line"/>
			<point x="213" y="271" type="line"/>
			<point x="213" y="386"/>
			<point x="254" y="448"/>
			<point x="331" y="448" type="curve" smooth="yes"/>
		</contour>
	</outline>
</glyph>
<glyph name="s" format="2">
	<advance width="507"/>
	<unicode hex="0073"/>
	<anchor x="252" y="590" name="top"/>
	<anchor x="253" y="0" name="bottom"/>
	<outline>
		<contour>
			<point x="32" y="190" type="line"/>
			<point x="32" y="164" type="line" smooth="yes"/>
			<point x="32" y="53"/>
			<point x="114" y="-13"/>
			<point x="252" y="-13" type="curve" smooth="yes"/>
			<point x="390" y="-13"/>
			<point x="472" y="54"/>
			<point x="472" y="168" type="curve" smooth="yes"/>
			<point x="472" y="210"/>
			<point x="457" y="253"/>
			<point x="431" y="284" type="curve" smooth="yes"/>
			<point x="411" y="308"/>
			<point x="368" y="334"/>
			<point x="314" y="355" type="curve" smooth="yes"/>
			<point x="270" y="372" type="line" smooth="yes"/>
			<point x="247" y="381"/>
			<point x="227" y="394"/>
			<point x="217" y="406" type="curve" smooth="yes"/>
			<point x="208" y="417"/>
			<point x="203" y="432"/>
			<point x="203" y="447" type="curve" smooth="yes"/>
			<point x="203" y="451" type="line" smooth="yes"/>
			<point x="203" y="476"/>
			<point x="220" y="491"/>
			<point x="249" y="491" type="curve" smooth="yes"/>
			<point x="279" y="491"/>
			<point x="297" y="472"/>
			<point x="297" y="439" type="curve" smooth="yes"/>
			<point x="297" y="422" type="line"/>
			<point x="450" y="426" type="line"/>
			<point x="450" y="448" type="line" smooth="yes"/>
			<point x="450" y="545"/>
			<point x="375" y="603"/>
			<point x="248" y="603" type="curve" smooth="yes"/>
			<point x="119" y="603"/>
			<point x="43" y="541"/>
			<point x="43" y="435" type="curve" smooth="yes"/>
			<point x="43" y="392"/>
			<point x="57" y="349"/>
			<point x="80" y="321" type="curve" smooth="yes"/>
			<point x="102" y="295"/>
			<point x="140" y="269"/>
			<point x="181" y="253" type="curve" smooth="yes"/>
			<point x="224" y="236" type="line" smooth="yes"/>
			<point x="250" y="226"/>
			<point x="273" y="213"/>
			<point x="285" y="203" type="curve" smooth="yes"/>
			<point x="299" y="191"/>
			<point x="307" y="172"/>
			<point x="307" y="152" type="curve" smooth="yes"/>
			<point x="307" y="148" type="line" smooth="yes"/>
			<point x="307" y="118"/>
			<point x="287" y="100"/>
			<point x="252" y="100" type="curve" smooth="yes"/>
			<point x="211" y="100"/>
			<point x="187" y="126"/>
			<point x="187" y="169" type="curve" smooth="yes"/>
			<point x="187" y="194" type="line"/>
		</contour>
	</outline>
</glyph>
<glyph name="t" format="2">
	<advance width="400"/>
	<unicode hex="0074"/>
	<anchor x="186" y="295" name="center"/>
	<anchor x="186" y="590" name="top"/>
	<anchor x="320" y="820" name="topright"/>
	<anchor x="238" y="0" name="bottom"/>
	<outline>
		<contour>
			<point x="104" y="153" type="line" smooth="yes"/>
			<point x="104" y="50"/>
			<point x="160" y="-8"/>
			<point x="263" y="-8" type="curve" smooth="yes"/>
			<point x="293" y="-8"/>
			<point x="324" y="-5"/>
			<point x="354" y="0" type="curve"/>
			<point x="354" y="122" type="line"/>
			<point x="342" y="119"/>
			<point x="327" y="118"/>
			<point x="314" y="118" type="curve" smooth="yes"/>
			<point x="285" y="118"/>
			<point x="269" y="133"/>
			<point x="269" y="161" type="curve" smooth="yes"/>
			<point x="269" y="755" type="line"/>
			<point x="199" y="755" type="line"/>
			<point x="104" y="672" type="line"/>
		</contour>
		<contour>
			<point x="29" y="470" type="line"/>
			<point x="354" y="470" type="line"/>
			<point x="354" y="590" type="line"/>
			<point x="29" y="590" type="line"/>
		</contour>
	</outline>
</glyph>
<glyph name="u" format="2">
	<advance width="546"/>
	<unicode hex="0075"/>
	<anchor x="493" y="10" name="ogonek"/>
	<anchor x="275" y="590" name="top"/>
	<anchor x="509" y="590" name="topright"/>
	<anchor x="280" y="0" name="bottom"/>
	<outline>
		<contour>
			<point x="493" y="0" type="line"/>
			<point x="493" y="590" type="line"/>
			<point x="328" y="590" type="line"/>
			<point x="328" y="95" type="line"/>
			<point x="348" y="0" type="line"/>
		</contour>
		<contour>
			<point x="214" y="185" type="curve" smooth="yes"/>
			<point x="214" y="590" type="line"/>
			<point x="48" y="590" type="line"/>
			<point x="48" y="185" type="line" smooth="yes"/>
			<point x="48" y="57"/>
			<point x="101" y="-13"/>
			<point x="197" y="-13" type="curve" smooth="yes"/>
			<point x="271" y="-13"/>
			<point x="322" y="30"/>
			<point x="343" y="109" type="curve"/>
			<point x="343" y="213" type="line"/>
			<point x="328" y="213" type="line"/>
			<point x="328" y="149"/>
			<point x="305" y="112"/>
			<point x="265" y="112" type="curve" smooth="yes"/>
			<point x="232" y="112"/>
			<point x="214" y="139"/>
		</contour>
	</outline>
</glyph>
<glyph name="v" format="2">
	<advance width="558"/>
	<unicode hex="0076"/>
	<outline>
		<contour>
			<point x="32" y="590" type="line"/>
			<point x="191" y="0" type="line"/>
			<point x="369" y="0" type="line"/>
			<point x="523" y="590" type="line"/>
			<point x="357" y="590" type="line"/>
			<point x="291" y="200" type="line"/>
			<point x="287" y="100" type="line"/>
			<point x="282" y="100" type="line"/>
			<point x="277" y="200" type="line"/>
			<point x="212" y="590" type="line"/>
		</contour>
	</outline>
</glyph>
<glyph name="w" format="2">
	<advance width="839"/>
	<unicode hex="0077"/>
	<anchor x="422" y="590" name="top"/>
	<anchor x="422" y="0" name="bottom"/>
	<outline>
		<contour>
			<point x="32" y="590" type="line"/>
			<point x="165" y="0" type="line"/>
			<point x="351" y="0" type="line"/>
			<point x="412" y="321" type="line"/>
			<point x="418" y="480" type="line"/>
			<point x="424" y="480" type="line"/>
			<point x="429" y="321" type="line"/>
			<point x="491" y="0" type="line"/>
			<point x="676" y="0" type="line"/>
			<point x="804" y="590" type="line"/>
			<point x="637" y="590" type="line"/>
			<point x="590" y="232" type="line"/>
			<point x="584" y="100" type="line"/>
			<point x="578" y="100" type="line"/>
			<point x="573" y="232" type="line"/>
			<point x="507" y="590" type="line"/>
			<point x="341" y="590" type="line"/>
			<point x="277" y="232" type="line"/>
			<point x="271" y="100" type="line"/>
			<point x="265" y="100" type="line"/>
			<point x="260" y="232" type="line"/>
			<point x="212" y="590" type="line"/>
		</contour>
	</outline>
</glyph>
<glyph name="x" format="2">
	<advance width="556"/>
	<unicode hex="0078"/>
	<outline>
		<contour>
			<point x="32" y="0" type="line"/>
			<point x="195" y="0" type="line"/>
			<point x="265" y="180" type="line"/>
			<point x="271" y="255" type="line"/>
			<point x="276" y="255" type="line"/>
			<point x="283" y="180" type="line"/>
			<point x="346" y="0" type="line"/>
			<point x="521" y="0" type="line"/>
			<point x="383" y="322" type="line"/>
			<point x="495" y="590" type="line"/>
			<point x="334" y="590" type="line"/>
			<point x="287" y="434" type="line"/>
			<point x="281" y="364" type="line"/>
			<point x="276" y="364" type="line"/>
			<point x="270" y="434" type="line"/>
			<point x="222" y="590" type="line"/>
			<point x="47" y="590" type="line"/>
			<point x="167" y="303" type="line"/>
		</contour>
	</outline>
</glyph>
<glyph name="y" format="2">
	<advance width="557"/>
	<unicode hex="0079"/>
	<anchor x="282" y="590" name="top"/>
	<anchor x="266" y="0" name="bottom"/>
	<outline>
		<contour>
			<point x="32" y="590" type="line"/>
			<point x="202" y="0" type="line"/>
			<point x="155" y="-180" type="line"/>
			<point x="328" y="-180" type="line"/>
			<point x="522" y="590" type="line"/>
			<point x="356" y="590" type="line"/>
			<point x="297" y="198" type="line"/>
			<point x="291" y="100" type="line"/>
			<point x="286" y="100" type="line"/>
			<point x="281" y="198" type="line"/>
			<point x="212" y="590" type="line"/>
		</contour>
	</outline>
</glyph>
<glyph name="z" format="2">
	<advance width="491"/>
	<unicode hex="007A"/>
	<anchor x="245" y="590" name="top"/>
	<anchor x="245" y="0" name="bottom"/>
	<outline>
		<contour>
			<point x="40" y="0" type="line"/>
			<point x="451" y="0" type="line"/>
			<point x="451" y="120" type="line"/>
			<point x="210" y="120" type="line"/>
			<point x="210" y="124" type="line"/>
			<point x="240" y="146" type="line"/>
			<point x="435" y="475" type="line"/>
			<point x="435" y="590" type="line"/>
			<point x="52" y="590" type="line"/>
			<point x="52" y="470" type="line"/>
			<point x="266" y="470" type="line"/>
			<point x="266" y="466" type="line"/>
			<point x="235" y="444" type="line"/>
			<point x="40" y="117" type="line"/>
		</contour>
	</outline>
</glyph>
<glyph name="braceleft" format="2">
	<advance width="360"/>
	<unicode hex="007B"/>
	<outline>
		<contour>
			<point x="25" y="265" type="line"/>
			<point x="45" y="265" type="line" smooth="yes"/>
			<point x="80" y="265"/>
			<point x="100" y="239"/>
			<point x="100" y="195" type="curve" smooth="yes"/>
			<point x="100" y="174"/>
			<point x="99" y="155"/>
			<point x="97" y="143" type="curve" smooth="yes"/>
			<point x="86" y="71" type="line" smooth="yes"/>
			<point x="82" y="45"/>
			<point x="80" y="19"/>
			<point x="80" y="2" type="curve" smooth="yes"/>
			<point x="80" y="-121"/>
			<point x="171" y="-193"/>
			<point x="325" y="-193" type="curve"/>
			<point x="335" y="-76" type="line"/>
			<point x="283" y="-71"/>
			<point x="253" y="-40"/>
			<point x="253" y="7" type="curve" smooth="yes"/>
			<point x="253" y="21"/>
			<point x="255" y="44"/>
			<point x="258" y="68" type="curve" smooth="yes"/>
			<point x="268" y="141" type="line" smooth="yes"/>
			<point x="271" y="164"/>
			<point x="273" y="186"/>
			<point x="273" y="200" type="curve" smooth="yes"/>
			<point x="273" y="261"/>
			<point x="242" y="305"/>
			<point x="190" y="318" type="curve"/>
			<point x="190" y="322" type="line"/>
			<point x="242" y="335"/>
			<point x="273" y="379"/>
			<point x="273" y="440" type="curve" smooth="yes"/>
			<point x="273" y="455"/>
			<point x="271" y="477"/>
			<point x="268" y="500" type="curve" smooth="yes"/>
			<point x="258" y="573" type="line" smooth="yes"/>
			<point x="255" y="597"/>
			<point x="253" y="619"/>
			<point x="253" y="633" type="curve" smooth="yes"/>
			<point x="253" y="680"/>
			<point x="283" y="711"/>
			<point x="335" y="716" type="curve"/>
			<point x="325" y="833" type="line"/>
			<point x="171" y="833"/>
			<point x="80" y="761"/>
			<point x="80" y="638" type="curve" smooth="yes"/>
			<point x="80" y="621"/>
			<point x="82" y="595"/>
			<point x="86" y="570" type="curve" smooth="yes"/>
			<point x="97" y="497" type="line" smooth="yes"/>
			<point x="99" y="485"/>
			<point x="100" y="466"/>
			<point x="100" y="445" type="curve" smooth="yes"/>
			<point x="100" y="401"/>
			<point x="80" y="375"/>
			<point x="45" y="375" type="curve" smooth="yes"/>
			<point x="25" y="375" type="line"/>
		</contour>
	</outline>
</glyph>
<glyph name="bar" format="2">
	<advance width="249"/>
	<unicode hex="007C"/>
	<outline>
		<contour>
			<point x="70" y="820" type="line"/>
			<point x="70" y="-180" type="line"/>
			<point x="180" y="-180" type="line"/>
			<point x="180" y="820" type="line"/>
		</contour>
	</outline>
</glyph>
<glyph name="braceright" format="2">
	<advance width="360"/>
	<unicode hex="007D"/>
	<outline>
		<contour>
			<point x="335" y="265" type="line"/>
			<point x="335" y="375" type="line"/>
			<point x="315" y="375" type="line" smooth="yes"/>
			<point x="281" y="375"/>
			<point x="260" y="401"/>
			<point x="260" y="445" type="curve" smooth="yes"/>
			<point x="260" y="459"/>
			<point x="261" y="478"/>
			<point x="264" y="497" type="curve" smooth="yes"/>
			<point x="274" y="570" type="line" smooth="yes"/>
			<point x="278" y="597"/>
			<point x="280" y="622"/>
			<point x="280" y="638" type="curve" smooth="yes"/>
			<point x="280" y="761"/>
			<point x="189" y="833"/>
			<point x="35" y="833" type="curve"/>
			<point x="25" y="716" type="line"/>
			<point x="77" y="711"/>
			<point x="108" y="680"/>
			<point x="108" y="633" type="curve" smooth="yes"/>
			<point x="108" y="618"/>
			<point x="106" y="596"/>
			<point x="103" y="573" type="curve" smooth="yes"/>
			<point x="92" y="500" type="line" smooth="yes"/>
			<point x="89" y="478"/>
			<point x="88" y="456"/>
			<point x="88" y="440" type="curve" smooth="yes"/>
			<point x="88" y="379"/>
			<point x="119" y="335"/>
			<point x="171" y="322" type="curve"/>
			<point x="171" y="318" type="line"/>
			<point x="119" y="305"/>
			<point x="88" y="261"/>
			<point x="88" y="200" type="curve" smooth="yes"/>
			<point x="88" y="184"/>
			<point x="89" y="163"/>
			<point x="92" y="141" type="curve" smooth="yes"/>
			<point x="103" y="68" type="line" smooth="yes"/>
			<point x="106" y="45"/>
			<point x="108" y="22"/>
			<point x="108" y="7" type="curve" smooth="yes"/>
			<point x="108" y="-40"/>
			<point x="77" y="-71"/>
			<point x="25" y="-76" type="curve"/>
			<point x="35" y="-193" type="line"/>
			<point x="189" y="-193"/>
			<point x="280" y="-121"/>
			<point x="280" y="2" type="curve" smooth="yes"/>
			<point x="280" y="18"/>
			<point x="278" y="43"/>
			<point x="274" y="71" type="curve" smooth="yes"/>
			<point x="264" y="143" type="line" smooth="yes"/>
			<point x="261" y="162"/>
			<point x="260" y="182"/>
			<point x="260" y="195" type="curve" smooth="yes"/>
			<point x="260" y="239"/>
			<point x="281" y="265"/>
			<point x="315" y="265" type="curve" smooth="yes"/>
		</contour>
	</outline>
</glyph>
<glyph name="cent" format="2">
	<advance width="519"/>
	<unicode hex="00A2"/>
	<outline>
		<contour>
			<point x="200" y="-100" type="line"/>
			<point x="320" y="-100" type="line"/>
			<point x="320" y="31" type="line"/>
			<point x="200" y="31" type="line"/>
		</contour>
		<contour>
			<point x="200" y="559" type="line"/>
			<point x="320" y="559" type="line"/>
			<point x="320" y="690" type="line"/>
			<point x="200" y="690" type="line"/>
		</contour>
		<component base="c"/>
	</outline>
</glyph>
<glyph name="sterling" format="2">
	<advance width="626"/>
	<unicode hex="00A3"/>
	<outline>
		<contour>
			<point x="529" y="161" type="line"/>
			<point x="519" y="161" type="line"/>
			<point x="496" y="143"/>
			<point x="465" y="133"/>
			<point x="436" y="133" type="curve" smooth="yes"/>
			<point x="424" y="133"/>
			<point x="398" y="138"/>
			<point x="367" y="146" type="curve" smooth="yes"/>
			<point x="334" y="155" type="line" smooth="yes"/>
			<point x="309" y="162"/>
			<point x="287" y="165"/>
			<point x="276" y="165" type="curve" smooth="yes"/>
			<point x="257" y="165"/>
			<point x="237" y="161"/>
			<point x="223" y="154" type="curve"/>
			<point x="220" y="159" type="line"/>
			<point x="276" y="195"/>
			<point x="309" y="254"/>
			<point x="309" y="318" type="curve" smooth="yes"/>
			<point x="309" y="359"/>
			<point x="302" y="404"/>
			<point x="290" y="437" type="curve" smooth="yes"/>
			<point x="269" y="496" type="line" smooth="yes"/>
			<point x="259" y="524"/>
			<point x="253" y="559"/>
			<point x="253" y="591" type="curve" smooth="yes"/>
			<point x="253" y="632"/>
			<point x="276" y="656"/>
			<point x="315" y="656" type="curve" smooth="yes"/>
			<point x="356" y="656"/>
			<point x="380" y="624"/>
			<point x="380" y="570" type="curve" smooth="yes"/>
			<point x="380" y="548" type="line"/>
			<point x="546" y="555" type="line"/>
			<point x="546" y="574" type="line" smooth="yes"/>
			<point x="546" y="712"/>
			<point x="460" y="793"/>
			<point x="315" y="793" type="curve" smooth="yes"/>
			<point x="166" y="793"/>
			<point x="78" y="718"/>
			<point x="78" y="590" type="curve" smooth="yes"/>
			<point x="78" y="550"/>
			<point x="85" y="504"/>
			<point x="98" y="466" type="curve" smooth="yes"/>
			<point x="117" y="411" type="line" smooth="yes"/>
			<point x="128" y="379"/>
			<point x="134" y="341"/>
			<point x="134" y="308" type="curve" smooth="yes"/>
			<point x="134" y="233"/>
			<point x="101" y="164"/>
			<point x="46" y="120" type="curve"/>
			<point x="95" y="3" type="line"/>
			<point x="101" y="3" type="line"/>
			<point x="132" y="17"/>
			<point x="167" y="25"/>
			<point x="197" y="25" type="curve" smooth="yes"/>
			<point x="226" y="25"/>
			<point x="257" y="21"/>
			<point x="281" y="15" type="curve" smooth="yes"/>
			<point x="323" y="4" type="line" smooth="yes"/>
			<point x="362" y="-6"/>
			<point x="402" y="-13"/>
			<point x="432" y="-13" type="curve" smooth="yes"/>
			<point x="484" y="-13"/>
			<point x="539" y="5"/>
			<point x="580" y="36" type="curve" smooth="yes"/>
			<point x="584" y="39" type="line"/>
		</contour>
		<contour>
			<point x="41" y="318" type="line"/>
			<point x="421" y="318" type="line"/>
			<point x="451" y="418" type="line"/>
			<point x="71" y="418" type="line"/>
		</contour>
	</outline>
</glyph>
<glyph name="currency" format="2">
	<advance width="582"/>
	<unicode hex="00A4"/>
	<outline>
		<contour>
			<point x="231" y="139" type="line"/>
			<point x="136" y="234" type="line"/>
			<point x="17" y="115" type="line"/>
			<point x="112" y="20" type="line"/>
		</contour>
		<contour>
			<point x="112" y="568" type="line"/>
			<point x="17" y="473" type="line"/>
			<point x="136" y="354" type="line"/>
			<point x="231" y="449" type="line"/>
		</contour>
		<contour>
			<point x="291" y="84" type="curve" smooth="yes"/>
			<point x="424" y="84"/>
			<point x="501" y="162"/>
			<point x="501" y="295" type="curve" smooth="yes"/>
			<point x="501" y="427"/>
			<point x="424" y="504"/>
			<point x="291" y="504" type="curve" smooth="yes"/>
			<point x="158" y="504"/>
			<point x="81" y="427"/>
			<point x="81" y="295" type="curve" smooth="yes"/>
			<point x="81" y="162"/>
			<point x="158" y="84"/>
		</contour>
		<contour>
			<point x="291" y="204" type="curve" smooth="yes"/>
			<point x="234" y="204"/>
			<point x="201" y="237"/>
			<point x="201" y="294" type="curve" smooth="yes"/>
			<point x="201" y="351"/>
			<point x="234" y="384"/>
			<point x="291" y="384" type="curve" smooth="yes"/>
			<point x="348" y="384"/>
			<point x="381" y="351"/>
			<point x="381" y="294" type="curve" smooth="yes"/>
			<point x="381" y="237"/>
			<point x="348" y="204"/>
		</contour>
		<contour>
			<point x="446" y="234" type="line"/>
			<point x="351" y="139" type="line"/>
			<point x="470" y="20" type="line"/>
			<point x="565" y="115" type="line"/>
		</contour>
		<contour>
			<point x="565" y="473" type="line"/>
			<point x="470" y="568" type="line"/>
			<point x="351" y="449" type="line"/>
			<point x="446" y="354" type="line"/>
		</contour>
	</outline>
</glyph>
<glyph name="yen" format="2">
	<advance width="659"/>
	<unicode hex="00A5"/>
	<outline>
		<contour>
			<point x="61" y="170" type="line"/>
			<point x="581" y="170" type="line"/>
			<point x="611" y="270" type="line"/>
			<point x="91" y="270" type="line"/>
		</contour>
		<contour>
			<point x="411" y="445" type="line"/>
			<point x="411" y="345" type="line"/>
			<point x="581" y="345" type="line"/>
			<point x="611" y="445" type="line"/>
		</contour>
		<contour>
			<point x="261" y="345" type="line"/>
			<point x="261" y="445" type="line"/>
			<point x="91" y="445" type="line"/>
			<point x="61" y="345" type="line"/>
		</contour>
		<component base="Y"/>
	</outline>
</glyph>
<glyph name="section" format="2">
	<advance width="559"/>
	<unicode hex="00A7"/>
	<outline>
		<contour>
			<point x="490" y="606" type="line"/>
			<point x="490" y="621" type="line" smooth="yes"/>
			<point x="490" y="729"/>
			<point x="411" y="793"/>
			<point x="277" y="793" type="curve" smooth="yes"/>
			<point x="135" y="793"/>
			<point x="51" y="725"/>
			<point x="51" y="610" type="curve" smooth="yes"/>
			<point x="51" y="585"/>
			<point x="57" y="559"/>
			<point x="66" y="538" type="curve" smooth="yes"/>
			<point x="74" y="520"/>
			<point x="88" y="500"/>
			<point x="104" y="484" type="curve" smooth="yes"/>
			<point x="126" y="463" type="line"/>
			<point x="103" y="452"/>
			<point x="81" y="433"/>
			<point x="67" y="412" type="curve" smooth="yes"/>
			<point x="54" y="393"/>
			<point x="46" y="366"/>
			<point x="46" y="340" type="curve" smooth="yes"/>
			<point x="46" y="304"/>
			<point x="60" y="267"/>
			<point x="82" y="239" type="curve" smooth="yes"/>
			<point x="101" y="215"/>
			<point x="148" y="188"/>
			<point x="207" y="167" type="curve" smooth="yes"/>
			<point x="276" y="142" type="line" smooth="yes"/>
			<point x="295" y="135"/>
			<point x="311" y="124"/>
			<point x="321" y="111" type="curve" smooth="yes"/>
			<point x="329" y="100"/>
			<point x="334" y="86"/>
			<point x="334" y="74" type="curve" smooth="yes"/>
			<point x="334" y="67" type="line" smooth="yes"/>
			<point x="334" y="37"/>
			<point x="312" y="20"/>
			<point x="274" y="20" type="curve" smooth="yes"/>
			<point x="233" y="20"/>
			<point x="208" y="43"/>
			<point x="208" y="83" type="curve" smooth="yes"/>
			<point x="208" y="104" type="line"/>
			<point x="41" y="97" type="line"/>
			<point x="41" y="78" type="line" smooth="yes"/>
			<point x="41" y="-42"/>
			<point x="128" y="-113"/>
			<point x="275" y="-113" type="curve" smooth="yes"/>
			<point x="425" y="-113"/>
			<point x="514" y="-44"/>
			<point x="514" y="72" type="curve" smooth="yes"/>
			<point x="514" y="97"/>
			<point x="509" y="124"/>
			<point x="500" y="146" type="curve" smooth="yes"/>
			<point x="490" y="171"/>
			<point x="475" y="194"/>
			<point x="458" y="210" type="curve" smooth="yes"/>
			<point x="440" y="227" type="line"/>
			<point x="463" y="239"/>
			<point x="485" y="258"/>
			<point x="499" y="279" type="curve" smooth="yes"/>
			<point x="512" y="299"/>
			<point x="519" y="324"/>
			<point x="519" y="347" type="curve" smooth="yes"/>
			<point x="519" y="384"/>
			<point x="506" y="423"/>
			<point x="485" y="451" type="curve" smooth="yes"/>
			<point x="467" y="475"/>
			<point x="418" y="504"/>
			<point x="353" y="529" type="curve" smooth="yes"/>
			<point x="284" y="555" type="line" smooth="yes"/>
			<point x="265" y="562"/>
			<point x="249" y="572"/>
			<point x="240" y="582" type="curve" smooth="yes"/>
			<point x="231" y="592"/>
			<point x="226" y="605"/>
			<point x="226" y="618" type="curve" smooth="yes"/>
			<point x="226" y="625" type="line" smooth="yes"/>
			<point x="226" y="648"/>
			<point x="244" y="661"/>
			<point x="275" y="661" type="curve" smooth="yes"/>
			<point x="308" y="661"/>
			<point x="328" y="645"/>
			<point x="328" y="618" type="curve" smooth="yes"/>
			<point x="328" y="599" type="line"/>
		</contour>
		<contour>
			<point x="221" y="360" type="curve" smooth="yes"/>
			<point x="221" y="364" type="line" smooth="yes"/>
			<point x="221" y="385"/>
			<point x="228" y="405"/>
			<point x="241" y="417" type="curve"/>
			<point x="250" y="412"/>
			<point x="261" y="407"/>
			<point x="271" y="403" type="curve" smooth="yes"/>
			<point x="287" y="397" type="line" smooth="yes"/>
			<point x="320" y="385"/>
			<point x="339" y="362"/>
			<point x="339" y="336" type="curve" smooth="yes"/>
			<point x="339" y="332" type="line" smooth="yes"/>
			<point x="339" y="312"/>
			<point x="331" y="291"/>
			<point x="318" y="279" type="curve"/>
			<point x="310" y="284"/>
			<point x="300" y="288"/>
			<point x="289" y="292" type="curve" smooth="yes"/>
			<point x="272" y="298" type="line" smooth="yes"/>
			<point x="240" y="309"/>
			<point x="221" y="332"/>
		</contour>
	</outline>
</glyph>
<glyph name="copyright" format="2">
	<advance width="899"/>
	<unicode hex="00A9"/>
	<outline>
		<contour>
			<point x="450" y="800" type="curve" smooth="yes"/>
			<point x="229" y="800"/>
			<point x="50" y="621"/>
			<point x="50" y="400" type="curve" smooth="yes"/>
			<point x="50" y="179"/>
			<point x="229" y="0"/>
			<point x="450" y="0" type="curve" smooth="yes"/>
			<point x="673" y="0"/>
			<point x="850" y="179"/>
			<point x="850" y="400" type="curve" smooth="yes"/>
			<point x="850" y="621"/>
			<point x="671" y="800"/>
		</contour>
		<contour>
			<point x="450" y="720" type="curve" smooth="yes"/>
			<point x="627" y="720"/>
			<point x="770" y="578"/>
			<point x="770" y="400" type="curve" smooth="yes"/>
			<point x="770" y="223"/>
			<point x="627" y="80"/>
			<point x="450" y="80" type="curve" smooth="yes"/>
			<point x="272" y="80"/>
			<point x="130" y="223"/>
			<point x="130" y="400" type="curve" smooth="yes"/>
			<point x="130" y="578"/>
			<point x="272" y="720"/>
		</contour>
		<contour>
			<point x="622" y="354" type="line"/>
			<point x="500" y="358" type="line"/>
			<point x="500" y="344" type="line" smooth="yes"/>
			<point x="500" y="303"/>
			<point x="482" y="278"/>
			<point x="451" y="278" type="curve" smooth="yes"/>
			<point x="420" y="278"/>
			<point x="401" y="301"/>
			<point x="401" y="340" type="curve" smooth="yes"/>
			<point x="401" y="460" type="line" smooth="yes"/>
			<point x="401" y="498"/>
			<point x="419" y="521"/>
			<point x="450" y="521" type="curve" smooth="yes"/>
			<point x="481" y="521"/>
			<point x="499" y="498"/>
			<point x="499" y="459" type="curve" smooth="yes"/>
			<point x="499" y="445" type="line"/>
			<point x="622" y="448" type="line"/>
			<point x="622" y="466" type="line" smooth="yes"/>
			<point x="622" y="564"/>
			<point x="558" y="622"/>
			<point x="450" y="622" type="curve" smooth="yes"/>
			<point x="343" y="622"/>
			<point x="280" y="564"/>
			<point x="280" y="465" type="curve" smooth="yes"/>
			<point x="280" y="340" type="line" smooth="yes"/>
			<point x="280" y="237"/>
			<point x="343" y="176"/>
			<point x="450" y="176" type="curve" smooth="yes"/>
			<point x="558" y="176"/>
			<point x="622" y="235"/>
			<point x="622" y="334" type="curve" smooth="yes"/>
		</contour>
	</outline>
</glyph>
<glyph name="ordfeminine" format="2">
	<advance width="350"/>
	<unicode hex="00AA"/>
	<outline>
		<contour>
			<point x="47" y="689" type="line"/>
			<point x="141" y="688" type="line"/>
			<point x="141" y="700" type="line" smooth="yes"/>
			<point x="141" y="723"/>
			<point x="153" y="736"/>
			<point x="172" y="736" type="curve" smooth="yes"/>
			<point x="191" y="736"/>
			<point x="203" y="723"/>
			<point x="203" y="701" type="curve" smooth="yes"/>
			<point x="203" y="502" type="line" smooth="yes"/>
			<point x="203" y="478"/>
			<point x="207" y="457"/>
			<point x="213" y="445" type="curve"/>
			<point x="312" y="445" type="line"/>
			<point x="313" y="447" type="line"/>
			<point x="306" y="465"/>
			<point x="302" y="488"/>
			<point x="302" y="508" type="curve" smooth="yes"/>
			<point x="302" y="690" type="line" smooth="yes"/>
			<point x="302" y="767"/>
			<point x="256" y="809"/>
			<point x="175" y="809" type="curve" smooth="yes"/>
			<point x="95" y="809"/>
			<point x="47" y="771"/>
			<point x="47" y="701" type="curve" smooth="yes"/>
		</contour>
		<contour>
			<point x="221" y="555" type="line"/>
			<point x="203" y="555" type="line"/>
			<point x="203" y="526"/>
			<point x="188" y="510"/>
			<point x="163" y="510" type="curve" smooth="yes"/>
			<point x="145" y="510"/>
			<point x="135" y="520"/>
			<point x="135" y="537" type="curve" smooth="yes"/>
			<point x="135" y="563" type="line" smooth="yes"/>
			<point x="135" y="583"/>
			<point x="145" y="600"/>
			<point x="167" y="605" type="curve" smooth="yes"/>
			<point x="222" y="617" type="line"/>
			<point x="222" y="676" type="line"/>
			<point x="131" y="651" type="line" smooth="yes"/>
			<point x="68" y="634"/>
			<point x="33" y="600"/>
			<point x="33" y="551" type="curve" smooth="yes"/>
			<point x="33" y="531" type="line" smooth="yes"/>
			<point x="33" y="470"/>
			<point x="66" y="437"/>
			<point x="125" y="437" type="curve" smooth="yes"/>
			<point x="174" y="437"/>
			<point x="210" y="471"/>
			<point x="221" y="529" type="curve"/>
		</contour>
		<contour>
			<point x="57" y="381" type="line"/>
			<point x="57" y="309" type="line"/>
			<point x="293" y="309" type="line"/>
			<point x="293" y="381" type="line"/>
		</contour>
	</outline>
</glyph>
<glyph name="registered" format="2">
	<advance width="530"/>
	<unicode hex="00AE"/>
	<outline>
		<contour>
			<point x="265" y="349" type="curve" smooth="yes"/>
			<point x="392" y="349"/>
			<point x="495" y="452"/>
			<point x="495" y="579" type="curve" smooth="yes"/>
			<point x="495" y="706"/>
			<point x="392" y="809"/>
			<point x="265" y="809" type="curve" smooth="yes"/>
			<point x="138" y="809"/>
			<point x="35" y="706"/>
			<point x="35" y="579" type="curve" smooth="yes"/>
			<point x="35" y="452"/>
			<point x="138" y="349"/>
		</contour>
		<contour>
			<point x="265" y="402" type="curve" smooth="yes"/>
			<point x="168" y="402"/>
			<point x="88" y="482"/>
			<point x="88" y="579" type="curve" smooth="yes"/>
			<point x="88" y="677"/>
			<point x="168" y="757"/>
			<point x="265" y="757" type="curve" smooth="yes"/>
			<point x="363" y="757"/>
			<point x="443" y="677"/>
			<point x="443" y="579" type="curve" smooth="yes"/>
			<point x="443" y="482"/>
			<point x="363" y="402"/>
		</contour>
		<contour>
			<point x="183" y="466" type="line"/>
			<point x="249" y="466" type="line"/>
			<point x="249" y="539" type="line"/>
			<point x="278" y="539" type="line"/>
			<point x="297" y="466" type="line"/>
			<point x="366" y="466" type="line"/>
			<point x="345" y="533" type="line" smooth="yes"/>
			<point x="341" y="545"/>
			<point x="334" y="555"/>
			<point x="321" y="559" type="curve"/>
			<point x="321" y="563" type="line"/>
			<point x="343" y="570"/>
			<point x="356" y="589"/>
			<point x="356" y="614" type="curve" smooth="yes"/>
			<point x="356" y="631" type="line" smooth="yes"/>
			<point x="356" y="676"/>
			<point x="327" y="700"/>
			<point x="272" y="700" type="curve" smooth="yes"/>
			<point x="183" y="700" type="line"/>
		</contour>
		<contour>
			<point x="249" y="593" type="line"/>
			<point x="249" y="645" type="line"/>
			<point x="271" y="645" type="line" smooth="yes"/>
			<point x="283" y="645"/>
			<point x="289" y="639"/>
			<point x="289" y="628" type="curve" smooth="yes"/>
			<point x="289" y="609" type="line" smooth="yes"/>
			<point x="289" y="598"/>
			<point x="283" y="593"/>
			<point x="271" y="593" type="curve" smooth="yes"/>
		</contour>
	</outline>
</glyph>
<glyph name="degree" format="2">
	<advance width="320"/>
	<unicode hex="00B0"/>
	<outline>
		<contour>
			<point x="160" y="457" type="curve" smooth="yes"/>
			<point x="235" y="457"/>
			<point x="295" y="518"/>
			<point x="295" y="592" type="curve" smooth="yes"/>
			<point x="295" y="667"/>
			<point x="235" y="727"/>
			<point x="160" y="727" type="curve" smooth="yes"/>
			<point x="86" y="727"/>
			<point x="25" y="667"/>
			<point x="25" y="592" type="curve" smooth="yes"/>
			<point x="25" y="518"/>
			<point x="86" y="457"/>
		</contour>
		<contour>
			<point x="160" y="535" type="curve" smooth="yes"/>
			<point x="130" y="535"/>
			<point x="103" y="562"/>
			<point x="103" y="592" type="curve" smooth="yes"/>
			<point x="103" y="624"/>
			<point x="130" y="650"/>
			<point x="160" y="650" type="curve" smooth="yes"/>
			<point x="192" y="650"/>
			<point x="218" y="624"/>
			<point x="218" y="592" type="curve" smooth="yes"/>
			<point x="218" y="562"/>
			<point x="192" y="535"/>
		</contour>
	</outline>
</glyph>
<glyph name="paragraph" format="2">
	<advance width="633"/>
	<unicode hex="00B6"/>
	<outline>
		<contour>
			<point x="404" y="0" type="line"/>
			<point x="404" y="800" type="line"/>
			<point x="292" y="800" type="line" smooth="yes"/>
			<point x="135" y="800"/>
			<point x="50" y="727"/>
			<point x="50" y="589" type="curve" smooth="yes"/>
			<point x="50" y="510" type="line" smooth="yes"/>
			<point x="50" y="374"/>
			<point x="135" y="300"/>
			<point x="294" y="300" type="curve"/>
			<point x="294" y="0" type="line"/>
		</contour>
		<contour>
			<point x="454" y="800" type="line"/>
			<point x="454" y="0" type="line"/>
			<point x="564" y="0" type="line"/>
			<point x="564" y="800" type="line"/>
		</contour>
	</outline>
</glyph>
<glyph name="ordmasculine" format="2">
	<advance width="353"/>
	<unicode hex="00BA"/>
	<outline>
		<contour>
			<point x="33" y="584" type="line" smooth="yes"/>
			<point x="33" y="491"/>
			<point x="84" y="439"/>
			<point x="172" y="439" type="curve" smooth="yes"/>
			<point x="260" y="439"/>
			<point x="311" y="490"/>
			<point x="311" y="584" type="curve" smooth="yes"/>
			<point x="311" y="665" type="line" smooth="yes"/>
			<point x="311" y="758"/>
			<point x="260" y="810"/>
			<point x="172" y="810" type="curve" smooth="yes"/>
			<point x="84" y="810"/>
			<point x="33" y="759"/>
			<point x="33" y="665" type="curve" smooth="yes"/>
		</contour>
		<contour>
			<point x="133" y="570" type="curve" smooth="yes"/>
			<point x="133" y="676" type="line" smooth="yes"/>
			<point x="133" y="715"/>
			<point x="147" y="738"/>
			<point x="171" y="738" type="curve" smooth="yes"/>
			<point x="197" y="738"/>
			<point x="211" y="716"/>
			<point x="211" y="679" type="curve" smooth="yes"/>
			<point x="211" y="573" type="line" smooth="yes"/>
			<point x="211" y="534"/>
			<point x="197" y="511"/>
			<point x="172" y="511" type="curve" smooth="yes"/>
			<point x="147" y="511"/>
			<point x="133" y="533"/>
		</contour>
		<contour>
			<point x="64" y="381" type="line"/>
			<point x="64" y="309" type="line"/>
			<point x="280" y="309" type="line"/>
			<point x="280" y="381" type="line"/>
		</contour>
	</outline>
</glyph>
<glyph name="AE" format="2">
	<advance width="876"/>
	<unicode hex="00C6"/>
	<outline>
		<contour>
			<point x="35" y="0" type="line"/>
			<point x="211" y="0" type="line"/>
			<point x="349" y="652" type="line"/>
			<point x="388" y="652" type="line"/>
			<point x="388" y="0" type="line"/>
			<point x="833" y="0" type="line"/>
			<point x="833" y="148" type="line"/>
			<point x="563" y="148" type="line"/>
			<point x="563" y="360" type="line"/>
			<point x="783" y="360" type="line"/>
			<point x="783" y="508" type="line"/>
			<point x="563" y="508" type="line"/>
			<point x="563" y="652" type="line"/>
			<point x="813" y="652" type="line"/>
			<point x="813" y="800" type="line"/>
			<point x="219" y="800" type="line"/>
		</contour>
		<contour>
			<point x="161" y="273" type="line"/>
			<point x="161" y="125" type="line"/>
			<point x="541" y="125" type="line"/>
			<point x="541" y="273" type="line"/>
		</contour>
	</outline>
</glyph>
<glyph name="Eth" format="2">
	<advance width="670"/>
	<unicode hex="00D0"/>
	<outline>
		<contour>
			<point x="46" y="478" type="line"/>
			<point x="16" y="363" type="line"/>
			<point x="318" y="363" type="line"/>
			<point x="348" y="478" type="line"/>
		</contour>
		<component base="D" xOffset="10"/>
	</outline>
</glyph>
<glyph name="Oslash" format="2">
	<advance width="650"/>
	<unicode hex="00D8"/>
	<outline>
		<contour>
			<point x="668" y="538" type="line"/>
			<point x="668" y="652" type="line"/>
			<point x="8" y="274" type="line"/>
			<point x="8" y="159" type="line"/>
		</contour>
		<component base="O" xOffset="3"/>
	</outline>
</glyph>
<glyph name="Thorn" format="2">
	<advance width="619"/>
	<unicode hex="00DE"/>
	<outline>
		<contour>
			<point x="70" y="0" type="line"/>
			<point x="245" y="0" type="line"/>
			<point x="245" y="165" type="line"/>
			<point x="322" y="165" type="line" smooth="yes"/>
			<point x="478" y="165"/>
			<point x="570" y="250"/>
			<point x="570" y="395" type="curve" smooth="yes"/>
			<point x="570" y="419" type="line" smooth="yes"/>
			<point x="570" y="564"/>
			<point x="478" y="650"/>
			<point x="323" y="650" type="curve" smooth="yes"/>
			<point x="245" y="650" type="line"/>
			<point x="245" y="800" type="line"/>
			<point x="70" y="800" type="line"/>
		</contour>
		<contour>
			<point x="245" y="313" type="line"/>
			<point x="245" y="503" type="line"/>
			<point x="317" y="503" type="line" smooth="yes"/>
			<point x="365" y="503"/>
			<point x="393" y="472"/>
			<point x="393" y="419" type="curve" smooth="yes"/>
			<point x="393" y="397" type="line" smooth="yes"/>
			<point x="393" y="344"/>
			<point x="365" y="313"/>
			<point x="317" y="313" type="curve" smooth="yes"/>
		</contour>
	</outline>
</glyph>
<glyph name="germandbls" format="2">
	<advance width="571"/>
	<unicode hex="00DF"/>
	<outline>
		<contour>
			<point x="326" y="-11" type="curve" smooth="yes"/>
			<point x="461" y="-11"/>
			<point x="536" y="63"/>
			<point x="536" y="196" type="curve" smooth="yes"/>
			<point x="536" y="299" type="line" smooth="yes"/>
			<point x="536" y="394"/>
			<point x="479" y="455"/>
			<point x="376" y="468" type="curve"/>
			<point x="376" y="472" type="line"/>
			<point x="464" y="479"/>
			<point x="512" y="526"/>
			<point x="512" y="604" type="curve" smooth="yes"/>
			<point x="512" y="639" type="line" smooth="yes"/>
			<point x="512" y="761"/>
			<point x="430" y="833"/>
			<point x="290" y="833" type="curve" smooth="yes"/>
			<point x="133" y="833"/>
			<point x="48" y="760"/>
			<point x="48" y="623" type="curve" smooth="yes"/>
			<point x="48" y="-60" type="line"/>
			<point x="213" y="-60" type="line"/>
			<point x="213" y="633" type="line" smooth="yes"/>
			<point x="213" y="683"/>
			<point x="239" y="713"/>
			<point x="284" y="713" type="curve" smooth="yes"/>
			<point x="327" y="713"/>
			<point x="352" y="687"/>
			<point x="352" y="644" type="curve" smooth="yes"/>
			<point x="352" y="587" type="line" smooth="yes"/>
			<point x="352" y="549"/>
			<point x="332" y="528"/>
			<point x="296" y="528" type="curve" smooth="yes"/>
			<point x="266" y="528" type="line"/>
			<point x="266" y="408" type="line"/>
			<point x="293" y="408" type="line" smooth="yes"/>
			<point x="343" y="408"/>
			<point x="371" y="377"/>
			<point x="371" y="322" type="curve" smooth="yes"/>
			<point x="371" y="189" type="line" smooth="yes"/>
			<point x="371" y="140"/>
			<point x="347" y="112"/>
			<point x="303" y="112" type="curve" smooth="yes"/>
			<point x="284" y="112"/>
			<point x="265" y="115"/>
			<point x="251" y="120" type="curve"/>
			<point x="251" y="0" type="line"/>
			<point x="271" y="-7"/>
			<point x="299" y="-11"/>
		</contour>
	</outline>
</glyph>
<glyph name="ae" format="2">
	<advance width="805"/>
	<unicode hex="00E6"/>
	<outline>
		<contour>
			<point x="33" y="153" type="line" smooth="yes"/>
			<point x="33" y="49"/>
			<point x="95" y="-13"/>
			<point x="200" y="-13" type="curve" smooth="yes"/>
			<point x="295" y="-13"/>
			<point x="367" y="43"/>
			<point x="394" y="139" type="curve"/>
			<point x="394" y="232" type="line"/>
			<point x="314" y="232" type="line"/>
			<point x="314" y="180" type="line"/>
			<point x="314" y="134"/>
			<point x="293" y="107"/>
			<point x="257" y="107" type="curve" smooth="yes"/>
			<point x="222" y="107"/>
			<point x="202" y="130"/>
			<point x="202" y="170" type="curve" smooth="yes"/>
			<point x="202" y="175" type="line" smooth="yes"/>
			<point x="202" y="222"/>
			<point x="230" y="258"/>
			<point x="278" y="270" type="curve" smooth="yes"/>
			<point x="347" y="287" type="line"/>
			<point x="347" y="384" type="line"/>
			<point x="213" y="347" type="line" smooth="yes"/>
			<point x="100" y="316"/>
			<point x="33" y="248"/>
			<point x="33" y="165" type="curve" smooth="yes"/>
		</contour>
		<contour>
			<point x="53" y="405" type="line"/>
			<point x="218" y="403" type="line"/>
			<point x="218" y="420" type="line" smooth="yes"/>
			<point x="218" y="460"/>
			<point x="236" y="483"/>
			<point x="267" y="483" type="curve" smooth="yes"/>
			<point x="297" y="483"/>
			<point x="314" y="461"/>
			<point x="314" y="424" type="curve" smooth="yes"/>
			<point x="314" y="248" type="line" smooth="yes"/>
			<point x="314" y="84"/>
			<point x="399" y="-13"/>
			<point x="542" y="-13" type="curve" smooth="yes"/>
			<point x="678" y="-13"/>
			<point x="758" y="61"/>
			<point x="758" y="187" type="curve" smooth="yes"/>
			<point x="758" y="203" type="line"/>
			<point x="604" y="206" type="line"/>
			<point x="604" y="190" type="line" smooth="yes"/>
			<point x="604" y="138"/>
			<point x="582" y="107"/>
			<point x="545" y="107" type="curve" smooth="yes"/>
			<point x="504" y="107"/>
			<point x="480" y="138"/>
			<point x="480" y="191" type="curve" smooth="yes"/>
			<point x="480" y="396" type="line" smooth="yes"/>
			<point x="480" y="451"/>
			<point x="505" y="483"/>
			<point x="546" y="483" type="curve" smooth="yes"/>
			<point x="582" y="483"/>
			<point x="603" y="453"/>
			<point x="603" y="402" type="curve" smooth="yes"/>
			<point x="603" y="311" type="line"/>
			<point x="656" y="370" type="line"/>
			<point x="431" y="370" type="line"/>
			<point x="431" y="270" type="line"/>
			<point x="763" y="270" type="line"/>
			<point x="763" y="355" type="line" smooth="yes"/>
			<point x="763" y="511"/>
			<point x="688" y="603"/>
			<point x="562" y="603" type="curve" smooth="yes"/>
			<point x="484" y="603"/>
			<point x="427" y="569"/>
			<point x="407" y="511" type="curve"/>
			<point x="402" y="511" type="line"/>
			<point x="383" y="569"/>
			<point x="326" y="603"/>
			<point x="248" y="603" type="curve" smooth="yes"/>
			<point x="129" y="603"/>
			<point x="53" y="537"/>
			<point x="53" y="425" type="curve" smooth="yes"/>
		</contour>
	</outline>
</glyph>
<glyph name="eth" format="2">
	<advance width="567"/>
	<unicode hex="00F0"/>
	<outline>
		<contour>
			<point x="33" y="381" type="curve" smooth="yes"/>
			<point x="33" y="218" type="line" smooth="yes"/>
			<point x="33" y="73"/>
			<point x="118" y="-13"/>
			<point x="261" y="-13" type="curve" smooth="yes"/>
			<point x="404" y="-13"/>
			<point x="488" y="77"/>
			<point x="488" y="228" type="curve" smooth="yes"/>
			<point x="488" y="542" type="line" smooth="yes"/>
			<point x="488" y="599"/>
			<point x="477" y="655"/>
			<point x="456" y="708" type="curve" smooth="yes"/>
			<point x="414" y="820" type="line"/>
			<point x="240" y="820" type="line"/>
			<point x="307" y="636" type="line" smooth="yes"/>
			<point x="317" y="609"/>
			<point x="323" y="575"/>
			<point x="323" y="542" type="curve" smooth="yes"/>
			<point x="323" y="220" type="line" smooth="yes"/>
			<point x="323" y="149"/>
			<point x="299" y="107"/>
			<point x="259" y="107" type="curve" smooth="yes"/>
			<point x="221" y="107"/>
			<point x="199" y="143"/>
			<point x="199" y="205" type="curve" smooth="yes"/>
			<point x="199" y="373" type="line" smooth="yes"/>
			<point x="199" y="440"/>
			<point x="223" y="478"/>
			<point x="264" y="478" type="curve" smooth="yes"/>
			<point x="302" y="478"/>
			<point x="323" y="443"/>
			<point x="323" y="383" type="curve"/>
			<point x="338" y="383" type="line"/>
			<point x="338" y="482" type="line"/>
			<point x="318" y="561"/>
			<point x="266" y="603"/>
			<point x="191" y="603" type="curve" smooth="yes"/>
			<point x="89" y="603"/>
			<point x="33" y="524"/>
		</contour>
		<contour>
			<point x="196" y="632" type="line"/>
			<point x="525" y="683" type="line"/>
			<point x="525" y="789" type="line"/>
			<point x="196" y="738" type="line"/>
		</contour>
	</outline>
</glyph>
<glyph name="oslash" format="2">
	<advance width="546"/>
	<unicode hex="00F8"/>
	<outline>
		<contour>
			<point x="-6" y="157" type="line"/>
			<point x="546" y="322" type="line"/>
			<point x="546" y="437" type="line"/>
			<point x="-6" y="272" type="line"/>
		</contour>
		<component base="o"/>
	</outline>
</glyph>
<glyph name="dcroat" format="2">
	<advance width="534"/>
	<unicode hex="0111"/>
	<outline>
		<contour>
			<point x="205" y="645" type="line"/>
			<point x="530" y="645" type="line"/>
			<point x="560" y="750" type="line"/>
			<point x="235" y="750" type="line"/>
		</contour>
		<component base="d"/>
	</outline>
</glyph>
<glyph name="hbar" format="2">
	<advance width="548"/>
	<unicode hex="0127"/>
	<outline>
		<contour>
			<point x="-16" y="655" type="line"/>
			<point x="289" y="655" type="line"/>
			<point x="319" y="760" type="line"/>
			<point x="14" y="760" type="line"/>
		</contour>
		<component base="h" xOffset="4"/>
	</outline>
</glyph>
<glyph name="idotless" format="2">
	<advance width="266"/>
	<unicode hex="0131"/>
	<anchor x="213" y="10" name="ogonek"/>
	<anchor x="130" y="0" name="bottom"/>
	<anchor x="130" y="590" name="top"/>
	<outline>
		<contour>
			<point x="48" y="590" type="line"/>
			<point x="48" y="0" type="line"/>
			<point x="213" y="0" type="line"/>
			<point x="213" y="590" type="line"/>
		</contour>
	</outline>
</glyph>
<glyph name="Lslash" format="2">
	<advance width="568"/>
	<unicode hex="0141"/>
	<outline>
		<contour>
			<point x="28" y="327" type="line"/>
			<point x="357" y="418" type="line"/>
			<point x="357" y="527" type="line"/>
			<point x="28" y="436" type="line"/>
		</contour>
		<component base="L" xOffset="25"/>
	</outline>
</glyph>
<glyph name="lslash" format="2">
	<advance width="290"/>
	<unicode hex="0142"/>
	<outline>
		<contour>
			<point x="-19" y="277" type="line"/>
			<point x="296" y="368" type="line"/>
			<point x="296" y="477" type="line"/>
			<point x="-19" y="386" type="line"/>
		</contour>
		<component base="l" xOffset="8"/>
	</outline>
</glyph>
<glyph name="Eng" format="2">
	<advance width="694"/>
	<unicode hex="014A"/>
	<outline>
		<contour>
			<point x="625" y="48" type="line"/>
			<point x="453" y="48" type="line"/>
			<point x="453" y="10" type="line" smooth="yes"/>
			<point x="453" y="-23"/>
			<point x="424" y="-41"/>
			<point x="372" y="-41" type="curve" smooth="yes"/>
			<point x="352" y="-41"/>
			<point x="330" y="-36"/>
			<point x="313" y="-29" type="curve"/>
			<point x="313" y="-175" type="line"/>
			<point x="345" y="-187"/>
			<point x="385" y="-193"/>
			<point x="426" y="-193" type="curve" smooth="yes"/>
			<point x="554" y="-193"/>
			<point x="625" y="-135"/>
			<point x="625" y="-29" type="curve" smooth="yes"/>
		</contour>
		<component base="N"/>
	</outline>
</glyph>
<glyph name="eng" format="2">
	<advance width="546"/>
	<unicode hex="014B"/>
	<outline>
		<contour>
			<point x="493" y="100" type="line"/>
			<point x="327" y="100" type="line"/>
			<point x="327" y="-20" type="line" smooth="yes"/>
			<point x="327" y="-47"/>
			<point x="313" y="-63"/>
			<point x="285" y="-63" type="curve" smooth="yes"/>
			<point x="271" y="-63"/>
			<point x="255" y="-61"/>
			<point x="243" y="-59" type="curve"/>
			<point x="243" y="-180" type="line"/>
			<point x="274" y="-185"/>
			<point x="306" y="-188"/>
			<point x="336" y="-188" type="curve" smooth="yes"/>
			<point x="438" y="-188"/>
			<point x="493" y="-132"/>
			<point x="493" y="-27" type="curve" smooth="yes"/>
		</contour>
		<component base="n"/>
	</outline>
</glyph>
<glyph name="OE" format="2">
	<advance width="926"/>
	<unicode hex="0152"/>
	<outline>
		<contour>
			<point x="50" y="260" type="line" smooth="yes"/>
			<point x="50" y="88"/>
			<point x="143" y="-13"/>
			<point x="301" y="-13" type="curve" smooth="yes"/>
			<point x="374" y="-13"/>
			<point x="431" y="11"/>
			<point x="454" y="52" type="curve"/>
			<point x="458" y="52" type="line"/>
			<point x="458" y="0" type="line"/>
			<point x="883" y="0" type="line"/>
			<point x="883" y="148" type="line"/>
			<point x="613" y="148" type="line"/>
			<point x="613" y="360" type="line"/>
			<point x="833" y="360" type="line"/>
			<point x="833" y="508" type="line"/>
			<point x="613" y="508" type="line"/>
			<point x="613" y="653" type="line"/>
			<point x="863" y="653" type="line"/>
			<point x="863" y="800" type="line"/>
			<point x="458" y="800" type="line"/>
			<point x="458" y="748" type="line"/>
			<point x="454" y="748" type="line"/>
			<point x="431" y="789"/>
			<point x="374" y="813"/>
			<point x="301" y="813" type="curve" smooth="yes"/>
			<point x="143" y="813"/>
			<point x="50" y="712"/>
			<point x="50" y="542" type="curve" smooth="yes"/>
		</contour>
		<contour>
			<point x="227" y="256" type="curve" smooth="yes"/>
			<point x="227" y="540" type="line" smooth="yes"/>
			<point x="227" y="619"/>
			<point x="265" y="666"/>
			<point x="330" y="666" type="curve" smooth="yes"/>
			<point x="396" y="666"/>
			<point x="435" y="621"/>
			<point x="435" y="545" type="curve" smooth="yes"/>
			<point x="435" y="261" type="line" smooth="yes"/>
			<point x="435" y="182"/>
			<point x="397" y="135"/>
			<point x="332" y="135" type="curve" smooth="yes"/>
			<point x="266" y="135"/>
			<point x="227" y="180"/>
		</contour>
	</outline>
</glyph>
<glyph name="oe" format="2">
	<advance width="819"/>
	<unicode hex="0153"/>
	<outline>
		<contour>
			<point x="33" y="208" type="line" smooth="yes"/>
			<point x="33" y="69"/>
			<point x="112" y="-13"/>
			<point x="246" y="-13" type="curve" smooth="yes"/>
			<point x="332" y="-13"/>
			<point x="392" y="23"/>
			<point x="409" y="85" type="curve"/>
			<point x="414" y="85" type="line"/>
			<point x="431" y="23"/>
			<point x="491" y="-13"/>
			<point x="576" y="-13" type="curve" smooth="yes"/>
			<point x="699" y="-13"/>
			<point x="772" y="58"/>
			<point x="772" y="177" type="curve" smooth="yes"/>
			<point x="772" y="203" type="line"/>
			<point x="618" y="206" type="line"/>
			<point x="618" y="180" type="line" smooth="yes"/>
			<point x="618" y="134"/>
			<point x="597" y="107"/>
			<point x="562" y="107" type="curve" smooth="yes"/>
			<point x="519" y="107"/>
			<point x="494" y="138"/>
			<point x="494" y="191" type="curve" smooth="yes"/>
			<point x="494" y="396" type="line" smooth="yes"/>
			<point x="494" y="451"/>
			<point x="519" y="483"/>
			<point x="560" y="483" type="curve" smooth="yes"/>
			<point x="596" y="483"/>
			<point x="617" y="453"/>
			<point x="617" y="402" type="curve" smooth="yes"/>
			<point x="617" y="311" type="line"/>
			<point x="670" y="370" type="line"/>
			<point x="450" y="370" type="line"/>
			<point x="450" y="270" type="line"/>
			<point x="777" y="270" type="line"/>
			<point x="777" y="395" type="line" smooth="yes"/>
			<point x="777" y="526"/>
			<point x="703" y="603"/>
			<point x="579" y="603" type="curve" smooth="yes"/>
			<point x="487" y="603"/>
			<point x="426" y="565"/>
			<point x="414" y="500" type="curve"/>
			<point x="409" y="500" type="line"/>
			<point x="396" y="565"/>
			<point x="336" y="603"/>
			<point x="246" y="603" type="curve" smooth="yes"/>
			<point x="112" y="603"/>
			<point x="33" y="521"/>
			<point x="33" y="383" type="curve" smooth="yes"/>
		</contour>
		<contour>
			<point x="199" y="195" type="curve" smooth="yes"/>
			<point x="199" y="391" type="line" smooth="yes"/>
			<point x="199" y="449"/>
			<point x="223" y="483"/>
			<point x="263" y="483" type="curve" smooth="yes"/>
			<point x="304" y="483"/>
			<point x="328" y="447"/>
			<point x="328" y="386" type="curve" smooth="yes"/>
			<point x="328" y="210" type="line" smooth="yes"/>
			<point x="328" y="145"/>
			<point x="305" y="107"/>
			<point x="265" y="107" type="curve" smooth="yes"/>
			<point x="224" y="107"/>
			<point x="199" y="140"/>
		</contour>
	</outline>
</glyph>
<glyph name="Tbar" format="2">
	<advance width="553"/>
	<unicode hex="0166"/>
	<outline>
		<contour>
			<point x="99" y="495" type="line"/>
			<point x="69" y="380" type="line"/>
			<point x="477" y="380" type="line"/>
			<point x="507" y="495" type="line"/>
		</contour>
		<component base="T"/>
	</outline>
</glyph>
<glyph name="tbar" format="2">
	<advance width="422"/>
	<unicode hex="0167"/>
	<outline>
		<contour>
			<point x="29" y="265" type="line"/>
			<point x="334" y="265" type="line"/>
			<point x="364" y="370" type="line"/>
			<point x="59" y="370" type="line"/>
		</contour>
		<component base="t" xOffset="22"/>
	</outline>
</glyph>
<glyph name="jdotless" format="2">
	<advance width="270"/>
	<unicode hex="0237"/>
	<anchor x="135" y="590" name="top"/>
	<anchor x="135" y="-180" name="bottom"/>
	<outline>
		<contour>
			<point x="217" y="-27" type="curve" smooth="yes"/>
			<point x="217" y="590" type="line"/>
			<point x="52" y="590" type="line"/>
			<point x="52" y="-20" type="line" smooth="yes"/>
			<point x="52" y="-47"/>
			<point x="37" y="-63"/>
			<point x="9" y="-63" type="curve" smooth="yes"/>
			<point x="-6" y="-63"/>
			<point x="-21" y="-61"/>
			<point x="-33" y="-59" type="curve"/>
			<point x="-33" y="-180" type="line"/>
			<point x="-3" y="-185"/>
			<point x="30" y="-188"/>
			<point x="60" y="-188" type="curve" smooth="yes"/>
			<point x="162" y="-188"/>
			<point x="217" y="-132"/>
		</contour>
	</outline>
</glyph>
<glyph name="gravecomb" format="2">
	<advance width="183"/>
	<unicode hex="0300"/>
	<anchor x="93" y="790" name="top"/>
	<anchor x="101" y="590" name="_top"/>
	<outline>
		<contour>
			<point x="140" y="780" type="line"/>
			<point x="-21" y="780" type="line"/>
			<point x="91" y="650" type="line"/>
			<point x="184" y="650" type="line"/>
		</contour>
	</outline>
</glyph>
<glyph name="acutecomb" format="2">
	<advance width="183"/>
	<unicode hex="0301"/>
	<anchor x="90" y="790" name="top"/>
	<anchor x="82" y="590" name="_top"/>
	<outline>
		<contour>
			<point x="39" y="780" type="line"/>
			<point x="-5" y="650" type="line"/>
			<point x="88" y="650" type="line"/>
			<point x="200" y="780" type="line"/>
		</contour>
	</outline>
</glyph>
<glyph name="circumflexcomb" format="2">
	<advance width="330"/>
	<unicode hex="0302"/>
	<anchor x="166" y="790" name="top"/>
	<anchor x="166" y="590" name="_top"/>
	<outline>
		<contour>
			<point x="0" y="650" type="line"/>
			<point x="117" y="650" type="line"/>
			<point x="159" y="718" type="line"/>
			<point x="163" y="739" type="line"/>
			<point x="168" y="739" type="line"/>
			<point x="172" y="718" type="line"/>
			<point x="214" y="650" type="line"/>
			<point x="330" y="650" type="line"/>
			<point x="241" y="790" type="line"/>
			<point x="89" y="790" type="line"/>
		</contour>
	</outline>
</glyph>
<glyph name="tildecomb" format="2">
	<advance width="363"/>
	<unicode hex="0303"/>
	<anchor x="182" y="776" name="top"/>
	<anchor x="182" y="590" name="_top"/>
	<outline>
		<contour>
			<point x="3" y="670" type="curve"/>
			<point x="62" y="657" type="line"/>
			<point x="67" y="678"/>
			<point x="82" y="691"/>
			<point x="103" y="691" type="curve" smooth="yes"/>
			<point x="116" y="691"/>
			<point x="134" y="688"/>
			<point x="151" y="683" type="curve" smooth="yes"/>
			<point x="206" y="666" type="line" smooth="yes"/>
			<point x="226" y="660"/>
			<point x="247" y="657"/>
			<point x="262" y="657" type="curve" smooth="yes"/>
			<point x="320" y="657"/>
			<point x="357" y="696"/>
			<point x="361" y="763" type="curve"/>
			<point x="302" y="776" type="line"/>
			<point x="297" y="755"/>
			<point x="282" y="742"/>
			<point x="261" y="742" type="curve" smooth="yes"/>
			<point x="246" y="742"/>
			<point x="229" y="745"/>
			<point x="213" y="750" type="curve" smooth="yes"/>
			<point x="157" y="767" type="line" smooth="yes"/>
			<point x="138" y="773"/>
			<point x="118" y="776"/>
			<point x="102" y="776" type="curve" smooth="yes"/>
			<point x="44" y="776"/>
			<point x="7" y="737"/>
		</contour>
	</outline>
</glyph>
<glyph name="macroncomb" format="2">
	<advance width="338"/>
	<unicode hex="0304"/>
	<anchor x="169" y="760" name="top"/>
	<anchor x="169" y="590" name="_top"/>
	<outline>
		<contour>
			<point x="24" y="760" type="line"/>
			<point x="24" y="675" type="line"/>
			<point x="314" y="675" type="line"/>
			<point x="314" y="760" type="line"/>
		</contour>
	</outline>
</glyph>
<glyph name="brevecomb" format="2">
	<advance width="312"/>
	<unicode hex="0306"/>
	<anchor x="156" y="790" name="top"/>
	<anchor x="156" y="590" name="_top"/>
	<outline>
		<contour>
			<point x="316" y="773" type="curve"/>
			<point x="226" y="783" type="line"/>
			<point x="226" y="743"/>
			<point x="202" y="723"/>
			<point x="156" y="723" type="curve" smooth="yes"/>
			<point x="111" y="723"/>
			<point x="86" y="743"/>
			<point x="86" y="783" type="curve"/>
			<point x="-4" y="773" type="line"/>
			<point x="-4" y="688"/>
			<point x="52" y="643"/>
			<point x="156" y="643" type="curve" smooth="yes"/>
			<point x="260" y="643"/>
			<point x="316" y="688"/>
		</contour>
	</outline>
</glyph>
<glyph name="dotaccentcomb" format="2">
	<advance width="233"/>
	<unicode hex="0307"/>
	<anchor x="117" y="780" name="top"/>
	<anchor x="117" y="590" name="_top"/>
	<outline>
		<contour>
			<point x="34" y="780" type="line"/>
			<point x="34" y="650" type="line"/>
			<point x="199" y="650" type="line"/>
			<point x="199" y="780" type="line"/>
		</contour>
	</outline>
</glyph>
<glyph name="dieresiscomb" format="2">
	<advance width="358"/>
	<unicode hex="0308"/>
	<anchor x="179" y="780" name="top"/>
	<anchor x="179" y="590" name="_top"/>
	<outline>
		<contour>
			<point x="34" y="780" type="line"/>
			<point x="34" y="650" type="line"/>
			<point x="154" y="650" type="line"/>
			<point x="154" y="780" type="line"/>
		</contour>
		<contour>
			<point x="204" y="780" type="line"/>
			<point x="204" y="650" type="line"/>
			<point x="324" y="650" type="line"/>
			<point x="324" y="780" type="line"/>
		</contour>
	</outline>
</glyph>
<glyph name="ringcomb" format="2">
	<advance width="228"/>
	<unicode hex="030A"/>
	<anchor x="114" y="811" name="top"/>
	<anchor x="114" y="590" name="_top"/>
	<outline>
		<contour>
			<point x="114" y="626" type="curve" smooth="yes"/>
			<point x="174" y="626"/>
			<point x="209" y="661"/>
			<point x="209" y="719" type="curve" smooth="yes"/>
			<point x="209" y="777"/>
			<point x="174" y="811"/>
			<point x="114" y="811" type="curve" smooth="yes"/>
			<point x="55" y="811"/>
			<point x="19" y="777"/>
			<point x="19" y="719" type="curve" smooth="yes"/>
			<point x="19" y="661"/>
			<point x="55" y="626"/>
		</contour>
		<contour>
			<point x="114" y="679" type="curve" smooth="yes"/>
			<point x="91" y="679"/>
			<point x="77" y="694"/>
			<point x="77" y="719" type="curve" smooth="yes"/>
			<point x="77" y="744"/>
			<point x="91" y="759"/>
			<point x="114" y="759" type="curve" smooth="yes"/>
			<point x="138" y="759"/>
			<point x="152" y="744"/>
			<point x="152" y="719" type="curve" smooth="yes"/>
			<point x="152" y="694"/>
			<point x="138" y="679"/>
		</contour>
	</outline>
</glyph>
<glyph name="hungarumlautcomb" format="2">
	<advance width="350"/>
	<unicode hex="030B"/>
	<anchor x="183" y="790" name="top"/>
	<anchor x="183" y="590" name="_top"/>
	<outline>
		<contour>
			<point x="33" y="780" type="line"/>
			<point x="-12" y="650" type="line"/>
			<point x="82" y="650" type="line"/>
			<point x="194" y="780" type="line"/>
		</contour>
		<contour>
			<point x="237" y="780" type="line"/>
			<point x="193" y="650" type="line"/>
			<point x="286" y="650" type="line"/>
			<point x="398" y="780" type="line"/>
		</contour>
	</outline>
</glyph>
<glyph name="commaaccentcomb" format="2">
	<advance width="141"/>
	<unicode hex="0326"/>
	<anchor x="69" y="0" name="_bottom"/>
	<anchor x="69" y="-180" name="bottom"/>
	<outline>
		<contour>
			<point x="28" y="-240" type="line"/>
			<point x="86" y="-240" type="line"/>
			<point x="134" y="-156" type="line"/>
			<point x="134" y="-40" type="line"/>
			<point x="4" y="-40" type="line"/>
			<point x="4" y="-156" type="line"/>
			<point x="59" y="-156" type="line"/>
		</contour>
	</outline>
</glyph>
<glyph name="cedillacomb" format="2">
	<advance width="174"/>
	<unicode hex="0327"/>
	<anchor x="76" y="0" name="_bottom"/>
	<anchor x="81" y="-172" name="bottom"/>
	<outline>
		<contour>
			<point x="43" y="20" type="line"/>
			<point x="43" y="-14"/>
			<point x="37" y="-45"/>
			<point x="26" y="-63" type="curve"/>
			<point x="41" y="-83" type="line"/>
			<point x="72" y="-83" type="line" smooth="yes"/>
			<point x="89" y="-83"/>
			<point x="99" y="-90"/>
			<point x="99" y="-101" type="curve" smooth="yes"/>
			<point x="99" y="-112"/>
			<point x="89" y="-119"/>
			<point x="72" y="-119" type="curve" smooth="yes"/>
			<point x="57" y="-119"/>
			<point x="38" y="-117"/>
			<point x="20" y="-114" type="curve"/>
			<point x="8" y="-160" type="line"/>
			<point x="28" y="-168"/>
			<point x="53" y="-172"/>
			<point x="77" y="-172" type="curve" smooth="yes"/>
			<point x="134" y="-172"/>
			<point x="168" y="-147"/>
			<point x="168" y="-105" type="curve" smooth="yes"/>
			<point x="168" y="-69"/>
			<point x="144" y="-44"/>
			<point x="104" y="-38" type="curve"/>
			<point x="109" y="-18"/>
			<point x="112" y="4"/>
			<point x="112" y="20" type="curve"/>
		</contour>
	</outline>
</glyph>
<glyph name="ogonekcomb" format="2">
	<advance width="171"/>
	<unicode hex="0328"/>
	<anchor x="139" y="10" name="_ogonek"/>
	<outline>
		<contour>
			<point x="139" y="0" type="curve"/>
			<point x="129" y="20" type="line"/>
			<point x="60" y="20" type="line"/>
			<point x="28" y="-13"/>
			<point x="9" y="-51"/>
			<point x="9" y="-84" type="curve" smooth="yes"/>
			<point x="9" y="-139"/>
			<point x="42" y="-172"/>
			<point x="102" y="-172" type="curve" smooth="yes"/>
			<point x="122" y="-172"/>
			<point x="140" y="-169"/>
			<point x="154" y="-164" type="curve"/>
			<point x="154" y="-106" type="line"/>
			<point x="147" y="-109"/>
			<point x="138" y="-111"/>
			<point x="129" y="-111" type="curve" smooth="yes"/>
			<point x="109" y="-111"/>
			<point x="97" y="-99"/>
			<point x="97" y="-76" type="curve" smooth="yes"/>
			<point x="97" y="-48"/>
			<point x="112" y="-20"/>
		</contour>
	</outline>
</glyph>
<glyph name="endash" format="2">
	<advance width="702"/>
	<unicode hex="2013"/>
	<outline>
		<contour>
			<point x="51" y="241" type="line"/>
			<point x="651" y="241" type="line"/>
			<point x="651" y="361" type="line"/>
			<point x="51" y="361" type="line"/>
		</contour>
	</outline>
</glyph>
<glyph name="emdash" format="2">
	<advance width="859"/>
	<unicode hex="2014"/>
	<outline>
		<contour>
			<point x="51" y="241" type="line"/>
			<point x="808" y="241" type="line"/>
			<point x="808" y="361" type="line"/>
			<point x="51" y="361" type="line"/>
		</contour>
	</outline>
</glyph>
<glyph name="guilsinglleft" format="2">
	<advance width="348"/>
	<unicode hex="2039"/>
	<outline>
		<contour>
			<point x="168" y="498" type="line"/>
			<point x="48" y="290" type="line"/>
			<point x="168" y="82" type="line"/>
			<point x="300" y="82" type="line"/>
			<point x="190" y="290" type="line"/>
			<point x="300" y="498" type="line"/>
		</contour>
	</outline>
</glyph>
<glyph name="guilsinglright" format="2">
	<advance width="348"/>
	<unicode hex="203A"/>
	<outline>
		<contour>
			<point x="180" y="498" type="line"/>
			<point x="48" y="498" type="line"/>
			<point x="158" y="290" type="line"/>
			<point x="48" y="82" type="line"/>
			<point x="180" y="82" type="line"/>
			<point x="300" y="290" type="line"/>
		</contour>
	</outline>
</glyph>
<glyph name="euro" format="2">
	<advance width="668"/>
	<unicode hex="20AC"/>
	<outline>
		<contour>
			<point x="626" y="263" type="line"/>
			<point x="453" y="269" type="line"/>
			<point x="453" y="248" type="line" smooth="yes"/>
			<point x="453" y="177"/>
			<point x="415" y="135"/>
			<point x="351" y="135" type="curve" smooth="yes"/>
			<point x="291" y="135"/>
			<point x="256" y="176"/>
			<point x="256" y="246" type="curve" smooth="yes"/>
			<point x="256" y="550" type="line" smooth="yes"/>
			<point x="256" y="623"/>
			<point x="291" y="666"/>
			<point x="349" y="666" type="curve" smooth="yes"/>
			<point x="412" y="666"/>
			<point x="450" y="629"/>
			<point x="450" y="566" type="curve" smooth="yes"/>
			<point x="450" y="542" type="line"/>
			<point x="623" y="549" type="line"/>
			<point x="623" y="572" type="line" smooth="yes"/>
			<point x="623" y="723"/>
			<point x="522" y="813"/>
			<point x="350" y="813" type="curve" smooth="yes"/>
			<point x="179" y="813"/>
			<point x="78" y="716"/>
			<point x="78" y="552" type="curve" smooth="yes"/>
			<point x="78" y="250" type="line" smooth="yes"/>
			<point x="78" y="85"/>
			<point x="179" y="-13"/>
			<point x="350" y="-13" type="curve" smooth="yes"/>
			<point x="523" y="-13"/>
			<point x="626" y="81"/>
			<point x="626" y="239" type="curve" smooth="yes"/>
		</contour>
		<contour>
			<point x="11" y="270" type="line"/>
			<point x="391" y="270" type="line"/>
			<point x="421" y="370" type="line"/>
			<point x="41" y="370" type="line"/>
		</contour>
		<contour>
			<point x="11" y="425" type="line"/>
			<point x="391" y="425" type="line"/>
			<point x="421" y="525" type="line"/>
			<point x="41" y="525" type="line"/>
		</contour>
	</outline>
</glyph>
<glyph name="trademark" format="2">
	<advance width="533"/>
	<unicode hex="2122"/>
	<outline>
		<contour>
			<point x="26" y="820" type="line"/>
			<point x="26" y="766" type="line"/>
			<point x="82" y="766" type="line"/>
			<point x="82" y="590" type="line"/>
			<point x="147" y="590" type="line"/>
			<point x="147" y="766" type="line"/>
			<point x="204" y="766" type="line"/>
			<point x="204" y="820" type="line"/>
		</contour>
		<contour>
			<point x="512" y="590" type="line"/>
			<point x="512" y="820" type="line"/>
			<point x="413" y="820" type="line"/>
			<point x="374" y="694" type="line"/>
			<point x="371" y="668" type="line"/>
			<point x="367" y="668" type="line"/>
			<point x="364" y="694" type="line"/>
			<point x="324" y="820" type="line"/>
			<point x="232" y="820" type="line"/>
			<point x="232" y="590" type="line"/>
			<point x="288" y="590" type="line"/>
			<point x="288" y="724" type="line"/>
			<point x="285" y="764" type="line"/>
			<point x="289" y="764" type="line"/>
			<point x="296" y="724" type="line"/>
			<point x="341" y="590" type="line"/>
			<point x="396" y="590" type="line"/>
			<point x="439" y="724" type="line"/>
			<point x="445" y="764" type="line"/>
			<point x="450" y="764" type="line"/>
			<point x="447" y="724" type="line"/>
			<point x="447" y="590" type="line"/>
		</contour>
	</outline>
</glyph>
<glyph name="lozenge" format="2">
	<advance width="694"/>
	<unicode hex="25CA"/>
	<outline>
		<contour>
			<point x="50" y="400" type="line"/>
			<point x="245" y="0" type="line"/>
			<point x="450" y="0" type="line"/>
			<point x="645" y="400" type="line"/>
			<point x="450" y="800" type="line"/>
			<point x="245" y="800" type="line"/>
		</contour>
		<contour>
			<point x="470" y="400" type="line"/>
			<point x="359" y="148" type="line"/>
			<point x="350" y="99" type="line"/>
			<point x="344" y="99" type="line"/>
			<point x="336" y="148" type="line"/>
			<point x="225" y="400" type="line"/>
			<point x="336" y="653" type="line"/>
			<point x="345" y="701" type="line"/>
			<point x="350" y="701" type="line"/>
			<point x="359" y="653" type="line"/>
		</contour>
	</outline>
</glyph>
<glyph name="G.ss02" format="2">
	<advance width="632"/>
	<anchor x="319" y="800" name="top"/>
	<anchor x="319" y="0" name="bottom"/>
	<outline>
		<contour>
			<point x="603" y="428" type="line"/>
			<point x="335" y="428" type="line"/>
			<point x="335" y="298" type="line"/>
			<point x="430" y="298" type="line"/>
			<point x="430" y="253" type="line" smooth="yes"/>
			<point x="430" y="177"/>
			<point x="394" y="132"/>
			<point x="332" y="132" type="curve" smooth="yes"/>
			<point x="266" y="132"/>
			<point x="227" y="178"/>
			<point x="227" y="256" type="curve" smooth="yes"/>
			<point x="227" y="540" type="line" smooth="yes"/>
			<point x="227" y="620"/>
			<point x="263" y="668"/>
			<point x="325" y="668" type="curve" smooth="yes"/>
			<point x="386" y="668"/>
			<point x="422" y="626"/>
			<point x="422" y="556" type="curve" smooth="yes"/>
			<point x="422" y="531" type="line"/>
			<point x="595" y="538" type="line"/>
			<point x="595" y="562" type="line" smooth="yes"/>
			<point x="595" y="720"/>
			<point x="495" y="813"/>
			<point x="326" y="813" type="curve" smooth="yes"/>
			<point x="153" y="813"/>
			<point x="50" y="712"/>
			<point x="50" y="542" type="curve" smooth="yes"/>
			<point x="50" y="260" type="line" smooth="yes"/>
			<point x="50" y="88"/>
			<point x="143" y="-13"/>
			<point x="301" y="-13" type="curve" smooth="yes"/>
			<point x="401" y="-13"/>
			<point x="473" y="31"/>
			<point x="495" y="105" type="curve"/>
			<point x="500" y="105" type="line"/>
			<point x="518" y="0" type="line"/>
			<point x="603" y="0" type="line"/>
		</contour>
	</outline>
</glyph>
<glyph name="J.ss03" format="2">
	<advance width="419"/>
	<outline>
		<contour>
			<point x="350" y="188" type="curve" smooth="yes"/>
			<point x="350" y="800" type="line"/>
			<point x="175" y="800" type="line"/>
			<point x="175" y="215" type="line" smooth="yes"/>
			<point x="175" y="169"/>
			<point x="147" y="140"/>
			<point x="94" y="140" type="curve" smooth="yes"/>
			<point x="74" y="140"/>
			<point x="52" y="144"/>
			<point x="35" y="151" type="curve"/>
			<point x="35" y="5" type="line"/>
			<point x="67" y="-7"/>
			<point x="108" y="-13"/>
			<point x="150" y="-13" type="curve" smooth="yes"/>
			<point x="280" y="-13"/>
			<point x="350" y="63"/>
		</contour>
	</outline>
</glyph>
<glyph name="K.ss04" format="2">
	<advance width="617"/>
	<anchor x="307" y="800" name="top"/>
	<anchor x="307" y="0" name="bottom"/>
	<outline>
		<contour>
			<point x="70" y="0" type="line"/>
			<point x="245" y="0" type="line"/>
			<point x="245" y="351" type="line"/>
			<point x="240" y="399" type="line"/>
			<point x="245" y="399" type="line"/>
			<point x="258" y="351" type="line"/>
			<point x="402" y="0" type="line"/>
			<point x="589" y="0" type="line"/>
			<point x="409" y="435" type="line"/>
			<point x="573" y="800" type="line"/>
			<point x="387" y="800" type="line"/>
			<point x="258" y="499" type="line"/>
			<point x="245" y="453" type="line"/>
			<point x="240" y="453" type="line"/>
			<point x="245" y="499" type="line"/>
			<point x="245" y="800" type="line"/>
			<point x="70" y="800" type="line"/>
		</contour>
	</outline>
</glyph>
<glyph name="R.ss05" format="2">
	<advance width="669"/>
	<anchor x="306" y="800" name="top"/>
	<anchor x="306" y="0" name="bottom"/>
	<outline>
		<contour>
			<point x="70" y="0" type="line"/>
			<point x="245" y="0" type="line"/>
			<point x="245" y="320" type="line"/>
			<point x="342" y="320" type="line" smooth="yes"/>
			<point x="385" y="320"/>
			<point x="410" y="289"/>
			<point x="410" y="237" type="curve" smooth="yes"/>
			<point x="410" y="90" type="line" smooth="yes"/>
			<point x="410" y="57"/>
			<point x="418" y="24"/>
			<point x="432" y="0" type="curve"/>
			<point x="604" y="0" type="line"/>
			<point x="606" y="4" type="line"/>
			<point x="592" y="28"/>
			<point x="583" y="63"/>
			<point x="583" y="99" type="curve" smooth="yes"/>
			<point x="583" y="234" type="line" smooth="yes"/>
			<point x="583" y="325"/>
			<point x="550" y="385"/>
			<point x="495" y="396" type="curve"/>
			<point x="495" y="401" type="line"/>
			<point x="548" y="414"/>
			<point x="580" y="468"/>
			<point x="580" y="547" type="curve" smooth="yes"/>
			<point x="580" y="572" type="line" smooth="yes"/>
			<point x="580" y="715"/>
			<point x="488" y="800"/>
			<point x="333" y="800" type="curve" smooth="yes"/>
			<point x="70" y="800" type="line"/>
		</contour>
		<contour>
			<point x="245" y="463" type="line"/>
			<point x="245" y="653" type="line"/>
			<point x="327" y="653" type="line" smooth="yes"/>
			<point x="375" y="653"/>
			<point x="403" y="623"/>
			<point x="403" y="572" type="curve" smooth="yes"/>
			<point x="403" y="545" type="line" smooth="yes"/>
			<point x="403" y="493"/>
			<point x="375" y="463"/>
			<point x="327" y="463" type="curve" smooth="yes"/>
		</contour>
	</outline>
</glyph>
<glyph name="a.sc" format="2">
	<advance width="617"/>
	<anchor x="589" y="10" name="ogonek"/>
	<anchor x="312" y="0" name="bottom"/>
	<anchor x="310" y="620" name="top"/>
	<outline>
		<contour>
			<point x="589" y="0" type="line"/>
			<point x="428" y="620" type="line"/>
			<point x="194" y="620" type="line"/>
			<point x="35" y="0" type="line"/>
			<point x="209" y="0" type="line"/>
			<point x="298" y="416" type="line"/>
			<point x="307" y="480" type="line"/>
			<point x="312" y="480" type="line"/>
			<point x="322" y="416" type="line"/>
			<point x="406" y="0" type="line"/>
		</contour>
		<contour>
			<point x="136" y="240" type="line"/>
			<point x="136" y="105" type="line"/>
			<point x="481" y="105" type="line"/>
			<point x="481" y="240" type="line"/>
		</contour>
	</outline>
</glyph>
<glyph name="ae.sc" format="2">
	<advance width="822"/>
	<outline>
		<contour>
			<point x="35" y="0" type="line"/>
			<point x="219" y="0" type="line"/>
			<point x="352" y="472" type="line"/>
			<point x="364" y="472" type="line"/>
			<point x="364" y="0" type="line"/>
			<point x="779" y="0" type="line"/>
			<point x="779" y="148" type="line"/>
			<point x="539" y="148" type="line"/>
			<point x="539" y="250" type="line"/>
			<point x="729" y="250" type="line"/>
			<point x="729" y="388" type="line"/>
			<point x="539" y="388" type="line"/>
			<point x="539" y="472" type="line"/>
			<point x="759" y="472" type="line"/>
			<point x="759" y="620" type="line"/>
			<point x="220" y="620" type="line"/>
		</contour>
		<contour>
			<point x="147" y="235" type="line"/>
			<point x="147" y="100" type="line"/>
			<point x="457" y="100" type="line"/>
			<point x="457" y="235" type="line"/>
		</contour>
	</outline>
</glyph>
<glyph name="b.sc" format="2">
	<advance width="590"/>
	<outline>
		<contour>
			<point x="48" y="0" type="line"/>
			<point x="311" y="0" type="line" smooth="yes"/>
			<point x="452" y="0"/>
			<point x="527" y="58"/>
			<point x="527" y="167" type="curve" smooth="yes"/>
			<point x="527" y="194" type="line" smooth="yes"/>
			<point x="527" y="262"/>
			<point x="490" y="314"/>
			<point x="426" y="335" type="curve"/>
			<point x="426" y="339" type="line"/>
			<point x="469" y="356"/>
			<point x="494" y="395"/>
			<point x="494" y="444" type="curve" smooth="yes"/>
			<point x="494" y="466" type="line" smooth="yes"/>
			<point x="494" y="567"/>
			<point x="427" y="620"/>
			<point x="301" y="620" type="curve" smooth="yes"/>
			<point x="48" y="620" type="line"/>
		</contour>
		<contour>
			<point x="223" y="140" type="line"/>
			<point x="223" y="255" type="line"/>
			<point x="300" y="255" type="line" smooth="yes"/>
			<point x="334" y="255"/>
			<point x="352" y="239"/>
			<point x="352" y="213" type="curve" smooth="yes"/>
			<point x="352" y="180" type="line" smooth="yes"/>
			<point x="352" y="154"/>
			<point x="334" y="140"/>
			<point x="300" y="140" type="curve" smooth="yes"/>
		</contour>
		<contour>
			<point x="223" y="380" type="line"/>
			<point x="223" y="480" type="line"/>
			<point x="285" y="480" type="line" smooth="yes"/>
			<point x="314" y="480"/>
			<point x="329" y="468"/>
			<point x="329" y="445" type="curve" smooth="yes"/>
			<point x="329" y="418" type="line" smooth="yes"/>
			<point x="329" y="394"/>
			<point x="314" y="380"/>
			<point x="285" y="380" type="curve" smooth="yes"/>
		</contour>
	</outline>
</glyph>
<glyph name="c.sc" format="2">
	<advance width="580"/>
	<anchor x="285" y="620" name="top"/>
	<anchor x="285" y="0" name="bottom"/>
	<outline>
		<contour>
			<point x="538" y="244" type="line"/>
			<point x="360" y="251" type="line"/>
			<point x="360" y="215" type="line" smooth="yes"/>
			<point x="360" y="165"/>
			<point x="334" y="135"/>
			<point x="289" y="135" type="curve" smooth="yes"/>
			<point x="240" y="135"/>
			<point x="211" y="167"/>
			<point x="211" y="221" type="curve" smooth="yes"/>
			<point x="211" y="394" type="line" smooth="yes"/>
			<point x="211" y="451"/>
			<point x="239" y="485"/>
			<point x="287" y="485" type="curve" smooth="yes"/>
			<point x="332" y="485"/>
			<point x="359" y="454"/>
			<point x="359" y="402" type="curve" smooth="yes"/>
			<point x="359" y="377" type="line"/>
			<point x="538" y="381" type="line"/>
			<point x="538" y="412" type="line" smooth="yes"/>
			<point x="538" y="551"/>
			<point x="445" y="633"/>
			<point x="288" y="633" type="curve" smooth="yes"/>
			<point x="128" y="633"/>
			<point x="33" y="547"/>
			<point x="33" y="402" type="curve" smooth="yes"/>
			<point x="33" y="220" type="line" smooth="yes"/>
			<point x="33" y="74"/>
			<point x="128" y="-13"/>
			<point x="288" y="-13" type="curve" smooth="yes"/>
			<point x="445" y="-13"/>
			<point x="538" y="66"/>
			<point x="538" y="200" type="curve" smooth="yes"/>
		</contour>
	</outline>
</glyph>
<glyph name="caroncomb.alt" format="2">
	<advance width="126"/>
	<anchor x="9" y="820" name="_topright"/>
	<outline>
		<contour>
			<point x="34" y="635" type="line"/>
			<point x="87" y="635" type="line"/>
			<point x="139" y="739" type="line"/>
			<point x="139" y="820" type="line"/>
			<point x="34" y="820" type="line"/>
		</contour>
	</outline>
</glyph>
<glyph name="circumflexcomb.alt" format="2">
	<advance width="266"/>
	<anchor x="133" y="790" name="top"/>
	<anchor x="133" y="590" name="_top"/>
	<outline>
		<contour>
			<point x="0" y="650" type="line"/>
			<point x="110" y="650" type="line"/>
			<point x="129" y="722" type="line"/>
			<point x="131" y="745" type="line"/>
			<point x="136" y="745" type="line"/>
			<point x="137" y="722" type="line"/>
			<point x="156" y="650" type="line"/>
			<point x="266" y="650" type="line"/>
			<point x="217" y="785" type="line"/>
			<point x="49" y="785" type="line"/>
		</contour>
	</outline>
</glyph>
<glyph name="d.sc" format="2">
	<advance width="583"/>
	<anchor x="301" y="325" name="center"/>
	<anchor x="286" y="0" name="bottom"/>
	<anchor x="285" y="620" name="top"/>
	<outline>
		<contour>
			<point x="48" y="0" type="line"/>
			<point x="279" y="0" type="line" smooth="yes"/>
			<point x="449" y="0"/>
			<point x="541" y="81"/>
			<point x="541" y="229" type="curve" smooth="yes"/>
			<point x="541" y="391" type="line" smooth="yes"/>
			<point x="541" y="539"/>
			<point x="449" y="620"/>
			<point x="279" y="620" type="curve" smooth="yes"/>
			<point x="48" y="620" type="line"/>
		</contour>
		<contour>
			<point x="223" y="148" type="line"/>
			<point x="223" y="472" type="line"/>
			<point x="278" y="472" type="line" smooth="yes"/>
			<point x="332" y="472"/>
			<point x="363" y="445"/>
			<point x="363" y="389" type="curve" smooth="yes"/>
			<point x="363" y="236" type="line" smooth="yes"/>
			<point x="363" y="177"/>
			<point x="333" y="148"/>
			<point x="280" y="148" type="curve" smooth="yes"/>
		</contour>
	</outline>
</glyph>
<glyph name="dieresiscomb.alt" format="2">
	<advance width="348"/>
	<anchor x="174" y="780" name="top"/>
	<anchor x="174" y="590" name="_top"/>
	<outline>
		<contour>
			<point x="71" y="780" type="line"/>
			<point x="71" y="650" type="line"/>
			<point x="171" y="650" type="line"/>
			<point x="171" y="780" type="line"/>
		</contour>
		<contour>
			<point x="216" y="780" type="line"/>
			<point x="216" y="650" type="line"/>
			<point x="316" y="650" type="line"/>
			<point x="316" y="780" type="line"/>
		</contour>
	</outline>
</glyph>
<glyph name="e.sc" format="2">
	<advance width="531"/>
	<anchor x="488" y="10" name="ogonek"/>
	<anchor x="259" y="620" name="top"/>
	<anchor x="15" y="620" name="topleft"/>
	<anchor x="259" y="0" name="bottom"/>
	<outline>
		<contour>
			<point x="48" y="0" type="line"/>
			<point x="488" y="0" type="line"/>
			<point x="488" y="148" type="line"/>
			<point x="223" y="148" type="line"/>
			<point x="223" y="250" type="line"/>
			<point x="438" y="250" type="line"/>
			<point x="438" y="388" type="line"/>
			<point x="223" y="388" type="line"/>
			<point x="223" y="472" type="line"/>
			<point x="468" y="472" type="line"/>
			<point x="468" y="620" type="line"/>
			<point x="48" y="620" type="line"/>
		</contour>
	</outline>
</glyph>
<glyph name="eng.sc" format="2">
	<advance width="672"/>
	<outline>
		<contour>
			<point x="603" y="140" type="line"/>
			<point x="430" y="140" type="line"/>
			<point x="430" y="10" type="line" smooth="yes"/>
			<point x="430" y="-23"/>
			<point x="401" y="-41"/>
			<point x="350" y="-41" type="curve" smooth="yes"/>
			<point x="329" y="-41"/>
			<point x="307" y="-36"/>
			<point x="290" y="-29" type="curve"/>
			<point x="290" y="-175" type="line"/>
			<point x="322" y="-187"/>
			<point x="362" y="-193"/>
			<point x="403" y="-193" type="curve" smooth="yes"/>
			<point x="532" y="-193"/>
			<point x="603" y="-135"/>
			<point x="603" y="-29" type="curve" smooth="yes"/>
		</contour>
		<component base="n.sc" xOffset="22"/>
	</outline>
</glyph>
<glyph name="eth.sc" format="2">
	<advance width="616"/>
	<outline>
		<contour>
			<point x="46" y="373" type="line"/>
			<point x="16" y="268" type="line"/>
			<point x="308" y="268" type="line"/>
			<point x="338" y="373" type="line"/>
		</contour>
		<component base="d.sc" xOffset="33"/>
	</outline>
</glyph>
<glyph name="f.sc" format="2">
	<advance width="509"/>
	<outline>
		<contour>
			<point x="48" y="0" type="line"/>
			<point x="223" y="0" type="line"/>
			<point x="223" y="240" type="line"/>
			<point x="433" y="240" type="line"/>
			<point x="433" y="378" type="line"/>
			<point x="223" y="378" type="line"/>
			<point x="223" y="472" type="line"/>
			<point x="463" y="472" type="line"/>
			<point x="463" y="620" type="line"/>
			<point x="48" y="620" type="line"/>
		</contour>
	</outline>
</glyph>
<glyph name="f_f" format="2">
	<advance width="725"/>
	<outline>
		<contour>
			<point x="104" y="0" type="line"/>
			<point x="269" y="0" type="line"/>
			<point x="269" y="660" type="line" smooth="yes"/>
			<point x="269" y="687"/>
			<point x="284" y="703"/>
			<point x="312" y="703" type="curve" smooth="yes"/>
			<point x="326" y="703"/>
			<point x="342" y="701"/>
			<point x="354" y="699" type="curve"/>
			<point x="354" y="820" type="line"/>
			<point x="324" y="825"/>
			<point x="292" y="828"/>
			<point x="261" y="828" type="curve" smooth="yes"/>
			<point x="159" y="828"/>
			<point x="104" y="773"/>
			<point x="104" y="670" type="curve" smooth="yes"/>
		</contour>
		<contour>
			<point x="429" y="0" type="line"/>
			<point x="594" y="0" type="line"/>
			<point x="594" y="660" type="line" smooth="yes"/>
			<point x="594" y="687"/>
			<point x="609" y="703"/>
			<point x="637" y="703" type="curve" smooth="yes"/>
			<point x="651" y="703"/>
			<point x="667" y="701"/>
			<point x="679" y="699" type="curve"/>
			<point x="679" y="820" type="line"/>
			<point x="649" y="825"/>
			<point x="617" y="828"/>
			<point x="586" y="828" type="curve" smooth="yes"/>
			<point x="484" y="828"/>
			<point x="429" y="773"/>
			<point x="429" y="670" type="curve" smooth="yes"/>
		</contour>
		<contour>
			<point x="29" y="470" type="line"/>
			<point x="679" y="470" type="line"/>
			<point x="679" y="590" type="line"/>
			<point x="29" y="590" type="line"/>
		</contour>
	</outline>
</glyph>
<glyph name="f_f_jdotless" format="2">
	<advance width="973"/>
	<anchor x="837" y="590" name="top"/>
	<anchor x="837" y="-180" name="bottom"/>
	<outline>
		<contour>
			<point x="104" y="0" type="line"/>
			<point x="269" y="0" type="line"/>
			<point x="269" y="660" type="line" smooth="yes"/>
			<point x="269" y="687"/>
			<point x="284" y="703"/>
			<point x="312" y="703" type="curve" smooth="yes"/>
			<point x="326" y="703"/>
			<point x="342" y="701"/>
			<point x="354" y="699" type="curve"/>
			<point x="354" y="820" type="line"/>
			<point x="324" y="825"/>
			<point x="292" y="828"/>
			<point x="261" y="828" type="curve" smooth="yes"/>
			<point x="159" y="828"/>
			<point x="104" y="773"/>
			<point x="104" y="670" type="curve" smooth="yes"/>
		</contour>
		<contour>
			<point x="429" y="0" type="line"/>
			<point x="594" y="0" type="line"/>
			<point x="594" y="660" type="line" smooth="yes"/>
			<point x="594" y="687"/>
			<point x="609" y="703"/>
			<point x="637" y="703" type="curve" smooth="yes"/>
			<point x="651" y="703"/>
			<point x="667" y="701"/>
			<point x="679" y="699" type="curve"/>
			<point x="679" y="820" type="line"/>
			<point x="649" y="825"/>
			<point x="617" y="828"/>
			<point x="586" y="828" type="curve" smooth="yes"/>
			<point x="484" y="828"/>
			<point x="429" y="773"/>
			<point x="429" y="670" type="curve" smooth="yes"/>
		</contour>
		<contour>
			<point x="29" y="470" type="line"/>
			<point x="755" y="470" type="line"/>
			<point x="755" y="-20" type="line" smooth="yes"/>
			<point x="755" y="-47"/>
			<point x="739" y="-63"/>
			<point x="712" y="-63" type="curve" smooth="yes"/>
			<point x="697" y="-63"/>
			<point x="682" y="-61"/>
			<point x="670" y="-59" type="curve"/>
			<point x="670" y="-180" type="line"/>
			<point x="700" y="-185"/>
			<point x="733" y="-188"/>
			<point x="763" y="-188" type="curve" smooth="yes"/>
			<point x="865" y="-188"/>
			<point x="920" y="-132"/>
			<point x="920" y="-27" type="curve" smooth="yes"/>
			<point x="920" y="590" type="line"/>
			<point x="29" y="590" type="line"/>
		</contour>
	</outline>
</glyph>
<glyph name="f_f_tbar" format="2">
	<advance width="1045"/>
	<outline>
		<contour>
			<point x="652" y="265" type="line"/>
			<point x="957" y="265" type="line"/>
			<point x="987" y="370" type="line"/>
			<point x="682" y="370" type="line"/>
		</contour>
		<component base="f_f_t"/>
	</outline>
</glyph>
<glyph name="f_idotless" format="2">
	<advance width="648"/>
	<anchor x="595" y="10" name="ogonek"/>
	<anchor x="512" y="0" name="bottom"/>
	<anchor x="512" y="590" name="top"/>
	<outline>
		<contour>
			<point x="104" y="0" type="line"/>
			<point x="269" y="0" type="line"/>
			<point x="269" y="660" type="line" smooth="yes"/>
			<point x="269" y="687"/>
			<point x="284" y="703"/>
			<point x="312" y="703" type="curve" smooth="yes"/>
			<point x="326" y="703"/>
			<point x="342" y="701"/>
			<point x="354" y="699" type="curve"/>
			<point x="354" y="820" type="line"/>
			<point x="324" y="825"/>
			<point x="292" y="828"/>
			<point x="261" y="828" type="curve" smooth="yes"/>
			<point x="159" y="828"/>
			<point x="104" y="773"/>
			<point x="104" y="670" type="curve" smooth="yes"/>
		</contour>
		<contour>
			<point x="29" y="470" type="line"/>
			<point x="430" y="470" type="line"/>
			<point x="430" y="0" type="line"/>
			<point x="595" y="0" type="line"/>
			<point x="595" y="590" type="line"/>
			<point x="29" y="590" type="line"/>
		</contour>
	</outline>
</glyph>
<glyph name="f_jdotless" format="2">
	<advance width="648"/>
	<anchor x="512" y="590" name="top"/>
	<anchor x="512" y="-180" name="bottom"/>
	<outline>
		<contour>
			<point x="104" y="0" type="line"/>
			<point x="269" y="0" type="line"/>
			<point x="269" y="660" type="line" smooth="yes"/>
			<point x="269" y="687"/>
			<point x="284" y="703"/>
			<point x="312" y="703" type="curve" smooth="yes"/>
			<point x="326" y="703"/>
			<point x="342" y="701"/>
			<point x="354" y="699" type="curve"/>
			<point x="354" y="820" type="line"/>
			<point x="324" y="825"/>
			<point x="292" y="828"/>
			<point x="261" y="828" type="curve" smooth="yes"/>
			<point x="159" y="828"/>
			<point x="104" y="773"/>
			<point x="104" y="670" type="curve" smooth="yes"/>
		</contour>
		<contour>
			<point x="29" y="470" type="line"/>
			<point x="430" y="470" type="line"/>
			<point x="430" y="-20" type="line" smooth="yes"/>
			<point x="430" y="-47"/>
			<point x="414" y="-63"/>
			<point x="387" y="-63" type="curve" smooth="yes"/>
			<point x="372" y="-63"/>
			<point x="357" y="-61"/>
			<point x="345" y="-59" type="curve"/>
			<point x="345" y="-180" type="line"/>
			<point x="375" y="-185"/>
			<point x="408" y="-188"/>
			<point x="438" y="-188" type="curve" smooth="yes"/>
			<point x="540" y="-188"/>
			<point x="595" y="-132"/>
			<point x="595" y="-27" type="curve" smooth="yes"/>
			<point x="595" y="590" type="line"/>
			<point x="29" y="590" type="line"/>
		</contour>
	</outline>
</glyph>
<glyph name="f_t" format="2">
	<advance width="720"/>
	<anchor x="506" y="295" name="center"/>
	<anchor x="506" y="590" name="top"/>
	<anchor x="640" y="820" name="topright"/>
	<anchor x="575" y="0" name="bottom"/>
	<outline>
		<contour>
			<point x="104" y="0" type="line"/>
			<point x="269" y="0" type="line"/>
			<point x="269" y="660" type="line" smooth="yes"/>
			<point x="269" y="687"/>
			<point x="284" y="703"/>
			<point x="312" y="703" type="curve" smooth="yes"/>
			<point x="326" y="703"/>
			<point x="342" y="701"/>
			<point x="354" y="699" type="curve"/>
			<point x="354" y="820" type="line"/>
			<point x="324" y="825"/>
			<point x="292" y="828"/>
			<point x="261" y="828" type="curve" smooth="yes"/>
			<point x="159" y="828"/>
			<point x="104" y="773"/>
			<point x="104" y="670" type="curve" smooth="yes"/>
		</contour>
		<contour>
			<point x="424" y="153" type="line" smooth="yes"/>
			<point x="424" y="50"/>
			<point x="480" y="-8"/>
			<point x="583" y="-8" type="curve" smooth="yes"/>
			<point x="613" y="-8"/>
			<point x="644" y="-5"/>
			<point x="674" y="0" type="curve"/>
			<point x="674" y="122" type="line"/>
			<point x="662" y="119"/>
			<point x="647" y="118"/>
			<point x="634" y="118" type="curve" smooth="yes"/>
			<point x="605" y="118"/>
			<point x="589" y="133"/>
			<point x="589" y="161" type="curve" smooth="yes"/>
			<point x="589" y="755" type="line"/>
			<point x="519" y="755" type="line"/>
			<point x="424" y="672" type="line"/>
		</contour>
		<contour>
			<point x="29" y="590" type="line"/>
			<point x="29" y="470" type="line"/>
			<point x="674" y="470" type="line"/>
			<point x="674" y="590" type="line"/>
		</contour>
	</outline>
</glyph>
<glyph name="f_tbar" format="2">
	<advance width="720"/>
	<outline>
		<contour>
			<point x="337" y="265" type="line"/>
			<point x="642" y="265" type="line"/>
			<point x="672" y="370" type="line"/>
			<point x="367" y="370" type="line"/>
		</contour>
		<component base="f_t"/>
	</outline>
</glyph>
<glyph name="g.sc" format="2">
	<advance width="580"/>
	<anchor x="284" y="620" name="top"/>
	<anchor x="289" y="0" name="bottom"/>
	<outline>
		<contour>
			<point x="538" y="351" type="line"/>
			<point x="287" y="351" type="line"/>
			<point x="287" y="226" type="line"/>
			<point x="360" y="226" type="line"/>
			<point x="360" y="199" type="line" smooth="yes"/>
			<point x="360" y="159"/>
			<point x="333" y="135"/>
			<point x="286" y="135" type="curve" smooth="yes"/>
			<point x="239" y="135"/>
			<point x="211" y="163"/>
			<point x="211" y="211" type="curve" smooth="yes"/>
			<point x="211" y="405" type="line" smooth="yes"/>
			<point x="211" y="456"/>
			<point x="238" y="486"/>
			<point x="284" y="486" type="curve" smooth="yes"/>
			<point x="328" y="486"/>
			<point x="354" y="463"/>
			<point x="354" y="423" type="curve" smooth="yes"/>
			<point x="354" y="402" type="line"/>
			<point x="533" y="406" type="line"/>
			<point x="533" y="427" type="line" smooth="yes"/>
			<point x="533" y="556"/>
			<point x="441" y="633"/>
			<point x="285" y="633" type="curve" smooth="yes"/>
			<point x="127" y="633"/>
			<point x="33" y="549"/>
			<point x="33" y="407" type="curve" smooth="yes"/>
			<point x="33" y="215" type="line" smooth="yes"/>
			<point x="33" y="72"/>
			<point x="127" y="-13"/>
			<point x="285" y="-13" type="curve" smooth="yes"/>
			<point x="444" y="-13"/>
			<point x="538" y="74"/>
			<point x="538" y="220" type="curve" smooth="yes"/>
		</contour>
	</outline>
</glyph>
<glyph name="g.sc.ss02" format="2">
	<advance width="580"/>
	<anchor x="289" y="620" name="top"/>
	<anchor x="284" y="0" name="bottom"/>
	<outline>
		<contour>
			<point x="260" y="-13" type="curve" smooth="yes"/>
			<point x="346" y="-13"/>
			<point x="412" y="20"/>
			<point x="436" y="75" type="curve"/>
			<point x="441" y="75" type="line"/>
			<point x="453" y="0" type="line"/>
			<point x="538" y="0" type="line"/>
			<point x="538" y="351" type="line"/>
			<point x="287" y="351" type="line"/>
			<point x="287" y="226" type="line"/>
			<point x="360" y="226" type="line"/>
			<point x="360" y="209" type="line" smooth="yes"/>
			<point x="360" y="162"/>
			<point x="333" y="135"/>
			<point x="286" y="135" type="curve" smooth="yes"/>
			<point x="239" y="135"/>
			<point x="211" y="163"/>
			<point x="211" y="211" type="curve" smooth="yes"/>
			<point x="211" y="405" type="line" smooth="yes"/>
			<point x="211" y="456"/>
			<point x="238" y="486"/>
			<point x="284" y="486" type="curve" smooth="yes"/>
			<point x="328" y="486"/>
			<point x="354" y="463"/>
			<point x="354" y="423" type="curve" smooth="yes"/>
			<point x="354" y="402" type="line"/>
			<point x="533" y="406" type="line"/>
			<point x="533" y="432" type="line" smooth="yes"/>
			<point x="533" y="558"/>
			<point x="441" y="633"/>
			<point x="285" y="633" type="curve" smooth="yes"/>
			<point x="127" y="633"/>
			<point x="33" y="551"/>
			<point x="33" y="412" type="curve" smooth="yes"/>
			<point x="33" y="210" type="line" smooth="yes"/>
			<point x="33" y="70"/>
			<point x="117" y="-13"/>
		</contour>
	</outline>
</glyph>
<glyph name="g.ss02" format="2">
	<advance width="543"/>
	<anchor x="254" y="595" name="top"/>
	<anchor x="270" y="-180" name="bottom"/>
	<outline>
		<contour>
			<point x="53" y="378" type="line" smooth="yes"/>
			<point x="53" y="258"/>
			<point x="126" y="195"/>
			<point x="251" y="195" type="curve" smooth="yes"/>
			<point x="377" y="195"/>
			<point x="449" y="259"/>
			<point x="449" y="379" type="curve" smooth="yes"/>
			<point x="449" y="421" type="line" smooth="yes"/>
			<point x="449" y="540"/>
			<point x="377" y="603"/>
			<point x="252" y="603" type="curve" smooth="yes"/>
			<point x="126" y="603"/>
			<point x="53" y="540"/>
			<point x="53" y="420" type="curve" smooth="yes"/>
		</contour>
		<contour>
			<point x="207" y="359" type="curve" smooth="yes"/>
			<point x="207" y="439" type="line" smooth="yes"/>
			<point x="207" y="474"/>
			<point x="223" y="493"/>
			<point x="251" y="493" type="curve" smooth="yes"/>
			<point x="280" y="493"/>
			<point x="296" y="474"/>
			<point x="296" y="440" type="curve" smooth="yes"/>
			<point x="296" y="360" type="line" smooth="yes"/>
			<point x="296" y="325"/>
			<point x="280" y="305"/>
			<point x="252" y="305" type="curve" smooth="yes"/>
			<point x="223" y="305"/>
			<point x="207" y="324"/>
		</contour>
		<contour>
			<point x="165" y="243" type="line"/>
			<point x="109" y="221"/>
			<point x="79" y="185"/>
			<point x="79" y="139" type="curve" smooth="yes"/>
			<point x="79" y="81"/>
			<point x="122" y="46"/>
			<point x="195" y="29" type="curve" smooth="yes"/>
			<point x="291" y="7" type="line" smooth="yes"/>
			<point x="322" y="0"/>
			<point x="339" y="-14"/>
			<point x="339" y="-36" type="curve" smooth="yes"/>
			<point x="339" y="-66"/>
			<point x="311" y="-84"/>
			<point x="263" y="-84" type="curve" smooth="yes"/>
			<point x="215" y="-84"/>
			<point x="187" y="-62"/>
			<point x="187" y="-24" type="curve" smooth="yes"/>
			<point x="187" y="5"/>
			<point x="202" y="29"/>
			<point x="228" y="40" type="curve"/>
			<point x="147" y="93" type="line"/>
			<point x="76" y="69"/>
			<point x="33" y="18"/>
			<point x="33" y="-45" type="curve" smooth="yes"/>
			<point x="33" y="-138"/>
			<point x="118" y="-193"/>
			<point x="263" y="-193" type="curve" smooth="yes"/>
			<point x="415" y="-193"/>
			<point x="505" y="-132"/>
			<point x="505" y="-27" type="curve" smooth="yes"/>
			<point x="505" y="55"/>
			<point x="441" y="107"/>
			<point x="327" y="133" type="curve" smooth="yes"/>
			<point x="231" y="155" type="line" smooth="yes"/>
			<point x="212" y="159"/>
			<point x="201" y="170"/>
			<point x="201" y="185" type="curve" smooth="yes"/>
			<point x="201" y="196"/>
			<point x="210" y="207"/>
			<point x="225" y="214" type="curve"/>
		</contour>
		<contour>
			<point x="371" y="530" type="curve"/>
			<point x="424" y="490" type="line"/>
			<point x="444" y="513"/>
			<point x="473" y="525"/>
			<point x="508" y="525" type="curve"/>
			<point x="508" y="620" type="line"/>
			<point x="440" y="620"/>
			<point x="389" y="587"/>
		</contour>
	</outline>
</glyph>
<glyph name="h.sc" format="2">
	<advance width="591"/>
	<outline>
		<contour>
			<point x="48" y="0" type="line"/>
			<point x="223" y="0" type="line"/>
			<point x="223" y="250" type="line"/>
			<point x="363" y="250" type="line"/>
			<point x="363" y="0" type="line"/>
			<point x="538" y="0" type="line"/>
			<point x="538" y="620" type="line"/>
			<point x="363" y="620" type="line"/>
			<point x="363" y="398" type="line"/>
			<point x="223" y="398" type="line"/>
			<point x="223" y="620" type="line"/>
			<point x="48" y="620" type="line"/>
		</contour>
	</outline>
</glyph>
<glyph name="hbar.sc" format="2">
	<advance width="651"/>
	<outline>
		<contour>
			<point x="43" y="560" type="line"/>
			<point x="13" y="455" type="line"/>
			<point x="608" y="455" type="line"/>
			<point x="638" y="560" type="line"/>
		</contour>
		<component base="h.sc" xOffset="28"/>
	</outline>
</glyph>
<glyph name="j.sc" format="2">
	<advance width="556"/>
	<outline>
		<contour>
			<point x="205" y="268" type="line"/>
			<point x="35" y="268" type="line"/>
			<point x="35" y="193" type="line" smooth="yes"/>
			<point x="35" y="64"/>
			<point x="121" y="-13"/>
			<point x="268" y="-13" type="curve" smooth="yes"/>
			<point x="416" y="-13"/>
			<point x="503" y="63"/>
			<point x="503" y="191" type="curve" smooth="yes"/>
			<point x="503" y="620" type="line"/>
			<point x="328" y="620" type="line"/>
			<point x="328" y="199" type="line" smooth="yes"/>
			<point x="328" y="159"/>
			<point x="305" y="135"/>
			<point x="266" y="135" type="curve" smooth="yes"/>
			<point x="227" y="135"/>
			<point x="205" y="156"/>
			<point x="205" y="193" type="curve" smooth="yes"/>
		</contour>
	</outline>
</glyph>
<glyph name="j.sc.ss03" format="2">
	<advance width="403"/>
	<outline>
		<contour>
			<point x="350" y="188" type="curve" smooth="yes"/>
			<point x="350" y="620" type="line"/>
			<point x="175" y="620" type="line"/>
			<point x="175" y="215" type="line" smooth="yes"/>
			<point x="175" y="169"/>
			<point x="147" y="140"/>
			<point x="94" y="140" type="curve" smooth="yes"/>
			<point x="73" y="140"/>
			<point x="51" y="144"/>
			<point x="35" y="151" type="curve"/>
			<point x="35" y="5" type="line"/>
			<point x="67" y="-7"/>
			<point x="108" y="-13"/>
			<point x="150" y="-13" type="curve" smooth="yes"/>
			<point x="280" y="-13"/>
			<point x="350" y="63"/>
		</contour>
	</outline>
</glyph>
<glyph name="k.sc" format="2">
	<advance width="616"/>
	<anchor x="285" y="620" name="top"/>
	<anchor x="285" y="0" name="bottom"/>
	<outline>
		<contour>
			<point x="48" y="0" type="line"/>
			<point x="223" y="0" type="line"/>
			<point x="223" y="192" type="line"/>
			<point x="283" y="295" type="line"/>
			<point x="288" y="295" type="line"/>
			<point x="394" y="0" type="line"/>
			<point x="581" y="0" type="line"/>
			<point x="420" y="397" type="line"/>
			<point x="563" y="620" type="line"/>
			<point x="365" y="620" type="line"/>
			<point x="242" y="407" type="line"/>
			<point x="221" y="350" type="line"/>
			<point x="216" y="350" type="line"/>
			<point x="223" y="409" type="line"/>
			<point x="223" y="620" type="line"/>
			<point x="48" y="620" type="line"/>
		</contour>
	</outline>
</glyph>
<glyph name="k.sc.ss04" format="2">
	<advance width="590"/>
	<anchor x="280" y="620" name="top"/>
	<anchor x="280" y="0" name="bottom"/>
	<outline>
		<contour>
			<point x="48" y="0" type="line"/>
			<point x="223" y="0" type="line"/>
			<point x="223" y="250" type="line"/>
			<point x="219" y="290" type="line"/>
			<point x="224" y="290" type="line"/>
			<point x="236" y="250" type="line"/>
			<point x="360" y="0" type="line"/>
			<point x="555" y="0" type="line"/>
			<point x="377" y="330" type="line"/>
			<point x="547" y="620" type="line"/>
			<point x="356" y="620" type="line"/>
			<point x="236" y="385" type="line"/>
			<point x="224" y="346" type="line"/>
			<point x="219" y="346" type="line"/>
			<point x="223" y="385" type="line"/>
			<point x="223" y="620" type="line"/>
			<point x="48" y="620" type="line"/>
		</contour>
	</outline>
</glyph>
<glyph name="k.ss04" format="2">
	<advance width="542"/>
	<anchor x="222" y="820" name="top"/>
	<anchor x="222" y="0" name="bottom"/>
	<outline>
		<contour>
			<point x="48" y="0" type="line"/>
			<point x="213" y="0" type="line"/>
			<point x="213" y="279" type="line"/>
			<point x="210" y="315" type="line"/>
			<point x="215" y="315" type="line"/>
			<point x="222" y="279" type="line"/>
			<point x="326" y="0" type="line"/>
			<point x="507" y="0" type="line"/>
			<point x="357" y="341" type="line"/>
			<point x="473" y="590" type="line"/>
			<point x="301" y="590" type="line"/>
			<point x="223" y="384" type="line"/>
			<point x="215" y="348" type="line"/>
			<point x="210" y="348" type="line"/>
			<point x="213" y="384" type="line"/>
			<point x="213" y="820" type="line"/>
			<point x="48" y="820" type="line"/>
		</contour>
	</outline>
</glyph>
<glyph name="l.sc" format="2">
	<advance width="496"/>
	<anchor x="224" y="330" name="center"/>
	<anchor x="140" y="620" name="top"/>
	<anchor x="263" y="620" name="topright"/>
	<anchor x="253" y="0" name="bottom"/>
	<outline>
		<contour>
			<point x="468" y="0" type="line"/>
			<point x="468" y="148" type="line"/>
			<point x="223" y="148" type="line"/>
			<point x="223" y="620" type="line"/>
			<point x="48" y="620" type="line"/>
			<point x="48" y="0" type="line"/>
		</contour>
	</outline>
</glyph>
<glyph name="lslash.sc" format="2">
	<advance width="539"/>
	<outline>
		<contour>
			<point x="28" y="227" type="line"/>
			<point x="357" y="318" type="line"/>
			<point x="357" y="427" type="line"/>
			<point x="28" y="336" type="line"/>
		</contour>
		<component base="l.sc" xOffset="43"/>
	</outline>
</glyph>
<glyph name="m.sc" format="2">
	<advance width="836"/>
	<outline>
		<contour>
			<point x="783" y="0" type="line"/>
			<point x="783" y="620" type="line"/>
			<point x="523" y="620" type="line"/>
			<point x="418" y="279" type="line"/>
			<point x="411" y="209" type="line"/>
			<point x="406" y="209" type="line"/>
			<point x="399" y="279" type="line"/>
			<point x="292" y="620" type="line"/>
			<point x="48" y="620" type="line"/>
			<point x="48" y="0" type="line"/>
			<point x="200" y="0" type="line"/>
			<point x="200" y="361" type="line"/>
			<point x="196" y="468" type="line"/>
			<point x="201" y="468" type="line"/>
			<point x="214" y="361" type="line"/>
			<point x="336" y="0" type="line"/>
			<point x="476" y="0" type="line"/>
			<point x="594" y="361" type="line"/>
			<point x="607" y="468" type="line"/>
			<point x="612" y="468" type="line"/>
			<point x="608" y="361" type="line"/>
			<point x="608" y="0" type="line"/>
		</contour>
	</outline>
</glyph>
<glyph name="macroncomb.alt" format="2">
	<advance width="338"/>
	<anchor x="169" y="760" name="top"/>
	<anchor x="169" y="590" name="_top"/>
	<outline>
		<contour>
			<point x="87" y="760" type="line"/>
			<point x="87" y="680" type="line"/>
			<point x="304" y="680" type="line"/>
			<point x="304" y="760" type="line"/>
		</contour>
	</outline>
</glyph>
<glyph name="n.sc" format="2">
	<advance width="634"/>
	<anchor x="348" y="620" name="top"/>
	<anchor x="348" y="0" name="bottom"/>
	<outline>
		<contour>
			<point x="48" y="620" type="line"/>
			<point x="48" y="0" type="line"/>
			<point x="205" y="0" type="line"/>
			<point x="205" y="336" type="line"/>
			<point x="195" y="428" type="line"/>
			<point x="200" y="428" type="line"/>
			<point x="218" y="336" type="line"/>
			<point x="376" y="0" type="line"/>
			<point x="581" y="0" type="line"/>
			<point x="581" y="620" type="line"/>
			<point x="423" y="620" type="line"/>
			<point x="423" y="279" type="line"/>
			<point x="432" y="188" type="line"/>
			<point x="427" y="188" type="line"/>
			<point x="411" y="279" type="line"/>
			<point x="252" y="620" type="line"/>
		</contour>
	</outline>
</glyph>
<glyph name="o.sc" format="2">
	<advance width="588"/>
	<anchor x="289" y="330" name="center"/>
	<anchor x="397" y="10" name="ogonek"/>
	<anchor x="289" y="620" name="top"/>
	<anchor x="574" y="620" name="topright"/>
	<anchor x="13" y="620" name="topleft"/>
	<anchor x="289" y="0" name="bottom"/>
	<outline>
		<contour>
			<point x="33" y="230" type="line" smooth="yes"/>
			<point x="33" y="73"/>
			<point x="123" y="-13"/>
			<point x="290" y="-13" type="curve" smooth="yes"/>
			<point x="456" y="-13"/>
			<point x="546" y="73"/>
			<point x="546" y="229" type="curve" smooth="yes"/>
			<point x="546" y="391" type="line" smooth="yes"/>
			<point x="546" y="548"/>
			<point x="456" y="633"/>
			<point x="290" y="633" type="curve" smooth="yes"/>
			<point x="124" y="633"/>
			<point x="33" y="548"/>
			<point x="33" y="392" type="curve" smooth="yes"/>
		</contour>
		<contour>
			<point x="211" y="231" type="curve" smooth="yes"/>
			<point x="211" y="385" type="line" smooth="yes"/>
			<point x="211" y="449"/>
			<point x="239" y="486"/>
			<point x="289" y="486" type="curve" smooth="yes"/>
			<point x="340" y="486"/>
			<point x="369" y="451"/>
			<point x="369" y="390" type="curve" smooth="yes"/>
			<point x="369" y="236" type="line" smooth="yes"/>
			<point x="369" y="172"/>
			<point x="340" y="135"/>
			<point x="291" y="135" type="curve" smooth="yes"/>
			<point x="240" y="135"/>
			<point x="211" y="169"/>
		</contour>
	</outline>
</glyph>
<glyph name="oe.sc" format="2">
	<advance width="846"/>
	<outline>
		<contour>
			<point x="50" y="235" type="line" smooth="yes"/>
			<point x="50" y="76"/>
			<point x="129" y="-13"/>
			<point x="271" y="-13" type="curve" smooth="yes"/>
			<point x="335" y="-13"/>
			<point x="382" y="8"/>
			<point x="404" y="45" type="curve"/>
			<point x="408" y="45" type="line"/>
			<point x="408" y="0" type="line"/>
			<point x="803" y="0" type="line"/>
			<point x="803" y="148" type="line"/>
			<point x="563" y="148" type="line"/>
			<point x="563" y="255" type="line"/>
			<point x="753" y="255" type="line"/>
			<point x="753" y="393" type="line"/>
			<point x="563" y="393" type="line"/>
			<point x="563" y="473" type="line"/>
			<point x="783" y="473" type="line"/>
			<point x="783" y="620" type="line"/>
			<point x="408" y="620" type="line"/>
			<point x="408" y="575" type="line"/>
			<point x="404" y="575" type="line"/>
			<point x="381" y="613"/>
			<point x="334" y="633"/>
			<point x="271" y="633" type="curve" smooth="yes"/>
			<point x="128" y="633"/>
			<point x="50" y="546"/>
			<point x="50" y="387" type="curve" smooth="yes"/>
		</contour>
		<contour>
			<point x="227" y="231" type="curve" smooth="yes"/>
			<point x="227" y="385" type="line" smooth="yes"/>
			<point x="227" y="449"/>
			<point x="256" y="486"/>
			<point x="305" y="486" type="curve" smooth="yes"/>
			<point x="356" y="486"/>
			<point x="385" y="451"/>
			<point x="385" y="390" type="curve" smooth="yes"/>
			<point x="385" y="236" type="line" smooth="yes"/>
			<point x="385" y="172"/>
			<point x="357" y="135"/>
			<point x="307" y="135" type="curve" smooth="yes"/>
			<point x="256" y="135"/>
			<point x="227" y="169"/>
		</contour>
	</outline>
</glyph>
<glyph name="one.ss07" format="2">
	<advance width="311"/>
	<outline>
		<contour>
			<point x="147" y="780" type="line"/>
			<point x="147" y="722"/>
			<point x="120" y="672"/>
			<point x="70" y="635" type="curve"/>
			<point x="70" y="0" type="line"/>
			<point x="242" y="0" type="line"/>
			<point x="242" y="780" type="line"/>
		</contour>
	</outline>
</glyph>
<glyph name="oslash.sc" format="2">
	<advance width="603"/>
	<outline>
		<contour>
			<point x="621" y="431" type="line"/>
			<point x="621" y="552" type="line"/>
			<point x="8" y="190" type="line"/>
			<point x="8" y="69" type="line"/>
		</contour>
		<component base="o.sc" xOffset="18"/>
	</outline>
</glyph>
<glyph name="p.sc" format="2">
	<advance width="546"/>
	<outline>
		<contour>
			<point x="48" y="0" type="line"/>
			<point x="223" y="0" type="line"/>
			<point x="223" y="183" type="line"/>
			<point x="285" y="183" type="line" smooth="yes"/>
			<point x="432" y="183"/>
			<point x="511" y="250"/>
			<point x="511" y="376" type="curve" smooth="yes"/>
			<point x="511" y="423" type="line" smooth="yes"/>
			<point x="511" y="552"/>
			<point x="432" y="620"/>
			<point x="286" y="620" type="curve" smooth="yes"/>
			<point x="48" y="620" type="line"/>
		</contour>
		<contour>
			<point x="223" y="330" type="line"/>
			<point x="223" y="473" type="line"/>
			<point x="285" y="473" type="line" smooth="yes"/>
			<point x="316" y="473"/>
			<point x="333" y="455"/>
			<point x="333" y="423" type="curve" smooth="yes"/>
			<point x="333" y="379" type="line" smooth="yes"/>
			<point x="333" y="347"/>
			<point x="316" y="330"/>
			<point x="285" y="330" type="curve" smooth="yes"/>
		</contour>
	</outline>
</glyph>
<glyph name="q.sc" format="2">
	<advance width="588"/>
	<outline>
		<contour>
			<point x="33" y="230" type="line" smooth="yes"/>
			<point x="33" y="73"/>
			<point x="123" y="-13"/>
			<point x="290" y="-13" type="curve" smooth="yes"/>
			<point x="455" y="-13"/>
			<point x="546" y="73"/>
			<point x="546" y="229" type="curve" smooth="yes"/>
			<point x="546" y="391" type="line" smooth="yes"/>
			<point x="546" y="548"/>
			<point x="456" y="633"/>
			<point x="290" y="633" type="curve" smooth="yes"/>
			<point x="124" y="633"/>
			<point x="33" y="548"/>
			<point x="33" y="392" type="curve" smooth="yes"/>
		</contour>
		<contour>
			<point x="211" y="231" type="curve" smooth="yes"/>
			<point x="211" y="385" type="line" smooth="yes"/>
			<point x="211" y="449"/>
			<point x="239" y="486"/>
			<point x="289" y="486" type="curve" smooth="yes"/>
			<point x="340" y="486"/>
			<point x="369" y="451"/>
			<point x="369" y="390" type="curve" smooth="yes"/>
			<point x="369" y="236" type="line" smooth="yes"/>
			<point x="369" y="172"/>
			<point x="340" y="135"/>
			<point x="291" y="135" type="curve" smooth="yes"/>
			<point x="240" y="135"/>
			<point x="211" y="169"/>
		</contour>
		<contour>
			<point x="339" y="32" type="line"/>
			<point x="339" y="-8" type="line" smooth="yes"/>
			<point x="339" y="-102"/>
			<point x="393" y="-158"/>
			<point x="485" y="-158" type="curve" smooth="yes"/>
			<point x="502" y="-158"/>
			<point x="521" y="-156"/>
			<point x="536" y="-153" type="curve"/>
			<point x="536" y="-18" type="line"/>
			<point x="526" y="-21"/>
			<point x="511" y="-23"/>
			<point x="497" y="-23" type="curve" smooth="yes"/>
			<point x="460" y="-23"/>
			<point x="439" y="-6"/>
			<point x="439" y="25" type="curve" smooth="yes"/>
			<point x="439" y="32" type="line"/>
		</contour>
	</outline>
</glyph>
<glyph name="r.sc" format="2">
	<advance width="566"/>
	<anchor x="262" y="620" name="top"/>
	<anchor x="282" y="0" name="bottom"/>
	<outline>
		<contour>
			<point x="48" y="0" type="line"/>
			<point x="223" y="0" type="line"/>
			<point x="223" y="193" type="line"/>
			<point x="301" y="193" type="line"/>
			<point x="354" y="0" type="line"/>
			<point x="538" y="0" type="line"/>
			<point x="481" y="178" type="line" smooth="yes"/>
			<point x="473" y="207"/>
			<point x="450" y="233"/>
			<point x="419" y="247" type="curve"/>
			<point x="419" y="251" type="line"/>
			<point x="477" y="270"/>
			<point x="511" y="322"/>
			<point x="511" y="391" type="curve" smooth="yes"/>
			<point x="511" y="433" type="line" smooth="yes"/>
			<point x="511" y="555"/>
			<point x="432" y="620"/>
			<point x="286" y="620" type="curve" smooth="yes"/>
			<point x="48" y="620" type="line"/>
		</contour>
		<contour>
			<point x="223" y="335" type="line"/>
			<point x="223" y="473" type="line"/>
			<point x="285" y="473" type="line" smooth="yes"/>
			<point x="316" y="473"/>
			<point x="333" y="457"/>
			<point x="333" y="428" type="curve" smooth="yes"/>
			<point x="333" y="379" type="line" smooth="yes"/>
			<point x="333" y="351"/>
			<point x="316" y="335"/>
			<point x="285" y="335" type="curve" smooth="yes"/>
		</contour>
	</outline>
</glyph>
<glyph name="r.sc.ss05" format="2">
	<advance width="616"/>
	<anchor x="307" y="620" name="top"/>
	<anchor x="307" y="0" name="bottom"/>
	<outline>
		<contour>
			<point x="70" y="0" type="line"/>
			<point x="245" y="0" type="line"/>
			<point x="245" y="203" type="line"/>
			<point x="314" y="203" type="line" smooth="yes"/>
			<point x="346" y="203"/>
			<point x="363" y="184"/>
			<point x="363" y="148" type="curve"/>
			<point x="363" y="80" type="line"/>
			<point x="363" y="46"/>
			<point x="369" y="17"/>
			<point x="380" y="0" type="curve"/>
			<point x="551" y="0" type="line"/>
			<point x="553" y="4" type="line"/>
			<point x="542" y="27"/>
			<point x="535" y="59"/>
			<point x="535" y="89" type="curve"/>
			<point x="535" y="140" type="line"/>
			<point x="535" y="216"/>
			<point x="502" y="267"/>
			<point x="446" y="278" type="curve"/>
			<point x="446" y="282" type="line"/>
			<point x="500" y="296"/>
			<point x="533" y="343"/>
			<point x="533" y="408" type="curve" smooth="yes"/>
			<point x="533" y="436" type="line" smooth="yes"/>
			<point x="533" y="556"/>
			<point x="460" y="620"/>
			<point x="323" y="620" type="curve" smooth="yes"/>
			<point x="70" y="620" type="line"/>
		</contour>
		<contour>
			<point x="245" y="345" type="line"/>
			<point x="245" y="473" type="line"/>
			<point x="307" y="473" type="line" smooth="yes"/>
			<point x="338" y="473"/>
			<point x="355" y="456"/>
			<point x="355" y="425" type="curve" smooth="yes"/>
			<point x="355" y="395" type="line" smooth="yes"/>
			<point x="355" y="363"/>
			<point x="339" y="345"/>
			<point x="309" y="345" type="curve" smooth="yes"/>
		</contour>
	</outline>
</glyph>
<glyph name="registered.ss10" format="2">
	<advance width="899"/>
	<outline>
		<contour>
			<point x="450" y="800" type="curve" smooth="yes"/>
			<point x="229" y="800"/>
			<point x="50" y="621"/>
			<point x="50" y="400" type="curve" smooth="yes"/>
			<point x="50" y="179"/>
			<point x="229" y="0"/>
			<point x="450" y="0" type="curve" smooth="yes"/>
			<point x="673" y="0"/>
			<point x="850" y="179"/>
			<point x="850" y="400" type="curve" smooth="yes"/>
			<point x="850" y="621"/>
			<point x="671" y="800"/>
		</contour>
		<contour>
			<point x="450" y="720" type="curve" smooth="yes"/>
			<point x="627" y="720"/>
			<point x="770" y="578"/>
			<point x="770" y="400" type="curve" smooth="yes"/>
			<point x="770" y="223"/>
			<point x="627" y="80"/>
			<point x="450" y="80" type="curve" smooth="yes"/>
			<point x="272" y="80"/>
			<point x="130" y="223"/>
			<point x="130" y="400" type="curve" smooth="yes"/>
			<point x="130" y="578"/>
			<point x="272" y="720"/>
		</contour>
		<contour>
			<point x="312" y="202" type="line"/>
			<point x="422" y="202" type="line"/>
			<point x="422" y="324" type="line"/>
			<point x="471" y="324" type="line"/>
			<point x="504" y="202" type="line"/>
			<point x="621" y="202" type="line"/>
			<point x="585" y="315" type="line" smooth="yes"/>
			<point x="579" y="333"/>
			<point x="565" y="349"/>
			<point x="546" y="359" type="curve"/>
			<point x="546" y="363" type="line"/>
			<point x="582" y="375"/>
			<point x="604" y="407"/>
			<point x="604" y="450" type="curve" smooth="yes"/>
			<point x="604" y="478" type="line" smooth="yes"/>
			<point x="604" y="554"/>
			<point x="554" y="595"/>
			<point x="462" y="595" type="curve" smooth="yes"/>
			<point x="312" y="595" type="line"/>
		</contour>
		<contour>
			<point x="422" y="415" type="line"/>
			<point x="422" y="502" type="line"/>
			<point x="461" y="502" type="line" smooth="yes"/>
			<point x="481" y="502"/>
			<point x="491" y="492"/>
			<point x="491" y="474" type="curve" smooth="yes"/>
			<point x="491" y="441" type="line" smooth="yes"/>
			<point x="491" y="424"/>
			<point x="481" y="415"/>
			<point x="461" y="415" type="curve" smooth="yes"/>
		</contour>
	</outline>
</glyph>
<glyph name="s.sc" format="2">
	<advance width="540"/>
	<anchor x="272" y="620" name="top"/>
	<anchor x="272" y="0" name="bottom"/>
	<outline>
		<contour>
			<point x="32" y="197" type="line"/>
			<point x="33" y="178" type="line" smooth="yes"/>
			<point x="40" y="54"/>
			<point x="122" y="-13"/>
			<point x="266" y="-13" type="curve" smooth="yes"/>
			<point x="421" y="-13"/>
			<point x="505" y="52"/>
			<point x="505" y="172" type="curve" smooth="yes"/>
			<point x="505" y="215"/>
			<point x="493" y="256"/>
			<point x="470" y="288" type="curve" smooth="yes"/>
			<point x="447" y="320"/>
			<point x="401" y="349"/>
			<point x="332" y="374" type="curve" smooth="yes"/>
			<point x="279" y="393" type="line" smooth="yes"/>
			<point x="257" y="401"/>
			<point x="241" y="412"/>
			<point x="229" y="424" type="curve" smooth="yes"/>
			<point x="218" y="435"/>
			<point x="213" y="447"/>
			<point x="213" y="458" type="curve" smooth="yes"/>
			<point x="213" y="462" type="line" smooth="yes"/>
			<point x="213" y="487"/>
			<point x="233" y="501"/>
			<point x="264" y="501" type="curve" smooth="yes"/>
			<point x="296" y="501"/>
			<point x="319" y="486"/>
			<point x="320" y="458" type="curve" smooth="yes"/>
			<point x="321" y="436" type="line"/>
			<point x="482" y="443" type="line"/>
			<point x="481" y="461" type="line" smooth="yes"/>
			<point x="475" y="573"/>
			<point x="400" y="633"/>
			<point x="268" y="633" type="curve" smooth="yes"/>
			<point x="122" y="633"/>
			<point x="43" y="571"/>
			<point x="43" y="455" type="curve" smooth="yes"/>
			<point x="43" y="413"/>
			<point x="56" y="373"/>
			<point x="81" y="342" type="curve" smooth="yes"/>
			<point x="106" y="311"/>
			<point x="147" y="287"/>
			<point x="208" y="265" type="curve" smooth="yes"/>
			<point x="260" y="246" type="line" smooth="yes"/>
			<point x="286" y="237"/>
			<point x="304" y="223"/>
			<point x="313" y="211" type="curve" smooth="yes"/>
			<point x="321" y="200"/>
			<point x="325" y="187"/>
			<point x="325" y="174" type="curve" smooth="yes"/>
			<point x="325" y="167" type="line" smooth="yes"/>
			<point x="325" y="136"/>
			<point x="304" y="120"/>
			<point x="266" y="120" type="curve" smooth="yes"/>
			<point x="226" y="120"/>
			<point x="201" y="142"/>
			<point x="199" y="183" type="curve" smooth="yes"/>
			<point x="198" y="204" type="line"/>
		</contour>
	</outline>
</glyph>
<glyph name="seven.ss09" format="2">
	<advance width="508"/>
	<outline>
		<contour>
			<point x="35" y="638" type="line"/>
			<point x="300" y="638" type="line"/>
			<point x="125" y="0" type="line"/>
			<point x="310" y="0" type="line"/>
			<point x="480" y="638" type="line"/>
			<point x="480" y="780" type="line"/>
			<point x="35" y="780" type="line"/>
		</contour>
	</outline>
</glyph>
<glyph name="t.sc" format="2">
	<advance width="547"/>
	<anchor x="272" y="355" name="center"/>
	<anchor x="272" y="0" name="bottom"/>
	<anchor x="272" y="620" name="top"/>
	<outline>
		<contour>
			<point x="32" y="620" type="line"/>
			<point x="32" y="473" type="line"/>
			<point x="184" y="473" type="line"/>
			<point x="184" y="0" type="line"/>
			<point x="359" y="0" type="line"/>
			<point x="359" y="473" type="line"/>
			<point x="512" y="473" type="line"/>
			<point x="512" y="620" type="line"/>
		</contour>
	</outline>
</glyph>
<glyph name="tbar.sc" format="2">
	<advance width="547"/>
	<outline>
		<contour>
			<point x="82" y="373" type="line"/>
			<point x="52" y="268" type="line"/>
			<point x="460" y="268" type="line"/>
			<point x="490" y="373" type="line"/>
		</contour>
		<component base="t.sc"/>
	</outline>
</glyph>
<glyph name="thorn.sc" format="2">
	<advance width="565"/>
	<outline>
		<contour>
			<point x="70" y="0" type="line"/>
			<point x="245" y="0" type="line"/>
			<point x="245" y="93" type="line"/>
			<point x="304" y="93" type="line" smooth="yes"/>
			<point x="451" y="93"/>
			<point x="530" y="160"/>
			<point x="530" y="286" type="curve" smooth="yes"/>
			<point x="530" y="348" type="line" smooth="yes"/>
			<point x="530" y="477"/>
			<point x="452" y="545"/>
			<point x="305" y="545" type="curve" smooth="yes"/>
			<point x="245" y="545" type="line"/>
			<point x="245" y="620" type="line"/>
			<point x="70" y="620" type="line"/>
		</contour>
		<contour>
			<point x="245" y="240" type="line"/>
			<point x="245" y="398" type="line"/>
			<point x="305" y="398" type="line" smooth="yes"/>
			<point x="336" y="398"/>
			<point x="353" y="380"/>
			<point x="353" y="348" type="curve" smooth="yes"/>
			<point x="353" y="289" type="line" smooth="yes"/>
			<point x="353" y="257"/>
			<point x="336" y="240"/>
			<point x="305" y="240" type="curve" smooth="yes"/>
		</contour>
	</outline>
</glyph>
<glyph name="two.ss08" format="2">
	<advance width="580"/>
	<outline>
		<contour>
			<point x="62" y="551" type="line"/>
			<point x="228" y="549" type="line"/>
			<point x="228" y="580" type="line" smooth="yes"/>
			<point x="228" y="625"/>
			<point x="251" y="651"/>
			<point x="289" y="651" type="curve" smooth="yes"/>
			<point x="329" y="651"/>
			<point x="353" y="626"/>
			<point x="353" y="584" type="curve" smooth="yes"/>
			<point x="353" y="543"/>
			<point x="336" y="498"/>
			<point x="307" y="462" type="curve" smooth="yes"/>
			<point x="50" y="150" type="line"/>
			<point x="50" y="0" type="line"/>
			<point x="540" y="0" type="line"/>
			<point x="540" y="143" type="line"/>
			<point x="257" y="143" type="line"/>
			<point x="465" y="402" type="line" smooth="yes"/>
			<point x="501" y="447"/>
			<point x="525" y="511"/>
			<point x="525" y="579" type="curve" smooth="yes"/>
			<point x="525" y="714"/>
			<point x="438" y="793"/>
			<point x="290" y="793" type="curve" smooth="yes"/>
			<point x="147" y="793"/>
			<point x="62" y="712"/>
			<point x="62" y="575" type="curve" smooth="yes"/>
		</contour>
	</outline>
</glyph>
<glyph name="u.sc" format="2">
	<advance width="632"/>
	<anchor x="413" y="10" name="ogonek"/>
	<anchor x="316" y="620" name="top"/>
	<anchor x="588" y="620" name="topright"/>
	<anchor x="316" y="0" name="bottom"/>
	<outline>
		<contour>
			<point x="563" y="620" type="line"/>
			<point x="388" y="620" type="line"/>
			<point x="388" y="219" type="line" smooth="yes"/>
			<point x="388" y="166"/>
			<point x="361" y="135"/>
			<point x="316" y="135" type="curve" smooth="yes"/>
			<point x="271" y="135"/>
			<point x="245" y="164"/>
			<point x="245" y="213" type="curve" smooth="yes"/>
			<point x="245" y="620" type="line"/>
			<point x="70" y="620" type="line"/>
			<point x="70" y="213" type="line" smooth="yes"/>
			<point x="70" y="71"/>
			<point x="161" y="-13"/>
			<point x="316" y="-13" type="curve" smooth="yes"/>
			<point x="471" y="-13"/>
			<point x="563" y="70"/>
			<point x="563" y="211" type="curve" smooth="yes"/>
		</contour>
	</outline>
</glyph>
<glyph name="v.sc" format="2">
	<advance width="627"/>
	<outline>
		<contour>
			<point x="32" y="620" type="line"/>
			<point x="207" y="0" type="line"/>
			<point x="417" y="0" type="line"/>
			<point x="592" y="620" type="line"/>
			<point x="418" y="620" type="line"/>
			<point x="328" y="242" type="line"/>
			<point x="316" y="140" type="line"/>
			<point x="311" y="140" type="line"/>
			<point x="299" y="242" type="line"/>
			<point x="215" y="620" type="line"/>
		</contour>
	</outline>
</glyph>
<glyph name="w.sc" format="2">
	<advance width="985"/>
	<anchor x="489" y="620" name="top"/>
	<anchor x="489" y="0" name="bottom"/>
	<outline>
		<contour>
			<point x="32" y="620" type="line"/>
			<point x="189" y="0" type="line"/>
			<point x="394" y="0" type="line"/>
			<point x="480" y="345" type="line"/>
			<point x="494" y="484" type="line"/>
			<point x="499" y="484" type="line"/>
			<point x="512" y="345" type="line"/>
			<point x="589" y="0" type="line"/>
			<point x="805" y="0" type="line"/>
			<point x="950" y="620" type="line"/>
			<point x="784" y="620" type="line"/>
			<point x="712" y="279" type="line"/>
			<point x="699" y="135" type="line"/>
			<point x="694" y="135" type="line"/>
			<point x="680" y="279" type="line"/>
			<point x="605" y="620" type="line"/>
			<point x="400" y="620" type="line"/>
			<point x="316" y="279" type="line"/>
			<point x="302" y="135" type="line"/>
			<point x="297" y="135" type="line"/>
			<point x="283" y="279" type="line"/>
			<point x="214" y="620" type="line"/>
		</contour>
	</outline>
</glyph>
<glyph name="x.sc" format="2">
	<advance width="623"/>
	<outline>
		<contour>
			<point x="32" y="0" type="line"/>
			<point x="209" y="0" type="line"/>
			<point x="288" y="186" type="line"/>
			<point x="300" y="261" type="line"/>
			<point x="305" y="261" type="line"/>
			<point x="316" y="186" type="line"/>
			<point x="396" y="0" type="line"/>
			<point x="588" y="0" type="line"/>
			<point x="414" y="331" type="line"/>
			<point x="559" y="620" type="line"/>
			<point x="378" y="620" type="line"/>
			<point x="318" y="463" type="line"/>
			<point x="309" y="389" type="line"/>
			<point x="304" y="389" type="line"/>
			<point x="294" y="463" type="line"/>
			<point x="231" y="620" type="line"/>
			<point x="44" y="620" type="line"/>
			<point x="188" y="323" type="line"/>
		</contour>
	</outline>
</glyph>
<glyph name="y.sc" format="2">
	<advance width="624"/>
	<anchor x="314" y="620" name="top"/>
	<anchor x="314" y="0" name="bottom"/>
	<anchor x="52" y="620" name="topleft"/>
	<outline>
		<contour>
			<point x="32" y="620" type="line"/>
			<point x="226" y="176" type="line"/>
			<point x="226" y="0" type="line"/>
			<point x="401" y="0" type="line"/>
			<point x="401" y="176" type="line"/>
			<point x="589" y="620" type="line"/>
			<point x="410" y="620" type="line"/>
			<point x="340" y="394" type="line"/>
			<point x="319" y="273" type="line"/>
			<point x="321" y="273" type="line"/>
			<point x="298" y="394" type="line"/>
			<point x="223" y="620" type="line"/>
		</contour>
	</outline>
</glyph>
